<svg width="1305" height="233" viewBox="0 0 1305 233" fill="none" xmlns="http://www.w3.org/2000/svg">
<mask id="path-1-outside-1_364_2683" maskUnits="userSpaceOnUse" x="379" y="15" width="927" height="68" fill="black">
<rect fill="white" x="379" y="15" width="927" height="68"/>
<path d="M380.751 79V31.64L416.345 31.64V38.374L388.003 38.374V50.436H408.131V56.948H388.003V79H380.751ZM447.114 79.962C432.61 79.962 421.806 69.01 421.806 55.394C421.806 41.63 432.61 30.826 447.114 30.826C461.618 30.826 472.496 41.63 472.496 55.394C472.496 69.01 461.618 79.962 447.114 79.962ZM447.114 73.08C457.326 73.08 465.17 65.458 465.17 55.394C465.17 45.33 457.326 37.634 447.114 37.634C436.902 37.634 429.058 45.33 429.058 55.394C429.058 65.458 436.902 73.08 447.114 73.08ZM523.989 79L513.555 79L490.911 58.132V79H483.585V31.64L505.785 31.64C516.071 31.64 523.027 36.746 523.027 45.922C523.027 55.32 516.663 59.982 506.303 59.982H502.381L523.989 79ZM490.911 38.3V53.618L506.303 53.618C511.779 53.618 515.553 51.176 515.553 45.922C515.553 40.816 511.779 38.3 506.303 38.3L490.911 38.3ZM560.66 80.258L541.568 45.33V79H534.316V31.714H541.568L560.512 66.864L579.752 31.714H586.856V79H579.53V45.404L560.66 80.258ZM593.477 79.074L620.487 29.79L647.053 79.074H639.209L633.733 68.64L607.019 68.64L601.469 79.074H593.477ZM610.275 62.572H630.403L620.413 43.554L610.275 62.572ZM674.097 79.814C659.815 79.814 648.937 69.158 648.937 55.394C648.937 41.63 659.815 30.9 674.097 30.9C681.793 30.9 688.675 34.008 693.633 39.336L688.009 43.702C684.383 39.854 679.499 37.782 674.097 37.782C664.033 37.782 656.189 45.256 656.189 55.394C656.189 65.532 664.033 73.006 674.097 73.006C679.647 73.006 684.457 70.86 688.157 66.938L693.855 71.23C688.823 76.706 682.015 79.814 674.097 79.814ZM703.417 79V31.64L710.743 31.64V79H703.417ZM744.129 25.424L748.051 16.248L756.117 16.248L750.937 25.424H744.129ZM747.089 79.962C732.585 79.962 721.781 69.01 721.781 55.394C721.781 41.63 732.585 30.826 747.089 30.826C761.593 30.826 772.471 41.63 772.471 55.394C772.471 69.01 761.593 79.962 747.089 79.962ZM747.089 73.08C757.301 73.08 765.145 65.458 765.145 55.394C765.145 45.33 757.301 37.634 747.089 37.634C736.877 37.634 729.033 45.33 729.033 55.394C729.033 65.458 736.877 73.08 747.089 73.08ZM783.56 79.074V31.714H790.812L820.042 68.492V31.64L827.294 31.64V79.074H820.042L790.886 42.296V79.074L783.56 79.074ZM853.2 79.074L880.21 29.79L906.776 79.074H898.932L893.456 68.64L866.742 68.64L861.192 79.074H853.2ZM869.998 62.572H890.126L880.136 43.554L869.998 62.572ZM933.82 79.814C919.538 79.814 908.66 69.158 908.66 55.394C908.66 41.63 919.538 30.9 933.82 30.9C941.516 30.9 948.398 34.008 953.356 39.336L947.732 43.702C944.106 39.854 939.222 37.782 933.82 37.782C923.756 37.782 915.912 45.256 915.912 55.394C915.912 65.532 923.756 73.006 933.82 73.006C939.37 73.006 944.18 70.86 947.88 66.938L953.578 71.23C948.546 76.706 941.738 79.814 933.82 79.814ZM955.962 79.074L982.972 29.79L1009.54 79.074H1001.69L996.218 68.64H969.504L963.954 79.074L955.962 79.074ZM972.76 62.572L992.888 62.572L982.898 43.554L972.76 62.572ZM1016.18 79V31.714L1032.24 31.64C1049.33 31.566 1059.47 41.852 1059.47 55.394C1059.47 68.936 1049.33 79 1032.24 79H1016.18ZM1023.43 72.414L1032.24 72.34C1045.78 72.34 1052.15 65.384 1052.15 55.468C1052.15 45.478 1045.78 38.374 1032.24 38.3L1023.43 38.226V72.414ZM1086.36 26.016L1090.28 16.84H1098.42L1093.24 26.016H1086.36ZM1070.53 79V31.64L1107.53 31.64V38.3H1077.78V50.436H1099.39V56.948H1077.78V72.34H1107.6V79H1070.53ZM1145 80.258L1125.91 45.33V79H1118.66V31.714H1125.91L1144.85 66.864L1164.09 31.714H1171.2V79H1163.87V45.404L1145 80.258ZM1185 79V31.64H1192.32V79H1185ZM1228.52 79.814C1214.24 79.814 1203.36 69.158 1203.36 55.394C1203.36 41.63 1214.24 30.9 1228.52 30.9C1236.21 30.9 1243.1 34.008 1248.05 39.336L1242.43 43.702C1238.8 39.854 1233.92 37.782 1228.52 37.782C1218.45 37.782 1210.61 45.256 1210.61 55.394C1210.61 65.532 1218.45 73.006 1228.52 73.006C1234.07 73.006 1238.88 70.86 1242.58 66.938L1248.28 71.23C1243.24 76.706 1236.44 79.814 1228.52 79.814ZM1250.66 79.074L1277.67 29.79L1304.24 79.074H1296.39L1290.92 68.64H1264.2L1258.65 79.074H1250.66ZM1267.46 62.572H1287.59L1277.6 43.554L1267.46 62.572Z"/>
</mask>
<path d="M380.751 79H379.751V80H380.751V79ZM380.751 31.64V30.64H379.751V31.64H380.751ZM416.345 31.64H417.345V30.64H416.345V31.64ZM416.345 38.374V39.374H417.345V38.374H416.345ZM388.003 38.374V37.374H387.003V38.374H388.003ZM388.003 50.436H387.003V51.436H388.003V50.436ZM408.131 50.436H409.131V49.436H408.131V50.436ZM408.131 56.948V57.948H409.131V56.948H408.131ZM388.003 56.948V55.948H387.003V56.948H388.003ZM388.003 79V80H389.003V79H388.003ZM381.751 79V31.64H379.751V79H381.751ZM380.751 32.64L416.345 32.64V30.64L380.751 30.64V32.64ZM415.345 31.64V38.374H417.345V31.64H415.345ZM416.345 37.374L388.003 37.374V39.374L416.345 39.374V37.374ZM387.003 38.374V50.436H389.003V38.374H387.003ZM388.003 51.436H408.131V49.436H388.003V51.436ZM407.131 50.436V56.948H409.131V50.436H407.131ZM408.131 55.948H388.003V57.948H408.131V55.948ZM387.003 56.948V79H389.003V56.948H387.003ZM388.003 78H380.751V80H388.003V78ZM447.114 78.962C433.147 78.962 422.806 68.4422 422.806 55.394H420.806C420.806 69.5778 432.073 80.962 447.114 80.962V78.962ZM422.806 55.394C422.806 42.2017 433.143 31.826 447.114 31.826V29.826C432.077 29.826 420.806 41.0583 420.806 55.394H422.806ZM447.114 31.826C461.089 31.826 471.496 42.2055 471.496 55.394H473.496C473.496 41.0545 462.147 29.826 447.114 29.826V31.826ZM471.496 55.394C471.496 68.4384 461.085 78.962 447.114 78.962V80.962C462.151 80.962 473.496 69.5816 473.496 55.394H471.496ZM447.114 74.08C457.856 74.08 466.17 66.032 466.17 55.394H464.17C464.17 64.884 456.796 72.08 447.114 72.08V74.08ZM466.17 55.394C466.17 44.7615 457.862 36.634 447.114 36.634V38.634C456.79 38.634 464.17 45.8985 464.17 55.394H466.17ZM447.114 36.634C436.366 36.634 428.058 44.7615 428.058 55.394H430.058C430.058 45.8985 437.438 38.634 447.114 38.634V36.634ZM428.058 55.394C428.058 66.032 436.372 74.08 447.114 74.08V72.08C437.432 72.08 430.058 64.884 430.058 55.394H428.058ZM523.989 79V80H526.639L524.65 78.2493L523.989 79ZM513.555 79L512.877 79.7354L513.165 80H513.555V79ZM490.911 58.132L491.589 57.3966L489.911 55.8505V58.132H490.911ZM490.911 79V80H491.911V79H490.911ZM483.585 79H482.585V80H483.585V79ZM483.585 31.64V30.64H482.585V31.64H483.585ZM502.381 59.982V58.982L499.731 58.982L501.72 60.7327L502.381 59.982ZM490.911 38.3V37.3H489.911V38.3H490.911ZM490.911 53.618H489.911V54.618H490.911V53.618ZM523.989 78L513.555 78V80L523.989 80V78ZM514.233 78.2646L491.589 57.3966L490.233 58.8674L512.877 79.7354L514.233 78.2646ZM489.911 58.132V79H491.911V58.132H489.911ZM490.911 78H483.585V80H490.911V78ZM484.585 79V31.64H482.585V79H484.585ZM483.585 32.64L505.785 32.64V30.64L483.585 30.64V32.64ZM505.785 32.64C510.776 32.64 514.842 33.8797 517.638 36.1204C520.407 38.3387 522.027 41.612 522.027 45.922H524.027C524.027 41.056 522.169 37.1883 518.889 34.5596C515.636 31.9533 511.08 30.64 505.785 30.64V32.64ZM522.027 45.922C522.027 50.3771 520.531 53.5827 517.92 55.6995C515.276 57.8438 511.352 58.982 506.303 58.982V60.982C511.614 60.982 516.052 59.7892 519.18 57.253C522.341 54.6893 524.027 50.8649 524.027 45.922H522.027ZM506.303 58.982H502.381V60.982H506.303V58.982ZM501.72 60.7327L523.328 79.7507L524.65 78.2493L503.042 59.2313L501.72 60.7327ZM489.911 38.3V53.618H491.911V38.3H489.911ZM490.911 54.618L506.303 54.618V52.618L490.911 52.618V54.618ZM506.303 54.618C509.171 54.618 511.731 53.9812 513.596 52.5294C515.5 51.0474 516.553 48.8139 516.553 45.922H514.553C514.553 48.2841 513.72 49.8986 512.367 50.9511C510.977 52.0338 508.912 52.618 506.303 52.618V54.618ZM516.553 45.922C516.553 43.0955 515.494 40.8844 513.596 39.4071C511.734 37.958 509.177 37.3 506.303 37.3V39.3C508.905 39.3 510.973 39.9 512.367 40.9854C513.726 42.0426 514.553 43.6425 514.553 45.922H516.553ZM506.303 37.3L490.911 37.3V39.3L506.303 39.3V37.3ZM560.66 80.258L559.782 80.7376L560.664 82.3506L561.539 80.7341L560.66 80.258ZM541.568 45.33L542.445 44.8504L540.568 45.33H541.568ZM541.568 79V80H542.568V79H541.568ZM534.316 79H533.316V80H534.316V79ZM534.316 31.714V30.714H533.316V31.714H534.316ZM541.568 31.714L542.448 31.2396L542.165 30.714H541.568V31.714ZM560.512 66.864L559.631 67.3384L560.505 68.9591L561.389 67.3441L560.512 66.864ZM579.752 31.714V30.714H579.159L578.874 31.2339L579.752 31.714ZM586.856 31.714H587.856V30.714H586.856V31.714ZM586.856 79V80H587.856V79H586.856ZM579.53 79H578.53V80H579.53V79ZM579.53 45.404H580.53L578.65 44.9279L579.53 45.404ZM561.537 79.7784L542.445 44.8504L540.69 45.8096L559.782 80.7376L561.537 79.7784ZM540.568 45.33V79H542.568V45.33H540.568ZM541.568 78H534.316V80H541.568V78ZM535.316 79V31.714H533.316V79H535.316ZM534.316 32.714H541.568V30.714H534.316V32.714ZM540.687 32.1884L559.631 67.3384L561.392 66.3896L542.448 31.2396L540.687 32.1884ZM561.389 67.3441L580.629 32.1941L578.874 31.2339L559.634 66.3839L561.389 67.3441ZM579.752 32.714H586.856V30.714H579.752V32.714ZM585.856 31.714V79H587.856V31.714H585.856ZM586.856 78H579.53V80H586.856V78ZM580.53 79V45.404H578.53V79H580.53ZM578.65 44.9279L559.78 79.7819L561.539 80.7341L580.409 45.8801L578.65 44.9279ZM593.477 79.074L592.6 78.5934L591.789 80.074H593.477V79.074ZM620.487 29.79L621.368 29.3155L620.495 27.696L619.611 29.3094L620.487 29.79ZM647.053 79.074V80.074H648.729L647.934 78.5995L647.053 79.074ZM639.209 79.074L638.324 79.5387L638.605 80.074H639.209V79.074ZM633.733 68.64L634.619 68.1753L634.338 67.64H633.733V68.64ZM607.019 68.64V67.64H606.419L606.137 68.1704L607.019 68.64ZM601.469 79.074V80.074H602.07L602.352 79.5436L601.469 79.074ZM610.275 62.572L609.393 62.1016L608.609 63.572H610.275V62.572ZM630.403 62.572V63.572H632.058L631.289 62.107L630.403 62.572ZM620.413 43.554L621.299 43.089L620.42 41.416L619.531 43.0836L620.413 43.554ZM594.354 79.5546L621.364 30.2706L619.611 29.3094L592.6 78.5934L594.354 79.5546ZM619.607 30.2645L646.173 79.5485L647.934 78.5995L621.368 29.3155L619.607 30.2645ZM647.053 78.074H639.209V80.074H647.053V78.074ZM640.095 78.6093L634.619 68.1753L632.848 69.1047L638.324 79.5387L640.095 78.6093ZM633.733 67.64L607.019 67.64V69.64L633.733 69.64V67.64ZM606.137 68.1704L600.587 78.6044L602.352 79.5436L607.902 69.1096L606.137 68.1704ZM601.469 78.074H593.477V80.074H601.469V78.074ZM610.275 63.572H630.403V61.572H610.275V63.572ZM631.289 62.107L621.299 43.089L619.528 44.019L629.518 63.037L631.289 62.107ZM619.531 43.0836L609.393 62.1016L611.158 63.0424L621.296 44.0244L619.531 43.0836ZM693.633 39.336L694.246 40.1259L695.11 39.4553L694.365 38.6548L693.633 39.336ZM688.009 43.702L687.281 44.3878L687.904 45.0492L688.622 44.4919L688.009 43.702ZM688.157 66.938L688.759 66.1392L688.044 65.6008L687.43 66.2518L688.157 66.938ZM693.855 71.23L694.591 71.9066L695.337 71.0947L694.457 70.4312L693.855 71.23ZM674.097 78.814C660.342 78.814 649.937 68.5804 649.937 55.394H647.937C647.937 69.7356 659.288 80.814 674.097 80.814V78.814ZM649.937 55.394C649.937 42.2037 660.346 31.9 674.097 31.9V29.9C659.284 29.9 647.937 41.0563 647.937 55.394H649.937ZM674.097 31.9C681.513 31.9 688.131 34.8911 692.901 40.0172L694.365 38.6548C689.219 33.1248 682.073 29.9 674.097 29.9V31.9ZM693.02 38.5461L687.396 42.9121L688.622 44.4919L694.246 40.1259L693.02 38.5461ZM688.737 43.0162C684.916 38.9619 679.766 36.782 674.097 36.782V38.782C679.231 38.782 683.85 40.7461 687.281 44.3878L688.737 43.0162ZM674.097 36.782C663.506 36.782 655.189 44.6792 655.189 55.394H657.189C657.189 45.8328 664.56 38.782 674.097 38.782V36.782ZM655.189 55.394C655.189 66.1088 663.506 74.006 674.097 74.006V72.006C664.56 72.006 657.189 64.9552 657.189 55.394H655.189ZM674.097 74.006C679.927 74.006 684.999 71.743 688.884 67.6242L687.43 66.2518C683.915 69.977 679.367 72.006 674.097 72.006V74.006ZM687.555 67.7368L693.253 72.0288L694.457 70.4312L688.759 66.1392L687.555 67.7368ZM693.119 70.5534C688.275 75.8241 681.734 78.814 674.097 78.814V80.814C682.296 80.814 689.371 77.5879 694.591 71.9066L693.119 70.5534ZM703.417 79H702.417V80H703.417V79ZM703.417 31.64V30.64H702.417V31.64H703.417ZM710.743 31.64H711.743V30.64H710.743V31.64ZM710.743 79V80H711.743V79H710.743ZM704.417 79V31.64H702.417V79H704.417ZM703.417 32.64H710.743V30.64L703.417 30.64V32.64ZM709.743 31.64V79H711.743V31.64H709.743ZM710.743 78H703.417V80H710.743V78ZM744.129 25.424L743.209 25.031L742.614 26.424H744.129V25.424ZM748.051 16.248V15.248H747.391L747.131 15.855L748.051 16.248ZM756.117 16.248L756.988 16.7396L757.83 15.248H756.117V16.248ZM750.937 25.424V26.424H751.521L751.808 25.9156L750.937 25.424ZM745.048 25.817L748.97 16.641L747.131 15.855L743.209 25.031L745.048 25.817ZM748.051 17.248L756.117 17.248V15.248L748.051 15.248V17.248ZM755.246 15.7564L750.066 24.9324L751.808 25.9156L756.988 16.7396L755.246 15.7564ZM750.937 24.424H744.129V26.424H750.937V24.424ZM747.089 78.962C733.121 78.962 722.781 68.4422 722.781 55.394H720.781C720.781 69.5778 732.048 80.962 747.089 80.962V78.962ZM722.781 55.394C722.781 42.2017 733.117 31.826 747.089 31.826V29.826C732.052 29.826 720.781 41.0583 720.781 55.394H722.781ZM747.089 31.826C761.064 31.826 771.471 42.2055 771.471 55.394H773.471C773.471 41.0545 762.121 29.826 747.089 29.826V31.826ZM771.471 55.394C771.471 68.4384 761.06 78.962 747.089 78.962V80.962C762.125 80.962 773.471 69.5816 773.471 55.394H771.471ZM747.089 74.08C757.831 74.08 766.145 66.032 766.145 55.394L764.145 55.394C764.145 64.884 756.77 72.08 747.089 72.08V74.08ZM766.145 55.394C766.145 44.7615 757.837 36.634 747.089 36.634V38.634C756.765 38.634 764.145 45.8985 764.145 55.394L766.145 55.394ZM747.089 36.634C736.341 36.634 728.033 44.7615 728.033 55.394H730.033C730.033 45.8985 737.413 38.634 747.089 38.634V36.634ZM728.033 55.394C728.033 66.032 736.346 74.08 747.089 74.08V72.08C737.407 72.08 730.033 64.884 730.033 55.394H728.033ZM783.56 79.074H782.56V80.074H783.56V79.074ZM783.56 31.714V30.714H782.56V31.714H783.56ZM790.812 31.714L791.595 31.0918L791.294 30.714H790.812V31.714ZM820.042 68.492L819.259 69.1142L821.042 71.3574V68.492H820.042ZM820.042 31.64V30.64H819.042V31.64H820.042ZM827.294 31.64H828.294V30.64H827.294V31.64ZM827.294 79.074V80.074H828.294V79.074H827.294ZM820.042 79.074L819.258 79.6952L819.558 80.074H820.042V79.074ZM790.886 42.296L791.669 41.6748L789.886 39.4249V42.296H790.886ZM790.886 79.074V80.074H791.886V79.074H790.886ZM784.56 79.074V31.714H782.56V79.074H784.56ZM783.56 32.714H790.812V30.714H783.56V32.714ZM790.029 32.3362L819.259 69.1142L820.825 67.8698L791.595 31.0918L790.029 32.3362ZM821.042 68.492V31.64L819.042 31.64V68.492H821.042ZM820.042 32.64H827.294V30.64L820.042 30.64V32.64ZM826.294 31.64V79.074H828.294V31.64H826.294ZM827.294 78.074H820.042V80.074H827.294V78.074ZM820.825 78.4528L791.669 41.6748L790.102 42.9172L819.258 79.6952L820.825 78.4528ZM789.886 42.296V79.074H791.886V42.296H789.886ZM790.886 78.074L783.56 78.074V80.074L790.886 80.074V78.074ZM853.2 79.074L852.323 78.5934L851.512 80.074H853.2V79.074ZM880.21 29.79L881.09 29.3155L880.217 27.696L879.333 29.3094L880.21 29.79ZM906.776 79.074V80.074H908.451L907.656 78.5995L906.776 79.074ZM898.932 79.074L898.047 79.5387L898.328 80.074H898.932V79.074ZM893.456 68.64L894.342 68.1753L894.061 67.64H893.456V68.64ZM866.742 68.64V67.64H866.141L865.859 68.1704L866.742 68.64ZM861.192 79.074V80.074H861.793L862.075 79.5436L861.192 79.074ZM869.998 62.572L869.116 62.1016L868.332 63.572H869.998V62.572ZM890.126 62.572V63.572H891.781L891.011 62.107L890.126 62.572ZM880.136 43.554L881.021 43.089L880.143 41.416L879.254 43.0836L880.136 43.554ZM854.077 79.5546L881.087 30.2706L879.333 29.3094L852.323 78.5934L854.077 79.5546ZM879.33 30.2645L905.896 79.5485L907.656 78.5995L881.09 29.3155L879.33 30.2645ZM906.776 78.074H898.932V80.074H906.776V78.074ZM899.818 78.6093L894.342 68.1753L892.571 69.1047L898.047 79.5387L899.818 78.6093ZM893.456 67.64L866.742 67.64V69.64L893.456 69.64V67.64ZM865.859 68.1704L860.309 78.6044L862.075 79.5436L867.625 69.1096L865.859 68.1704ZM861.192 78.074H853.2V80.074H861.192V78.074ZM869.998 63.572H890.126V61.572H869.998V63.572ZM891.011 62.107L881.021 43.089L879.251 44.019L889.241 63.037L891.011 62.107ZM879.254 43.0836L869.116 62.1016L870.881 63.0424L881.019 44.0244L879.254 43.0836ZM953.356 39.336L953.969 40.1259L954.833 39.4553L954.088 38.6548L953.356 39.336ZM947.732 43.702L947.004 44.3878L947.627 45.0492L948.345 44.4919L947.732 43.702ZM947.88 66.938L948.481 66.1392L947.766 65.6008L947.152 66.2518L947.88 66.938ZM953.578 71.23L954.314 71.9066L955.06 71.0947L954.179 70.4312L953.578 71.23ZM933.82 78.814C920.064 78.814 909.66 68.5804 909.66 55.394H907.66C907.66 69.7356 919.011 80.814 933.82 80.814V78.814ZM909.66 55.394C909.66 42.2037 920.068 31.9 933.82 31.9V29.9C919.007 29.9 907.66 41.0563 907.66 55.394H909.66ZM933.82 31.9C941.236 31.9 947.853 34.8911 952.624 40.0172L954.088 38.6548C948.942 33.1248 941.795 29.9 933.82 29.9V31.9ZM952.742 38.5461L947.118 42.9121L948.345 44.4919L953.969 40.1259L952.742 38.5461ZM948.459 43.0162C944.639 38.9619 939.489 36.782 933.82 36.782V38.782C938.954 38.782 943.572 40.7461 947.004 44.3878L948.459 43.0162ZM933.82 36.782C923.228 36.782 914.912 44.6792 914.912 55.394H916.912C916.912 45.8328 924.283 38.782 933.82 38.782V36.782ZM914.912 55.394C914.912 66.1088 923.228 74.006 933.82 74.006V72.006C924.283 72.006 916.912 64.9552 916.912 55.394H914.912ZM933.82 74.006C939.65 74.006 944.721 71.743 948.607 67.6242L947.152 66.2518C943.638 69.977 939.09 72.006 933.82 72.006V74.006ZM947.278 67.7368L952.976 72.0288L954.179 70.4312L948.481 66.1392L947.278 67.7368ZM952.841 70.5534C947.998 75.8241 941.457 78.814 933.82 78.814V80.814C942.019 80.814 949.093 77.5879 954.314 71.9066L952.841 70.5534ZM955.962 79.074L955.085 78.5934L954.273 80.074H955.962V79.074ZM982.972 29.79L983.852 29.3155L982.979 27.696L982.095 29.3094L982.972 29.79ZM1009.54 79.074V80.074H1011.21L1010.42 78.5995L1009.54 79.074ZM1001.69 79.074L1000.81 79.5387L1001.09 80.074H1001.69V79.074ZM996.218 68.64L997.103 68.1753L996.822 67.64H996.218V68.64ZM969.504 68.64V67.64H968.903L968.621 68.1704L969.504 68.64ZM963.954 79.074V80.074H964.555L964.837 79.5436L963.954 79.074ZM972.76 62.572L971.877 62.1016L971.094 63.572H972.76V62.572ZM992.888 62.572V63.572H994.543L993.773 62.107L992.888 62.572ZM982.898 43.554L983.783 43.089L982.904 41.416L982.015 43.0836L982.898 43.554ZM956.839 79.5546L983.849 30.2706L982.095 29.3094L955.085 78.5934L956.839 79.5546ZM982.092 30.2645L1008.66 79.5485L1010.42 78.5995L983.852 29.3155L982.092 30.2645ZM1009.54 78.074H1001.69V80.074H1009.54V78.074ZM1002.58 78.6093L997.103 68.1753L995.332 69.1047L1000.81 79.5387L1002.58 78.6093ZM996.218 67.64H969.504V69.64H996.218V67.64ZM968.621 68.1704L963.071 78.6044L964.837 79.5436L970.387 69.1096L968.621 68.1704ZM963.954 78.074L955.962 78.074V80.074L963.954 80.074V78.074ZM972.76 63.572L992.888 63.572V61.572L972.76 61.572V63.572ZM993.773 62.107L983.783 43.089L982.013 44.019L992.003 63.037L993.773 62.107ZM982.015 43.0836L971.877 62.1016L973.642 63.0424L983.78 44.0244L982.015 43.0836ZM1016.18 79H1015.18V80H1016.18V79ZM1016.18 31.714L1016.18 30.714L1015.18 30.7186V31.714H1016.18ZM1032.24 31.64L1032.24 30.64L1032.24 30.64L1032.24 31.64ZM1023.43 72.414H1022.43V73.4224L1023.44 73.414L1023.43 72.414ZM1032.24 72.34V71.34L1032.23 71.34L1032.24 72.34ZM1032.24 38.3L1032.23 39.3L1032.24 39.3L1032.24 38.3ZM1023.43 38.226L1023.44 37.226L1022.43 37.2176V38.226H1023.43ZM1017.18 79V31.714H1015.18V79H1017.18ZM1016.19 32.714L1032.25 32.64L1032.24 30.64L1016.18 30.714L1016.19 32.714ZM1032.25 32.64C1040.59 32.6039 1047.14 35.0943 1051.59 39.1503C1056.04 43.2018 1058.47 48.883 1058.47 55.394H1060.47C1060.47 48.363 1057.84 42.1302 1052.94 37.6717C1048.05 33.2177 1040.99 30.6021 1032.24 30.64L1032.25 32.64ZM1058.47 55.394C1058.47 61.9035 1056.04 67.5273 1051.6 71.5323C1047.15 75.5436 1040.59 78 1032.24 78V80C1040.98 80 1048.05 77.4244 1052.94 73.0182C1057.83 68.6057 1060.47 62.4265 1060.47 55.394H1058.47ZM1032.24 78H1016.18V80H1032.24V78ZM1023.44 73.414L1032.25 73.34L1032.23 71.34L1023.43 71.414L1023.44 73.414ZM1032.24 73.34C1039.17 73.34 1044.42 71.5586 1047.94 68.3632C1051.48 65.1569 1053.15 60.6457 1053.15 55.468H1051.15C1051.15 60.2063 1049.63 64.1311 1046.6 66.8818C1043.56 69.6434 1038.85 71.34 1032.24 71.34V73.34ZM1053.15 55.468C1053.15 50.2558 1051.48 45.6925 1047.95 42.431C1044.43 39.1786 1039.18 37.3379 1032.25 37.3L1032.24 39.3C1038.84 39.3361 1043.55 41.0844 1046.59 43.9C1049.63 46.7065 1051.15 50.6902 1051.15 55.468H1053.15ZM1032.25 37.3L1023.44 37.226L1023.43 39.226L1032.23 39.3L1032.25 37.3ZM1022.43 38.226V72.414H1024.43V38.226H1022.43ZM1086.36 26.016L1085.44 25.623L1084.85 27.016L1086.36 27.016V26.016ZM1090.28 16.84V15.84H1089.62L1089.37 16.447L1090.28 16.84ZM1098.42 16.84L1099.3 17.3316L1100.14 15.84H1098.42V16.84ZM1093.24 26.016V27.016H1093.83L1094.12 26.5076L1093.24 26.016ZM1070.53 79H1069.53V80H1070.53V79ZM1070.53 31.64V30.64H1069.53V31.64H1070.53ZM1107.53 31.64H1108.53V30.64H1107.53V31.64ZM1107.53 38.3V39.3H1108.53V38.3H1107.53ZM1077.78 38.3V37.3H1076.78V38.3H1077.78ZM1077.78 50.436H1076.78V51.436H1077.78V50.436ZM1099.39 50.436H1100.39V49.436H1099.39V50.436ZM1099.39 56.948V57.948H1100.39V56.948H1099.39ZM1077.78 56.948V55.948H1076.78V56.948H1077.78ZM1077.78 72.34H1076.78V73.34H1077.78V72.34ZM1107.6 72.34H1108.6V71.34H1107.6V72.34ZM1107.6 79V80H1108.6V79H1107.6ZM1087.28 26.409L1091.2 17.233L1089.37 16.447L1085.44 25.623L1087.28 26.409ZM1090.28 17.84H1098.42V15.84L1090.28 15.84V17.84ZM1097.55 16.3484L1092.37 25.5244L1094.12 26.5076L1099.3 17.3316L1097.55 16.3484ZM1093.24 25.016H1086.36V27.016H1093.24V25.016ZM1071.53 79V31.64H1069.53V79H1071.53ZM1070.53 32.64L1107.53 32.64V30.64L1070.53 30.64V32.64ZM1106.53 31.64V38.3H1108.53V31.64L1106.53 31.64ZM1107.53 37.3H1077.78V39.3H1107.53V37.3ZM1076.78 38.3V50.436H1078.78V38.3H1076.78ZM1077.78 51.436H1099.39V49.436H1077.78V51.436ZM1098.39 50.436V56.948H1100.39V50.436H1098.39ZM1099.39 55.948H1077.78V57.948H1099.39V55.948ZM1076.78 56.948V72.34H1078.78V56.948H1076.78ZM1077.78 73.34H1107.6V71.34H1077.78V73.34ZM1106.6 72.34V79H1108.6V72.34H1106.6ZM1107.6 78H1070.53V80H1107.6V78ZM1145 80.258L1144.12 80.7376L1145 82.3506L1145.88 80.7341L1145 80.258ZM1125.91 45.33L1126.78 44.8504L1124.91 45.33H1125.91ZM1125.91 79V80H1126.91V79H1125.91ZM1118.66 79H1117.66V80H1118.66V79ZM1118.66 31.714V30.714H1117.66V31.714H1118.66ZM1125.91 31.714L1126.79 31.2396L1126.5 30.714H1125.91V31.714ZM1144.85 66.864L1143.97 67.3384L1144.84 68.9591L1145.73 67.3441L1144.85 66.864ZM1164.09 31.714V30.714H1163.5L1163.21 31.2339L1164.09 31.714ZM1171.2 31.714H1172.2V30.714H1171.2V31.714ZM1171.2 79V80H1172.2V79H1171.2ZM1163.87 79H1162.87V80H1163.87V79ZM1163.87 45.404H1164.87L1162.99 44.9279L1163.87 45.404ZM1145.88 79.7784L1126.78 44.8504L1125.03 45.8096L1144.12 80.7376L1145.88 79.7784ZM1124.91 45.33V79H1126.91V45.33H1124.91ZM1125.91 78H1118.66V80H1125.91V78ZM1119.66 79V31.714H1117.66V79H1119.66ZM1118.66 32.714H1125.91V30.714H1118.66V32.714ZM1125.03 32.1884L1143.97 67.3384L1145.73 66.3896L1126.79 31.2396L1125.03 32.1884ZM1145.73 67.3441L1164.97 32.1941L1163.21 31.2339L1143.97 66.3839L1145.73 67.3441ZM1164.09 32.714H1171.2V30.714H1164.09V32.714ZM1170.2 31.714V79H1172.2V31.714H1170.2ZM1171.2 78H1163.87V80H1171.2V78ZM1164.87 79V45.404H1162.87V79H1164.87ZM1162.99 44.9279L1144.12 79.7819L1145.88 80.7341L1164.75 45.8801L1162.99 44.9279ZM1185 79H1184V80H1185V79ZM1185 31.64V30.64H1184V31.64H1185ZM1192.32 31.64H1193.32V30.64H1192.32V31.64ZM1192.32 79V80H1193.32V79H1192.32ZM1186 79V31.64H1184V79H1186ZM1185 32.64H1192.32V30.64H1185V32.64ZM1191.32 31.64V79H1193.32V31.64H1191.32ZM1192.32 78H1185V80H1192.32V78ZM1248.05 39.336L1248.67 40.1259L1249.53 39.4553L1248.79 38.6548L1248.05 39.336ZM1242.43 43.702L1241.7 44.3878L1242.33 45.0492L1243.04 44.4919L1242.43 43.702ZM1242.58 66.938L1243.18 66.1392L1242.47 65.6008L1241.85 66.2518L1242.58 66.938ZM1248.28 71.23L1249.01 71.9066L1249.76 71.0947L1248.88 70.4312L1248.28 71.23ZM1228.52 78.814C1214.76 78.814 1204.36 68.5804 1204.36 55.394H1202.36C1202.36 69.7356 1213.71 80.814 1228.52 80.814V78.814ZM1204.36 55.394C1204.36 42.2037 1214.77 31.9 1228.52 31.9V29.9C1213.71 29.9 1202.36 41.0563 1202.36 55.394H1204.36ZM1228.52 31.9C1235.94 31.9 1242.55 34.8911 1247.32 40.0172L1248.79 38.6548C1243.64 33.1248 1236.49 29.9 1228.52 29.9V31.9ZM1247.44 38.5461L1241.82 42.9121L1243.04 44.4919L1248.67 40.1259L1247.44 38.5461ZM1243.16 43.0162C1239.34 38.9619 1234.19 36.782 1228.52 36.782V38.782C1233.65 38.782 1238.27 40.7461 1241.7 44.3878L1243.16 43.0162ZM1228.52 36.782C1217.93 36.782 1209.61 44.6792 1209.61 55.394H1211.61C1211.61 45.8328 1218.98 38.782 1228.52 38.782V36.782ZM1209.61 55.394C1209.61 66.1088 1217.93 74.006 1228.52 74.006V72.006C1218.98 72.006 1211.61 64.9552 1211.61 55.394H1209.61ZM1228.52 74.006C1234.35 74.006 1239.42 71.743 1243.31 67.6242L1241.85 66.2518C1238.34 69.977 1233.79 72.006 1228.52 72.006V74.006ZM1241.98 67.7368L1247.68 72.0288L1248.88 70.4312L1243.18 66.1392L1241.98 67.7368ZM1247.54 70.5534C1242.7 75.8241 1236.16 78.814 1228.52 78.814V80.814C1236.72 80.814 1243.79 77.5879 1249.01 71.9066L1247.54 70.5534ZM1250.66 79.074L1249.78 78.5934L1248.97 80.074H1250.66V79.074ZM1277.67 29.79L1278.55 29.3155L1277.68 27.696L1276.79 29.3094L1277.67 29.79ZM1304.24 79.074V80.074H1305.91L1305.12 78.5995L1304.24 79.074ZM1296.39 79.074L1295.51 79.5387L1295.79 80.074H1296.39V79.074ZM1290.92 68.64L1291.8 68.1753L1291.52 67.64H1290.92V68.64ZM1264.2 68.64V67.64H1263.6L1263.32 68.1704L1264.2 68.64ZM1258.65 79.074V80.074H1259.25L1259.54 79.5436L1258.65 79.074ZM1267.46 62.572L1266.58 62.1016L1265.79 63.572H1267.46V62.572ZM1287.59 62.572V63.572H1289.24L1288.47 62.107L1287.59 62.572ZM1277.6 43.554L1278.48 43.089L1277.6 41.416L1276.71 43.0836L1277.6 43.554ZM1251.54 79.5546L1278.55 30.2706L1276.79 29.3094L1249.78 78.5934L1251.54 79.5546ZM1276.79 30.2645L1303.36 79.5485L1305.12 78.5995L1278.55 29.3155L1276.79 30.2645ZM1304.24 78.074H1296.39V80.074H1304.24V78.074ZM1297.28 78.6093L1291.8 68.1753L1290.03 69.1047L1295.51 79.5387L1297.28 78.6093ZM1290.92 67.64H1264.2V69.64H1290.92V67.64ZM1263.32 68.1704L1257.77 78.6044L1259.54 79.5436L1265.09 69.1096L1263.32 68.1704ZM1258.65 78.074H1250.66V80.074H1258.65V78.074ZM1267.46 63.572H1287.59V61.572H1267.46V63.572ZM1288.47 62.107L1278.48 43.089L1276.71 44.019L1286.7 63.037L1288.47 62.107ZM1276.71 43.0836L1266.58 62.1016L1268.34 63.0424L1278.48 44.0244L1276.71 43.0836Z" fill="black" mask="url(#path-1-outside-1_364_2683)"/>
<line x1="328" y1="54.5" x2="5.33066e-08" y2="54.5" stroke="black"/>
</svg>
