<svg width="859" height="274" viewBox="0 0 859 274" fill="none" xmlns="http://www.w3.org/2000/svg">
<path d="M94.5656 182.4C88.5656 182.4 83.1656 181.133 78.3656 178.6C73.699 176.067 69.9656 172.067 67.1656 166.6C64.499 161 63.1656 153.8 63.1656 145L63.1656 94.8C63.1656 82.9333 66.1656 74.2 72.1656 68.6C78.299 63 85.899 60.2 94.9656 60.2C103.766 60.2 111.099 63.0667 116.966 68.8C122.832 74.4 125.766 83.0667 125.766 94.8L125.766 145C125.766 153.933 124.432 161.2 121.766 166.8C119.099 172.267 115.366 176.267 110.566 178.8C105.899 181.2 100.566 182.4 94.5656 182.4ZM94.5656 173C99.2323 173 103.032 171.2 105.966 167.6C109.032 164 110.566 158.8 110.566 152L110.566 91C110.566 84.2 108.966 79 105.766 75.4C102.699 71.8 98.9656 70 94.5656 70C90.0323 70 86.2323 71.8 83.1656 75.4C80.099 79 78.5656 84.2 78.5656 91L78.5656 152C78.5656 158.8 80.099 164 83.1656 167.6C86.2323 171.2 90.0323 173 94.5656 173ZM141.853 180C141.853 176.133 141.853 172.333 141.853 168.6C141.853 164.733 141.853 160.867 141.853 157C141.853 150.2 142.786 144.8 144.653 140.8C146.653 136.8 149.453 133.533 153.053 131C156.786 128.333 161.386 125.667 166.853 123C171.52 120.733 175.386 118.333 178.453 115.8C181.52 113.133 183.853 109.933 185.453 106.2C187.053 102.333 187.853 97.6 187.853 92C187.986 85.7333 186.853 80.9333 184.453 77.6C182.186 74.2667 178.32 72.6 172.853 72.6C167.786 72.6 163.92 74.2667 161.253 77.6C158.72 80.9333 157.453 86.0667 157.453 93V102.4H142.053V89.4C142.053 79.8 144.72 72.7333 150.053 68.2C155.386 63.5333 163.053 61.2 173.053 61.2C180.653 61.2 186.72 62.3333 191.253 64.6C195.786 66.8667 199.053 70.3333 201.053 75C203.053 79.6667 204.053 85.6 204.053 92.8C204.053 101.867 202.32 109.4 198.853 115.4C195.386 121.4 189.986 126.4 182.653 130.4C178.786 132.133 175.186 134 171.853 136C168.653 137.867 165.92 140.133 163.653 142.8C161.52 145.333 160.186 148.6 159.653 152.6C159.12 154.867 158.653 157.2 158.253 159.6C157.986 162 157.853 164.533 157.853 167.2H204.853V180H141.853Z" fill="black"/>
<mask id="path-2-outside-1_359_2674" maskUnits="userSpaceOnUse" x="259" y="89" width="597" height="64" fill="black">
<rect fill="white" x="259" y="89" width="597" height="64"/>
<path d="M260.516 151V93.4H269.426V116.35H302.906V93.4H311.816V151H302.906L302.816 124.36L269.426 124.36V151H260.516ZM319.901 151.09L352.751 91.15L385.061 151.09L375.521 151.09L368.861 138.4H336.371L329.621 151.09H319.901ZM340.331 131.02H364.811L352.661 107.89L340.331 131.02ZM393.142 151V93.4H420.322C432.382 93.4 439.042 98.53 439.042 107.89C439.042 114.55 435.262 118.42 430.942 119.86C436.522 121.12 441.922 125.62 441.922 134.98C441.922 145.69 435.442 151 423.112 151H393.142ZM401.692 116.26H420.322C426.532 116.26 430.312 113.56 430.312 108.97C430.312 103.84 426.802 101.5 420.052 101.5H401.692V116.26ZM401.692 142.9H422.842C429.592 142.9 433.192 139.84 433.192 133.63C433.282 127.6 429.412 124.18 422.212 124.18H401.692V142.9ZM455.105 151V93.4H464.015V151H455.105ZM480.769 151V93.4H489.679L489.589 142.9H522.079V151H480.769ZM532.801 151V93.4L541.711 93.4V151H532.801ZM558.465 151V93.49L577.995 93.4C598.785 93.31 611.115 105.82 611.115 122.29C611.115 138.76 598.785 151 577.995 151H558.465ZM567.285 142.99L577.995 142.9C594.465 142.9 602.205 134.44 602.205 122.38C602.205 110.23 594.465 101.59 577.995 101.5L567.285 101.41V142.99ZM613.104 151.09L645.954 91.15L678.264 151.09H668.724L662.064 138.4H629.574L622.824 151.09H613.104ZM633.534 131.02H658.014L645.864 107.89L633.534 131.02ZM686.346 151V93.49L705.876 93.4C726.666 93.31 738.996 105.82 738.996 122.29C738.996 138.76 726.666 151 705.876 151H686.346ZM695.166 142.99L705.876 142.9C722.346 142.9 730.086 134.44 730.086 122.38C730.086 110.23 722.346 101.59 705.876 101.5L695.166 101.41V142.99ZM752.439 151V93.4H797.439V101.5H761.259V116.26H787.539V124.18H761.259V142.9H797.529V151H752.439ZM831.252 151.72C821.892 151.81 812.172 149.11 805.512 144.88L810.282 137.95C816.402 141.64 824.322 143.71 831.612 143.71C839.712 143.62 845.112 140.56 845.202 135.34C845.382 130.48 842.142 128.68 833.682 126.7L826.032 124.99C813.702 122.2 808.032 117.07 807.942 108.61C807.942 99.25 817.302 92.86 830.082 92.77C838.452 92.77 846.552 95.29 852.492 98.98L847.992 105.82C842.952 102.76 837.102 100.78 830.892 100.78C822.972 100.87 817.392 103.75 817.482 108.88C817.482 113.29 821.082 115.45 828.642 117.25L836.742 119.05C848.982 121.84 854.382 126.52 854.382 135.25C854.472 145.06 845.022 151.72 831.252 151.72Z"/>
</mask>
<path d="M260.516 151H259.516V152H260.516V151ZM260.516 93.4V92.4H259.516V93.4H260.516ZM269.426 93.4H270.426V92.4H269.426V93.4ZM269.426 116.35H268.426V117.35H269.426V116.35ZM302.906 116.35V117.35H303.906V116.35H302.906ZM302.906 93.4V92.4H301.906V93.4H302.906ZM311.816 93.4H312.816V92.4H311.816V93.4ZM311.816 151V152H312.816V151H311.816ZM302.906 151L301.906 151.003L301.909 152H302.906V151ZM302.816 124.36L303.816 124.357L303.812 123.36H302.816V124.36ZM269.426 124.36V123.36H268.426V124.36H269.426ZM269.426 151V152H270.426V151H269.426ZM261.516 151V93.4H259.516V151H261.516ZM260.516 94.4H269.426V92.4H260.516V94.4ZM268.426 93.4V116.35H270.426V93.4H268.426ZM269.426 117.35H302.906V115.35H269.426V117.35ZM303.906 116.35V93.4H301.906V116.35H303.906ZM302.906 94.4H311.816V92.4H302.906V94.4ZM310.816 93.4V151H312.816V93.4H310.816ZM311.816 150H302.906V152H311.816V150ZM303.906 150.997L303.816 124.357L301.816 124.363L301.906 151.003L303.906 150.997ZM302.816 123.36L269.426 123.36V125.36L302.816 125.36V123.36ZM268.426 124.36V151H270.426V124.36H268.426ZM269.426 150H260.516V152H269.426V150ZM319.901 151.09L319.024 150.609L318.212 152.09H319.901V151.09ZM352.751 91.15L353.631 90.6755L352.758 89.056L351.874 90.6694L352.751 91.15ZM385.061 151.09V152.09H386.736L385.941 150.616L385.061 151.09ZM375.521 151.09L374.635 151.555L374.916 152.09H375.521V151.09ZM368.861 138.4L369.746 137.935L369.465 137.4H368.861V138.4ZM336.371 138.4V137.4H335.77L335.488 137.93L336.371 138.4ZM329.621 151.09V152.09H330.221L330.504 151.56L329.621 151.09ZM340.331 131.02L339.448 130.55L338.664 132.02H340.331V131.02ZM364.811 131.02V132.02H366.466L365.696 130.555L364.811 131.02ZM352.661 107.89L353.546 107.425L352.667 105.752L351.778 107.42L352.661 107.89ZM320.778 151.571L353.628 91.6306L351.874 90.6694L319.024 150.609L320.778 151.571ZM351.87 91.6245L384.18 151.564L385.941 150.616L353.631 90.6755L351.87 91.6245ZM385.061 150.09L375.521 150.09V152.09L385.061 152.09V150.09ZM376.406 150.625L369.746 137.935L367.975 138.865L374.635 151.555L376.406 150.625ZM368.861 137.4H336.371V139.4H368.861V137.4ZM335.488 137.93L328.738 150.62L330.504 151.56L337.254 138.87L335.488 137.93ZM329.621 150.09H319.901V152.09H329.621V150.09ZM340.331 132.02H364.811V130.02H340.331V132.02ZM365.696 130.555L353.546 107.425L351.775 108.355L363.925 131.485L365.696 130.555ZM351.778 107.42L339.448 130.55L341.213 131.49L353.543 108.36L351.778 107.42ZM393.142 151H392.142V152H393.142V151ZM393.142 93.4V92.4H392.142V93.4H393.142ZM430.942 119.86L430.626 118.911L427.224 120.045L430.722 120.835L430.942 119.86ZM401.692 116.26H400.692V117.26H401.692V116.26ZM401.692 101.5V100.5H400.692V101.5H401.692ZM401.692 142.9H400.692V143.9H401.692V142.9ZM433.192 133.63L432.193 133.615L432.192 133.623V133.63H433.192ZM401.692 124.18V123.18H400.692V124.18H401.692ZM394.142 151V93.4H392.142V151H394.142ZM393.142 94.4H420.322V92.4H393.142V94.4ZM420.322 94.4C426.231 94.4 430.662 95.6597 433.593 97.9262C436.485 100.161 438.042 103.471 438.042 107.89H440.042C440.042 102.949 438.27 99.0135 434.817 96.3438C431.403 93.7053 426.474 92.4 420.322 92.4V94.4ZM438.042 107.89C438.042 114.089 434.568 117.597 430.626 118.911L431.259 120.809C435.957 119.243 440.042 115.011 440.042 107.89H438.042ZM430.722 120.835C433.334 121.425 435.872 122.766 437.757 125.023C439.635 127.273 440.922 130.502 440.922 134.98H442.922C442.922 130.098 441.51 126.397 439.293 123.742C437.083 121.094 434.131 119.555 431.163 118.885L430.722 120.835ZM440.922 134.98C440.922 140.126 439.374 143.815 436.496 146.242C433.587 148.695 429.156 150 423.112 150V152C429.399 152 434.373 150.65 437.786 147.771C441.231 144.865 442.922 140.544 442.922 134.98H440.922ZM423.112 150H393.142V152H423.112V150ZM401.692 117.26H420.322V115.26H401.692V117.26ZM420.322 117.26C423.555 117.26 426.284 116.56 428.233 115.146C430.221 113.704 431.312 111.576 431.312 108.97H429.312C429.312 110.954 428.514 112.471 427.059 113.527C425.566 114.61 423.3 115.26 420.322 115.26V117.26ZM431.312 108.97C431.312 106.149 430.329 103.947 428.294 102.497C426.324 101.093 423.511 100.5 420.052 100.5V102.5C423.344 102.5 425.661 103.077 427.133 104.126C428.541 105.128 429.312 106.661 429.312 108.97H431.312ZM420.052 100.5H401.692V102.5H420.052V100.5ZM400.692 101.5V116.26H402.692V101.5H400.692ZM401.692 143.9H422.842V141.9H401.692V143.9ZM422.842 143.9C426.349 143.9 429.215 143.107 431.211 141.343C433.23 139.559 434.192 136.93 434.192 133.63H432.192C432.192 136.54 431.355 138.546 429.886 139.844C428.395 141.163 426.086 141.9 422.842 141.9V143.9ZM434.192 133.645C434.241 130.402 433.217 127.73 431.091 125.888C428.99 124.067 425.955 123.18 422.212 123.18V125.18C425.67 125.18 428.17 126.003 429.781 127.399C431.368 128.775 432.234 130.828 432.193 133.615L434.192 133.645ZM422.212 123.18H401.692V125.18H422.212V123.18ZM400.692 124.18V142.9H402.692V124.18H400.692ZM455.105 151H454.105V152H455.105V151ZM455.105 93.4V92.4H454.105V93.4H455.105ZM464.015 93.4H465.015V92.4H464.015V93.4ZM464.015 151V152H465.015V151H464.015ZM456.105 151V93.4H454.105V151H456.105ZM455.105 94.4H464.015V92.4H455.105V94.4ZM463.015 93.4V151H465.015V93.4H463.015ZM464.015 150H455.105V152H464.015V150ZM480.769 151H479.769V152H480.769V151ZM480.769 93.4V92.4H479.769V93.4H480.769ZM489.679 93.4L490.679 93.4018L490.681 92.4H489.679V93.4ZM489.589 142.9L488.589 142.898L488.588 143.9H489.589V142.9ZM522.079 142.9H523.079V141.9H522.079V142.9ZM522.079 151V152H523.079V151H522.079ZM481.769 151V93.4H479.769V151H481.769ZM480.769 94.4H489.679V92.4H480.769V94.4ZM488.679 93.3982L488.589 142.898L490.589 142.902L490.679 93.4018L488.679 93.3982ZM489.589 143.9H522.079V141.9H489.589V143.9ZM521.079 142.9V151H523.079V142.9H521.079ZM522.079 150H480.769V152H522.079V150ZM532.801 151H531.801V152H532.801V151ZM532.801 93.4V92.4H531.801V93.4H532.801ZM541.711 93.4H542.711V92.4H541.711V93.4ZM541.711 151V152H542.711V151H541.711ZM533.801 151V93.4H531.801V151H533.801ZM532.801 94.4L541.711 94.4V92.4L532.801 92.4V94.4ZM540.711 93.4V151H542.711V93.4H540.711ZM541.711 150H532.801V152H541.711V150ZM558.465 151H557.465V152H558.465V151ZM558.465 93.49L558.46 92.49L557.465 92.4946V93.49H558.465ZM577.995 93.4L577.99 92.4L577.99 92.4L577.995 93.4ZM567.285 142.99H566.285V143.998L567.293 143.99L567.285 142.99ZM577.995 142.9V141.9L577.986 141.9L577.995 142.9ZM577.995 101.5L577.986 102.5L577.989 102.5L577.995 101.5ZM567.285 101.41L567.293 100.41L566.285 100.402V101.41H567.285ZM559.465 151V93.49H557.465V151H559.465ZM558.469 94.49L577.999 94.4L577.99 92.4L558.46 92.49L558.469 94.49ZM577.999 94.4C588.192 94.3559 596.215 97.3983 601.678 102.374C607.135 107.346 610.115 114.315 610.115 122.29H612.115C612.115 113.795 608.929 106.274 603.024 100.896C597.125 95.5217 588.587 92.3541 577.99 92.4L577.999 94.4ZM610.115 122.29C610.115 130.264 607.137 137.163 601.682 142.078C596.22 147 588.195 150 577.995 150V152C588.585 152 597.12 148.88 603.02 143.564C608.928 138.242 612.115 130.786 612.115 122.29H610.115ZM577.995 150H558.465V152H577.995V150ZM567.293 143.99L578.003 143.9L577.986 141.9L567.276 141.99L567.293 143.99ZM577.995 143.9C586.392 143.9 592.715 141.743 596.948 137.903C601.193 134.053 603.205 128.63 603.205 122.38H601.205C601.205 128.19 599.347 133.027 595.604 136.422C591.849 139.827 586.067 141.9 577.995 141.9V143.9ZM603.205 122.38C603.205 116.088 601.195 110.6 596.955 106.683C592.724 102.775 586.402 100.546 578 100.5L577.989 102.5C586.058 102.544 591.84 104.68 595.597 108.152C599.345 111.615 601.205 116.522 601.205 122.38H603.205ZM578.003 100.5L567.293 100.41L567.276 102.41L577.986 102.5L578.003 100.5ZM566.285 101.41V142.99H568.285V101.41H566.285ZM613.104 151.09L612.227 150.609L611.415 152.09H613.104V151.09ZM645.954 91.15L646.834 90.6755L645.961 89.056L645.077 90.6694L645.954 91.15ZM678.264 151.09V152.09H679.939L679.144 150.616L678.264 151.09ZM668.724 151.09L667.838 151.555L668.119 152.09H668.724V151.09ZM662.064 138.4L662.949 137.935L662.668 137.4H662.064V138.4ZM629.574 138.4V137.4H628.973L628.691 137.93L629.574 138.4ZM622.824 151.09V152.09H623.425L623.707 151.56L622.824 151.09ZM633.534 131.02L632.651 130.55L631.868 132.02H633.534V131.02ZM658.014 131.02V132.02H659.669L658.899 130.555L658.014 131.02ZM645.864 107.89L646.749 107.425L645.87 105.752L644.981 107.42L645.864 107.89ZM613.981 151.571L646.831 91.6306L645.077 90.6694L612.227 150.609L613.981 151.571ZM645.074 91.6245L677.384 151.564L679.144 150.616L646.834 90.6755L645.074 91.6245ZM678.264 150.09H668.724V152.09H678.264V150.09ZM669.609 150.625L662.949 137.935L661.178 138.865L667.838 151.555L669.609 150.625ZM662.064 137.4H629.574V139.4H662.064V137.4ZM628.691 137.93L621.941 150.62L623.707 151.56L630.457 138.87L628.691 137.93ZM622.824 150.09H613.104V152.09H622.824V150.09ZM633.534 132.02H658.014V130.02H633.534V132.02ZM658.899 130.555L646.749 107.425L644.979 108.355L657.129 131.485L658.899 130.555ZM644.981 107.42L632.651 130.55L634.416 131.49L646.746 108.36L644.981 107.42ZM686.346 151H685.346V152H686.346V151ZM686.346 93.49L686.341 92.49L685.346 92.4946V93.49H686.346ZM705.876 93.4L705.871 92.4L705.871 92.4L705.876 93.4ZM695.166 142.99H694.166V143.998L695.174 143.99L695.166 142.99ZM705.876 142.9V141.9L705.867 141.9L705.876 142.9ZM705.876 101.5L705.867 102.5L705.87 102.5L705.876 101.5ZM695.166 101.41L695.174 100.41L694.166 100.402V101.41H695.166ZM687.346 151V93.49H685.346V151H687.346ZM686.35 94.49L705.88 94.4L705.871 92.4L686.341 92.49L686.35 94.49ZM705.88 94.4C716.073 94.3559 724.096 97.3983 729.558 102.374C735.016 107.346 737.996 114.315 737.996 122.29L739.996 122.29C739.996 113.795 736.81 106.274 730.905 100.896C725.005 95.5217 716.468 92.3541 705.871 92.4L705.88 94.4ZM737.996 122.29C737.996 130.264 735.018 137.163 729.562 142.078C724.1 147 716.076 150 705.876 150V152C716.466 152 725.001 148.88 730.901 143.564C736.809 138.242 739.996 130.786 739.996 122.29L737.996 122.29ZM705.876 150H686.346V152H705.876V150ZM695.174 143.99L705.884 143.9L705.867 141.9L695.157 141.99L695.174 143.99ZM705.876 143.9C714.273 143.9 720.596 141.743 724.829 137.903C729.074 134.053 731.086 128.63 731.086 122.38H729.086C729.086 128.19 727.228 133.027 723.485 136.422C719.73 139.827 713.948 141.9 705.876 141.9V143.9ZM731.086 122.38C731.086 116.088 729.075 110.6 724.835 106.683C720.605 102.775 714.283 100.546 705.881 100.5L705.87 102.5C713.939 102.544 719.721 104.68 723.478 108.152C727.226 111.615 729.086 116.522 729.086 122.38H731.086ZM705.884 100.5L695.174 100.41L695.157 102.41L705.867 102.5L705.884 100.5ZM694.166 101.41V142.99H696.166V101.41H694.166ZM752.439 151H751.439V152H752.439V151ZM752.439 93.4V92.4H751.439V93.4H752.439ZM797.439 93.4H798.439V92.4H797.439V93.4ZM797.439 101.5V102.5H798.439V101.5H797.439ZM761.259 101.5V100.5H760.259V101.5H761.259ZM761.259 116.26H760.259V117.26H761.259V116.26ZM787.539 116.26H788.539V115.26H787.539V116.26ZM787.539 124.18V125.18H788.539V124.18H787.539ZM761.259 124.18V123.18H760.259V124.18H761.259ZM761.259 142.9H760.259V143.9H761.259V142.9ZM797.529 142.9H798.529V141.9H797.529V142.9ZM797.529 151V152H798.529V151H797.529ZM753.439 151V93.4H751.439V151H753.439ZM752.439 94.4H797.439V92.4H752.439V94.4ZM796.439 93.4V101.5H798.439V93.4H796.439ZM797.439 100.5H761.259V102.5H797.439V100.5ZM760.259 101.5V116.26H762.259V101.5H760.259ZM761.259 117.26H787.539V115.26H761.259V117.26ZM786.539 116.26V124.18H788.539V116.26H786.539ZM787.539 123.18H761.259V125.18H787.539V123.18ZM760.259 124.18V142.9H762.259V124.18H760.259ZM761.259 143.9H797.529V141.9H761.259V143.9ZM796.529 142.9V151H798.529V142.9H796.529ZM797.529 150H752.439V152H797.529V150ZM831.252 151.72V150.72L831.242 150.72L831.252 151.72ZM805.512 144.88L804.688 144.313L804.1 145.168L804.976 145.724L805.512 144.88ZM810.282 137.95L810.798 137.094L809.992 136.607L809.458 137.383L810.282 137.95ZM831.612 143.71V144.71L831.623 144.71L831.612 143.71ZM845.202 135.34L844.203 135.303L844.202 135.313L844.202 135.323L845.202 135.34ZM833.682 126.7L833.91 125.726L833.9 125.724L833.682 126.7ZM826.032 124.99L825.811 125.965L825.814 125.966L826.032 124.99ZM807.942 108.61H806.942L806.942 108.621L807.942 108.61ZM830.082 92.77V91.77L830.075 91.77L830.082 92.77ZM852.492 98.98L853.327 99.5296L853.891 98.6722L853.02 98.1306L852.492 98.98ZM847.992 105.82L847.473 106.675L848.297 107.175L848.827 106.37L847.992 105.82ZM830.892 100.78V99.7799L830.881 99.7801L830.892 100.78ZM817.482 108.88H818.482V108.871L818.482 108.862L817.482 108.88ZM828.642 117.25L828.41 118.223L828.418 118.225L828.425 118.226L828.642 117.25ZM836.742 119.05L836.964 118.075L836.959 118.074L836.742 119.05ZM854.382 135.25H853.382L853.382 135.259L854.382 135.25ZM831.242 150.72C822.054 150.808 812.527 148.151 806.048 144.036L804.976 145.724C811.816 150.069 821.73 152.812 831.262 152.72L831.242 150.72ZM806.336 145.447L811.106 138.517L809.458 137.383L804.688 144.313L806.336 145.447ZM809.766 138.806C816.053 142.597 824.154 144.71 831.612 144.71V142.71C824.49 142.71 816.751 140.683 810.798 137.094L809.766 138.806ZM831.623 144.71C835.777 144.664 839.347 143.858 841.926 142.306C844.541 140.732 846.15 138.371 846.202 135.357L844.202 135.323C844.164 137.529 843.028 139.308 840.895 140.592C838.726 141.897 835.547 142.666 831.601 142.71L831.623 144.71ZM846.201 135.377C846.25 134.049 846.068 132.859 845.574 131.797C845.078 130.728 844.298 129.858 843.259 129.124C841.235 127.692 838.128 126.714 833.91 125.726L833.454 127.674C837.696 128.666 840.439 129.578 842.104 130.756C842.911 131.327 843.436 131.942 843.761 132.64C844.088 133.343 844.243 134.201 844.203 135.303L846.201 135.377ZM833.9 125.724L826.25 124.014L825.814 125.966L833.464 127.676L833.9 125.724ZM826.253 124.015C820.163 122.637 815.855 120.708 813.068 118.185C810.323 115.699 808.984 112.576 808.942 108.599L806.942 108.621C806.99 113.104 808.531 116.776 811.726 119.668C814.879 122.522 819.571 124.553 825.811 125.965L826.253 124.015ZM808.942 108.61C808.942 104.304 811.081 100.652 814.796 98.0308C818.529 95.3961 823.852 93.8139 830.089 93.77L830.075 91.77C823.532 91.8161 817.784 93.4739 813.643 96.3967C809.483 99.3325 806.942 103.556 806.942 108.61H808.942ZM830.082 93.77C838.264 93.77 846.182 96.2373 851.964 99.8294L853.02 98.1306C846.922 94.3427 838.639 91.77 830.082 91.77V93.77ZM851.656 98.4304L847.156 105.27L848.827 106.37L853.327 99.5296L851.656 98.4304ZM848.511 104.965C843.344 101.828 837.317 99.78 830.892 99.78V101.78C836.887 101.78 842.56 103.692 847.473 106.675L848.511 104.965ZM830.881 99.7801C826.823 99.8262 823.259 100.585 820.683 102.074C818.07 103.585 816.429 105.89 816.482 108.898L818.482 108.862C818.445 106.74 819.549 105.04 821.684 103.806C823.855 102.55 827.041 101.824 830.903 101.78L830.881 99.7801ZM816.482 108.88C816.482 111.432 817.558 113.368 819.646 114.858C821.659 116.293 824.611 117.318 828.41 118.223L828.874 116.277C825.113 115.382 822.485 114.427 820.808 113.23C819.206 112.087 818.482 110.738 818.482 108.88H816.482ZM828.425 118.226L836.525 120.026L836.959 118.074L828.859 116.274L828.425 118.226ZM836.52 120.025C842.58 121.406 846.79 123.225 849.48 125.663C852.12 128.056 853.382 131.122 853.382 135.25H855.382C855.382 130.648 853.944 127.009 850.823 124.182C847.754 121.4 843.144 119.484 836.964 118.075L836.52 120.025ZM853.382 135.259C853.424 139.8 851.273 143.624 847.436 146.348C843.575 149.089 837.988 150.72 831.252 150.72V152.72C838.285 152.72 844.309 151.021 848.593 147.979C852.901 144.921 855.43 140.51 855.382 135.241L853.382 135.259Z" fill="black" mask="url(#path-2-outside-1_359_2674)"/>
</svg>
