<svg width="1310" height="750" viewBox="0 0 1310 750" fill="none" xmlns="http://www.w3.org/2000/svg">
<line y1="0.5" x2="1000" y2="0.5" stroke="black"/>
<rect x="15.5" y="605.5" width="473" height="60" rx="27.5" stroke="black"/>
<path d="M105.432 631.828H100.788C99.456 629.272 96.936 627.328 93.12 627.328C87.756 627.328 84.264 631.144 84.264 636.4C84.264 641.98 87.828 645.58 93.084 645.58C97.548 645.58 100.248 643.276 101.22 640.144H91.68V636.292H106.26V636.364C106.26 643.78 101.112 649.504 93.12 649.504C84.984 649.504 79.584 643.672 79.584 636.4C79.584 629.02 84.984 623.296 93.12 623.296C99.132 623.296 103.596 626.536 105.432 631.828ZM125.848 649L119.224 641.764H115.372V649H110.692V623.8H121.78C127.144 623.8 130.924 627.796 130.924 632.764C130.924 636.724 128.512 640.072 124.84 641.296L132.04 649H125.848ZM115.372 637.732H121.168C124.264 637.732 126.244 635.536 126.244 632.764C126.244 629.992 124.264 627.832 121.168 627.832H115.372V637.732ZM148.6 623.8L159.364 649H154.36L152.668 644.608H141.004L139.312 649H134.308L145.072 623.8H148.6ZM151.228 640.756L146.836 629.308L142.444 640.756H151.228ZM173.836 641.908H167.86V649H163.18V623.8H173.836C179.2 623.8 182.98 627.868 182.98 632.836C182.98 637.804 179.2 641.908 173.836 641.908ZM167.86 637.876H173.224C176.32 637.876 178.3 635.608 178.3 632.836C178.3 630.064 176.32 627.832 173.224 627.832H167.86V637.876ZM186.664 649V623.8H191.344V634.168H203.764V623.8H208.444V649H203.764V638.488H191.344V649H186.664ZM214.301 649V623.8H218.981V649H214.301ZM237.012 623.296C243.384 623.296 247.92 627.22 249.432 632.008H244.788C243.456 629.236 240.864 627.4 236.976 627.4C231.54 627.4 228.264 631.36 228.264 636.4C228.264 641.44 231.54 645.4 236.976 645.4C240.864 645.4 243.456 643.564 244.788 640.792H249.432C247.92 645.58 243.384 649.504 237.012 649.504C228.912 649.504 223.584 643.672 223.584 636.4C223.584 629.128 228.912 623.296 237.012 623.296ZM269.877 649H262.461V623.8H269.877C279.777 623.8 284.997 629.56 284.997 636.4C284.997 643.24 279.777 649 269.877 649ZM267.141 627.76V645.04H269.481C276.537 645.04 280.317 641.764 280.317 636.4C280.317 631.036 276.537 627.76 269.481 627.76H267.141ZM289.426 649V623.8H306.274V627.904H294.106V634.168H305.95V638.236H294.106V644.896H306.418V649H289.426ZM309.647 641.62H314.111C314.471 643.996 315.983 645.688 318.863 645.688C321.491 645.688 323.147 644.284 323.147 642.016C323.147 640.108 321.923 638.956 319.835 638.38L316.595 637.48C312.707 636.4 310.187 634.492 310.187 630.64C310.187 626.032 313.859 623.296 318.539 623.296C323.399 623.296 326.459 626.572 326.675 630.748H322.391C322.211 628.696 320.879 627.112 318.503 627.112C316.163 627.112 314.795 628.336 314.795 630.244C314.795 632.188 316.199 632.944 318.251 633.52L321.383 634.42C325.127 635.5 327.719 637.588 327.719 641.656C327.719 646.48 323.471 649.504 318.719 649.504C313.391 649.504 310.187 646.336 309.647 641.62ZM332.215 649V623.8H336.895V649H332.215ZM367.346 631.828H362.702C361.37 629.272 358.85 627.328 355.034 627.328C349.67 627.328 346.178 631.144 346.178 636.4C346.178 641.98 349.742 645.58 354.998 645.58C359.462 645.58 362.162 643.276 363.134 640.144H353.594V636.292H368.174V636.364C368.174 643.78 363.026 649.504 355.034 649.504C346.898 649.504 341.498 643.672 341.498 636.4C341.498 629.02 346.898 623.296 355.034 623.296C361.046 623.296 365.51 626.536 367.346 631.828ZM372.606 649V623.8H376.53L391.038 641.692V623.8H395.61V649H391.686L377.178 631.144V649H372.606Z" fill="black"/>
<path d="M1048.3 597H1050.43L1058.08 618H1056.36L1054.63 613.26H1044.12L1042.39 618H1040.67L1048.3 597ZM1044.7 611.64H1054.03L1049.37 598.845L1044.7 611.64ZM1060.95 618V597H1062.72L1074.48 615.075V597H1076.1V618H1074.36L1062.57 599.925V618H1060.95ZM1086.74 597H1088.87L1096.52 618H1094.79L1093.07 613.26H1082.55L1080.83 618H1079.1L1086.74 597ZM1083.14 611.64H1092.47L1087.8 598.845L1083.14 611.64ZM1106.72 618L1110.78 597H1111.85L1117.95 613.065L1124.04 597H1125.11L1129.19 618H1127.54L1124.24 600.99L1118.43 616.35H1117.44L1111.65 600.99L1108.35 618H1106.72ZM1132.77 618V597H1134.39V618H1132.77ZM1138.44 618V597H1145.28C1146.39 597 1147.4 597.27 1148.3 597.81C1149.2 598.34 1149.91 599.065 1150.43 599.985C1150.96 600.905 1151.22 601.935 1151.22 603.075C1151.22 604.135 1151 605.09 1150.55 605.94C1150.11 606.79 1149.51 607.49 1148.75 608.04C1147.99 608.58 1147.14 608.92 1146.2 609.06L1151.36 618H1149.48L1144.35 609.165H1140.06V618H1138.44ZM1140.06 607.545H1145.18C1145.99 607.545 1146.73 607.35 1147.4 606.96C1148.07 606.56 1148.6 606.02 1149 605.34C1149.4 604.66 1149.6 603.885 1149.6 603.015C1149.6 602.155 1149.4 601.385 1149 600.705C1148.6 600.015 1148.07 599.475 1147.4 599.085C1146.73 598.685 1145.99 598.485 1145.18 598.485H1140.06V607.545ZM1161.56 597H1163.69L1171.34 618H1169.62L1167.89 613.26H1157.38L1155.65 618H1153.93L1161.56 597ZM1157.96 611.64H1167.29L1162.63 598.845L1157.96 611.64ZM1174.22 618V597H1175.99L1187.75 615.075V597H1189.37V618H1187.63L1175.84 599.925V618H1174.22ZM1192.97 618V597H1199.91C1201.36 597 1202.72 597.275 1203.99 597.825C1205.26 598.365 1206.38 599.12 1207.34 600.09C1208.3 601.05 1209.05 602.165 1209.59 603.435C1210.14 604.695 1210.41 606.05 1210.41 607.5C1210.41 608.95 1210.14 610.31 1209.59 611.58C1209.05 612.84 1208.3 613.955 1207.34 614.925C1206.38 615.885 1205.26 616.64 1203.99 617.19C1202.72 617.73 1201.36 618 1199.91 618H1192.97ZM1194.59 616.38H1199.91C1201.14 616.38 1202.29 616.15 1203.36 615.69C1204.43 615.23 1205.37 614.595 1206.18 613.785C1207 612.965 1207.64 612.02 1208.1 610.95C1208.56 609.88 1208.79 608.73 1208.79 607.5C1208.79 606.27 1208.56 605.12 1208.1 604.05C1207.64 602.98 1207 602.04 1206.18 601.23C1205.36 600.41 1204.42 599.77 1203.35 599.31C1202.28 598.85 1201.13 598.62 1199.91 598.62H1194.59V616.38ZM1219.07 597H1221.2L1228.85 618H1227.13L1225.4 613.26H1214.89L1213.16 618H1211.44L1219.07 597ZM1215.47 611.64H1224.8L1220.14 598.845L1215.47 611.64ZM1238.45 618V616.575C1239.33 615.735 1240.27 614.835 1241.27 613.875C1242.28 612.915 1243.27 611.935 1244.24 610.935C1245.22 609.925 1246.11 608.935 1246.9 607.965C1247.7 606.995 1248.34 606.075 1248.82 605.205C1249.3 604.335 1249.54 603.555 1249.54 602.865C1249.54 602.025 1249.33 601.255 1248.92 600.555C1248.51 599.845 1247.96 599.28 1247.26 598.86C1246.57 598.44 1245.8 598.23 1244.96 598.23C1244.11 598.23 1243.34 598.44 1242.64 598.86C1241.94 599.28 1241.38 599.845 1240.96 600.555C1240.55 601.255 1240.34 602.025 1240.34 602.865H1238.72C1238.72 601.705 1239 600.655 1239.56 599.715C1240.13 598.765 1240.89 598.01 1241.83 597.45C1242.78 596.89 1243.82 596.61 1244.96 596.61C1246.1 596.61 1247.14 596.895 1248.07 597.465C1249.01 598.025 1249.76 598.78 1250.32 599.73C1250.88 600.67 1251.16 601.715 1251.16 602.865C1251.16 603.595 1250.95 604.405 1250.53 605.295C1250.12 606.185 1249.56 607.115 1248.86 608.085C1248.17 609.055 1247.4 610.03 1246.54 611.01C1245.68 611.99 1244.79 612.94 1243.88 613.86C1242.97 614.77 1242.11 615.61 1241.29 616.38H1251.55V618H1238.45ZM1261.48 618.39C1260.21 618.39 1259.08 618.11 1258.09 617.55C1257.1 616.98 1256.26 616.195 1255.57 615.195C1254.88 614.195 1254.36 613.04 1254 611.73C1253.65 610.41 1253.47 609 1253.47 607.5C1253.47 606 1253.65 604.59 1254 603.27C1254.36 601.95 1254.88 600.795 1255.57 599.805C1256.26 598.805 1257.1 598.025 1258.09 597.465C1259.08 596.895 1260.21 596.61 1261.48 596.61C1262.74 596.61 1263.87 596.895 1264.86 597.465C1265.85 598.025 1266.68 598.805 1267.36 599.805C1268.04 600.795 1268.56 601.95 1268.92 603.27C1269.28 604.59 1269.46 606 1269.46 607.5C1269.46 609 1269.28 610.41 1268.92 611.73C1268.56 613.04 1268.04 614.195 1267.36 615.195C1266.68 616.195 1265.85 616.98 1264.86 617.55C1263.87 618.11 1262.74 618.39 1261.48 618.39ZM1261.48 616.77C1262.88 616.77 1264.06 616.345 1265.01 615.495C1265.97 614.645 1266.69 613.52 1267.17 612.12C1267.66 610.71 1267.9 609.17 1267.9 607.5C1267.9 605.74 1267.65 604.165 1267.15 602.775C1266.65 601.375 1265.92 600.27 1264.96 599.46C1264.01 598.64 1262.85 598.23 1261.48 598.23C1260.4 598.23 1259.46 598.48 1258.65 598.98C1257.84 599.47 1257.16 600.145 1256.62 601.005C1256.09 601.865 1255.69 602.855 1255.42 603.975C1255.16 605.085 1255.03 606.26 1255.03 607.5C1255.03 609.18 1255.28 610.725 1255.77 612.135C1256.26 613.535 1256.98 614.66 1257.94 615.51C1258.9 616.35 1260.08 616.77 1261.48 616.77ZM1271.56 618V616.575C1272.44 615.735 1273.38 614.835 1274.38 613.875C1275.39 612.915 1276.38 611.935 1277.35 610.935C1278.33 609.925 1279.21 608.935 1280 607.965C1280.8 606.995 1281.44 606.075 1281.92 605.205C1282.4 604.335 1282.64 603.555 1282.64 602.865C1282.64 602.025 1282.44 601.255 1282.03 600.555C1281.62 599.845 1281.06 599.28 1280.36 598.86C1279.67 598.44 1278.91 598.23 1278.07 598.23C1277.22 598.23 1276.44 598.44 1275.74 598.86C1275.04 599.28 1274.48 599.845 1274.06 600.555C1273.65 601.255 1273.45 602.025 1273.45 602.865H1271.83C1271.83 601.705 1272.11 600.655 1272.67 599.715C1273.24 598.765 1273.99 598.01 1274.93 597.45C1275.88 596.89 1276.93 596.61 1278.07 596.61C1279.21 596.61 1280.24 596.895 1281.17 597.465C1282.11 598.025 1282.86 598.78 1283.42 599.73C1283.98 600.67 1284.26 601.715 1284.26 602.865C1284.26 603.595 1284.05 604.405 1283.63 605.295C1283.22 606.185 1282.67 607.115 1281.97 608.085C1281.28 609.055 1280.5 610.03 1279.64 611.01C1278.78 611.99 1277.9 612.94 1276.99 613.86C1276.08 614.77 1275.21 615.61 1274.39 616.38H1284.65V618H1271.56ZM1293.71 618.39C1292.43 618.39 1291.31 618.115 1290.35 617.565C1289.4 617.005 1288.66 616.26 1288.13 615.33C1287.6 614.4 1287.34 613.375 1287.34 612.255H1288.96C1288.96 613.085 1289.15 613.845 1289.53 614.535C1289.91 615.215 1290.45 615.76 1291.16 616.17C1291.87 616.57 1292.72 616.77 1293.71 616.77C1294.53 616.77 1295.3 616.57 1296.02 616.17C1296.75 615.76 1297.34 615.215 1297.79 614.535C1298.25 613.845 1298.48 613.085 1298.48 612.255C1298.48 611.235 1298.23 610.385 1297.72 609.705C1297.21 609.025 1296.51 608.515 1295.62 608.175C1294.74 607.835 1293.73 607.665 1292.6 607.665V606.27C1294.17 606.27 1295.44 605.925 1296.4 605.235C1297.36 604.545 1297.84 603.54 1297.84 602.22C1297.84 601.49 1297.63 600.825 1297.22 600.225C1296.82 599.615 1296.3 599.13 1295.66 598.77C1295.02 598.4 1294.34 598.215 1293.61 598.215C1292.87 598.215 1292.17 598.4 1291.51 598.77C1290.85 599.13 1290.31 599.615 1289.89 600.225C1289.48 600.825 1289.27 601.49 1289.27 602.22H1287.65C1287.65 601.45 1287.81 600.725 1288.13 600.045C1288.45 599.365 1288.89 598.77 1289.45 598.26C1290.01 597.74 1290.65 597.335 1291.36 597.045C1292.07 596.745 1292.81 596.595 1293.59 596.595C1294.62 596.595 1295.58 596.85 1296.47 597.36C1297.36 597.87 1298.08 598.55 1298.63 599.4C1299.18 600.25 1299.46 601.19 1299.46 602.22C1299.46 603.32 1299.17 604.29 1298.59 605.13C1298.02 605.97 1297.25 606.565 1296.29 606.915C1297.12 607.185 1297.82 607.585 1298.38 608.115C1298.95 608.645 1299.38 609.26 1299.67 609.96C1299.96 610.66 1300.1 611.425 1300.1 612.255C1300.1 613.375 1299.8 614.4 1299.2 615.33C1298.61 616.26 1297.83 617.005 1296.86 617.565C1295.89 618.115 1294.84 618.39 1293.71 618.39Z" fill="black"/>
<line x1="520" y1="640.5" x2="1310" y2="640.5" stroke="black"/>
<path d="M896.339 277.894L886.714 251.425H808.913L799.555 277.894H750.361L830.836 90.743H865.058L945.533 277.894H896.339ZM847.947 143.68L822.281 214.262H873.346L847.947 143.68Z" fill="#211F1F"/>
<path d="M607.613 130.312V90.743H758.403V130.312H705.734V277.894H660.283V130.312H607.613Z" fill="#211F1F"/>
<path d="M537.035 277.894L492.119 228.432H473.404V277.894H427.953V90.743H519.122C558.691 90.743 588.101 120.687 588.101 159.721C588.101 188.863 571.792 212.391 547.462 222.818L598.26 277.894H537.035ZM473.404 189.398H512.706C529.549 189.398 542.65 177.902 542.65 159.721C542.65 141.541 529.549 129.777 512.706 129.777H473.404V189.398Z" fill="#211F1F"/>
<path d="M298.767 87C359.992 87 398.491 130.579 398.491 184.318C398.491 238.057 359.992 281.637 298.767 281.637C237.542 281.637 199.31 238.057 199.31 184.318C199.31 130.579 237.542 87 298.767 87ZM298.767 242.602C334.593 242.602 353.04 213.995 353.04 184.318C353.04 154.374 334.593 126.034 298.767 126.034C262.941 126.034 244.76 154.374 244.76 184.318C244.76 213.995 262.941 242.602 298.767 242.602Z" fill="#211F1F"/>
<path d="M110.961 229.502H68.4508V277.894H23V90.743H110.961C150.53 90.743 179.939 121.222 179.939 160.256C179.939 199.29 150.53 229.502 110.961 229.502ZM68.4508 190.468H104.544C121.388 190.468 134.488 178.436 134.488 160.256C134.488 142.076 121.388 129.777 104.544 129.777H68.4508V190.468Z" fill="#211F1F"/>
<path d="M730.613 324C791.838 324 830.338 367.579 830.338 421.318C830.338 475.057 791.838 518.637 730.613 518.637C669.388 518.637 631.156 475.057 631.156 421.318C631.156 367.579 669.388 324 730.613 324ZM730.613 479.602C766.439 479.602 784.887 450.995 784.887 421.318C784.887 391.374 766.439 363.034 730.613 363.034C694.787 363.034 676.607 391.374 676.607 421.318C676.607 450.995 694.787 479.602 730.613 479.602Z" fill="#211F1F"/>
<path d="M600.327 514.894H554.876V327.743H600.327V514.894Z" fill="#211F1F"/>
<path d="M445.729 327.743V475.325H525.402V514.894H400.278V327.743H445.729Z" fill="#211F1F"/>
<path d="M271.092 324C332.317 324 370.816 367.579 370.816 421.318C370.816 475.057 332.317 518.637 271.092 518.637C209.867 518.637 171.635 475.057 171.635 421.318C171.635 367.579 209.867 324 271.092 324ZM271.092 479.602C306.918 479.602 325.366 450.995 325.366 421.318C325.366 391.374 306.918 363.034 271.092 363.034C235.266 363.034 217.086 391.374 217.086 421.318C217.086 450.995 235.266 479.602 271.092 479.602Z" fill="#211F1F"/>
<path d="M68.4508 514.894H23V327.743H150.262V367.312H68.4508V403.405H147.856V442.974H68.4508V514.894Z" fill="#211F1F"/>
<line x1="655.984" y1="703.136" x2="655.984" y2="670" stroke="black" stroke-width="2"/>
<line x1="649.136" y1="711.112" x2="616" y2="711.112" stroke="black" stroke-width="2"/>
<line x1="697.968" y1="711.112" x2="664.832" y2="711.112" stroke="black" stroke-width="2"/>
<line x1="685.482" y1="682.043" x2="662.052" y2="705.474" stroke="black" stroke-width="2"/>
<line x1="685.812" y1="739.482" x2="662.382" y2="716.051" stroke="black" stroke-width="2"/>
<line x1="651.474" y1="716.923" x2="628.043" y2="740.354" stroke="black" stroke-width="2"/>
<line x1="650.932" y1="705.474" x2="627.501" y2="682.043" stroke="black" stroke-width="2"/>
<line x1="655.984" y1="749.352" x2="655.984" y2="716.216" stroke="black" stroke-width="2"/>
</svg>
