<svg width="750" height="274" viewBox="0 0 750 274" fill="none" xmlns="http://www.w3.org/2000/svg">
<path d="M95.6398 182.4C89.6398 182.4 84.2398 181.133 79.4398 178.6C74.7732 176.067 71.0398 172.067 68.2398 166.6C65.5732 161 64.2398 153.8 64.2398 145L64.2398 94.8C64.2398 82.9333 67.2398 74.2 73.2398 68.6C79.3732 63 86.9732 60.2 96.0398 60.2C104.84 60.2 112.173 63.0667 118.04 68.8C123.907 74.4 126.84 83.0667 126.84 94.8L126.84 145C126.84 153.933 125.507 161.2 122.84 166.8C120.173 172.267 116.44 176.267 111.64 178.8C106.973 181.2 101.64 182.4 95.6398 182.4ZM95.6398 173C100.307 173 104.107 171.2 107.04 167.6C110.107 164 111.64 158.8 111.64 152L111.64 91C111.64 84.2 110.04 79 106.84 75.4C103.773 71.8 100.04 70 95.6398 70C91.1065 70 87.3065 71.8 84.2398 75.4C81.1732 79 79.6398 84.2 79.6398 91L79.6398 152C79.6398 158.8 81.1732 164 84.2398 167.6C87.3065 171.2 91.1065 173 95.6398 173ZM178.727 180V156.4H138.127V144.2L179.927 61.8H194.127L194.127 145.8H205.927V156.4H194.127V180H178.727ZM151.127 145.8H178.727V90.6L151.127 145.8Z" fill="black"/>
<mask id="path-2-outside-1_375_2629" maskUnits="userSpaceOnUse" x="254" y="93" width="492" height="65" fill="black">
<rect fill="white" x="254" y="93" width="492" height="65"/>
<path d="M285.811 155.99C268.441 155.99 255.211 143.03 255.211 126.29C255.211 109.55 268.441 96.5 285.811 96.5C295.171 96.5 303.541 100.28 309.571 106.76L302.731 112.07C298.321 107.39 292.381 104.87 285.811 104.87C273.571 104.87 264.031 113.96 264.031 126.29C264.031 138.62 273.571 147.71 285.811 147.71C292.561 147.71 298.411 145.1 302.911 140.33L309.841 145.55C303.721 152.21 295.441 155.99 285.811 155.99ZM348.921 156.17C331.281 156.17 318.141 142.85 318.141 126.29C318.141 109.55 331.281 96.41 348.921 96.41C366.561 96.41 379.791 109.55 379.791 126.29C379.791 142.85 366.561 156.17 348.921 156.17ZM348.921 147.8C361.341 147.8 370.881 138.53 370.881 126.29C370.881 114.05 361.341 104.69 348.921 104.69C336.501 104.69 326.961 114.05 326.961 126.29C326.961 138.53 336.501 147.8 348.921 147.8ZM393.277 155.09V97.49H402.097L437.647 142.22V97.4H446.467V155.09H437.647L402.187 110.36V155.09H393.277ZM477.096 155V105.59H457.026L456.936 97.4L505.986 97.4V105.59L485.916 105.59V155H477.096ZM502.409 155.09L535.259 95.15L567.569 155.09H558.029L551.369 142.4H518.879L512.129 155.09H502.409ZM522.839 135.02H547.319L535.169 111.89L522.839 135.02ZM600.459 155.99C583.089 155.99 569.859 143.03 569.859 126.29C569.859 109.55 583.089 96.5 600.459 96.5C609.819 96.5 618.189 100.28 624.219 106.76L617.379 112.07C612.969 107.39 607.029 104.87 600.459 104.87C588.219 104.87 578.679 113.96 578.679 126.29C578.679 138.62 588.219 147.71 600.459 147.71C607.209 147.71 613.059 145.1 617.559 140.33L624.489 145.55C618.369 152.21 610.089 155.99 600.459 155.99ZM650.241 155V105.59H630.171L630.081 97.4L679.131 97.4V105.59L659.061 105.59V155H650.241ZM713.842 156.17C696.202 156.17 683.062 142.85 683.062 126.29C683.062 109.55 696.202 96.41 713.842 96.41C731.482 96.41 744.712 109.55 744.712 126.29C744.712 142.85 731.482 156.17 713.842 156.17ZM713.842 147.8C726.262 147.8 735.802 138.53 735.802 126.29C735.802 114.05 726.262 104.69 713.842 104.69C701.422 104.69 691.882 114.05 691.882 126.29C691.882 138.53 701.422 147.8 713.842 147.8Z"/>
</mask>
<path d="M309.571 106.76L310.184 107.55L311.048 106.879L310.303 106.079L309.571 106.76ZM302.731 112.07L302.003 112.756L302.626 113.417L303.344 112.86L302.731 112.07ZM302.911 140.33L303.513 139.531L302.798 138.993L302.184 139.644L302.911 140.33ZM309.841 145.55L310.577 146.227L311.323 145.415L310.443 144.751L309.841 145.55ZM285.811 154.99C268.968 154.99 256.211 142.452 256.211 126.29H254.211C254.211 143.608 267.914 156.99 285.811 156.99V154.99ZM256.211 126.29C256.211 110.124 268.972 97.5 285.811 97.5V95.5C267.91 95.5 254.211 108.976 254.211 126.29H256.211ZM285.811 97.5C294.891 97.5 302.997 101.163 308.839 107.441L310.303 106.079C304.085 99.3969 295.45 95.5 285.811 95.5V97.5ZM308.958 105.97L302.118 111.28L303.344 112.86L310.184 107.55L308.958 105.97ZM303.459 111.384C298.854 106.498 292.648 103.87 285.811 103.87V105.87C292.113 105.87 297.788 108.282 302.003 112.756L303.459 111.384ZM285.811 103.87C273.043 103.87 263.031 113.383 263.031 126.29H265.031C265.031 114.537 274.098 105.87 285.811 105.87V103.87ZM263.031 126.29C263.031 139.197 273.043 148.71 285.811 148.71V146.71C274.098 146.71 265.031 138.043 265.031 126.29H263.031ZM285.811 148.71C292.841 148.71 298.953 145.983 303.638 141.016L302.184 139.644C297.869 144.217 292.281 146.71 285.811 146.71V148.71ZM302.309 141.129L309.239 146.349L310.443 144.751L303.513 139.531L302.309 141.129ZM309.105 144.873C303.173 151.328 295.16 154.99 285.811 154.99V156.99C295.722 156.99 304.269 153.092 310.577 146.227L309.105 144.873ZM348.921 155.17C331.817 155.17 319.141 142.282 319.141 126.29H317.141C317.141 143.418 330.744 157.17 348.921 157.17V155.17ZM319.141 126.29C319.141 110.122 331.813 97.41 348.921 97.41V95.41C330.748 95.41 317.141 108.978 317.141 126.29H319.141ZM348.921 97.41C366.032 97.41 378.791 110.126 378.791 126.29H380.791C380.791 108.974 367.089 95.41 348.921 95.41V97.41ZM378.791 126.29C378.791 142.278 366.028 155.17 348.921 155.17V157.17C367.093 157.17 380.791 143.422 380.791 126.29H378.791ZM348.921 148.8C361.871 148.8 371.881 139.104 371.881 126.29H369.881C369.881 137.956 360.81 146.8 348.921 146.8V148.8ZM371.881 126.29C371.881 113.481 361.877 103.69 348.921 103.69V105.69C360.805 105.69 369.881 114.619 369.881 126.29H371.881ZM348.921 103.69C335.965 103.69 325.961 113.481 325.961 126.29H327.961C327.961 114.619 337.036 105.69 348.921 105.69V103.69ZM325.961 126.29C325.961 139.104 335.97 148.8 348.921 148.8V146.8C337.031 146.8 327.961 137.956 327.961 126.29H325.961ZM393.277 155.09H392.277V156.09H393.277V155.09ZM393.277 97.49V96.49H392.277V97.49H393.277ZM402.097 97.49L402.88 96.8678L402.58 96.49H402.097V97.49ZM437.647 142.22L436.864 142.842L438.647 145.085V142.22H437.647ZM437.647 97.4V96.4H436.647V97.4H437.647ZM446.467 97.4H447.467V96.4H446.467V97.4ZM446.467 155.09V156.09H447.467V155.09H446.467ZM437.647 155.09L436.864 155.711L437.164 156.09H437.647V155.09ZM402.187 110.36L402.971 109.739L401.187 107.489V110.36H402.187ZM402.187 155.09V156.09H403.187V155.09H402.187ZM394.277 155.09V97.49H392.277V155.09H394.277ZM393.277 98.49H402.097V96.49H393.277V98.49ZM401.314 98.1122L436.864 142.842L438.43 141.598L402.88 96.8678L401.314 98.1122ZM438.647 142.22V97.4H436.647V142.22H438.647ZM437.647 98.4H446.467V96.4H437.647V98.4ZM445.467 97.4V155.09H447.467V97.4H445.467ZM446.467 154.09H437.647V156.09H446.467V154.09ZM438.431 154.469L402.971 109.739L401.404 110.981L436.864 155.711L438.431 154.469ZM401.187 110.36V155.09H403.187V110.36H401.187ZM402.187 154.09H393.277V156.09H402.187V154.09ZM477.096 155H476.096V156H477.096V155ZM477.096 105.59H478.096V104.59H477.096V105.59ZM457.026 105.59L456.026 105.601L456.037 106.59H457.026V105.59ZM456.936 97.4V96.4H455.925L455.936 97.411L456.936 97.4ZM505.986 97.4H506.986V96.4H505.986V97.4ZM505.986 105.59V106.59H506.986V105.59H505.986ZM485.916 105.59V104.59H484.916V105.59H485.916ZM485.916 155V156H486.916V155H485.916ZM478.096 155V105.59H476.096V155H478.096ZM477.096 104.59H457.026V106.59H477.096V104.59ZM458.026 105.579L457.936 97.389L455.936 97.411L456.026 105.601L458.026 105.579ZM456.936 98.4L505.986 98.4V96.4L456.936 96.4V98.4ZM504.986 97.4V105.59H506.986V97.4H504.986ZM505.986 104.59L485.916 104.59V106.59L505.986 106.59V104.59ZM484.916 105.59V155H486.916V105.59H484.916ZM485.916 154H477.096V156H485.916V154ZM502.409 155.09L501.532 154.609L500.72 156.09H502.409V155.09ZM535.259 95.15L536.139 94.6755L535.266 93.056L534.382 94.6694L535.259 95.15ZM567.569 155.09V156.09H569.244L568.449 154.616L567.569 155.09ZM558.029 155.09L557.143 155.555L557.424 156.09H558.029V155.09ZM551.369 142.4L552.254 141.935L551.973 141.4H551.369V142.4ZM518.879 142.4V141.4H518.278L517.996 141.93L518.879 142.4ZM512.129 155.09V156.09H512.729L513.011 155.56L512.129 155.09ZM522.839 135.02L521.956 134.55L521.172 136.02H522.839V135.02ZM547.319 135.02V136.02H548.973L548.204 134.555L547.319 135.02ZM535.169 111.89L536.054 111.425L535.175 109.752L534.286 111.42L535.169 111.89ZM503.285 155.571L536.135 95.6306L534.382 94.6694L501.532 154.609L503.285 155.571ZM534.378 95.6245L566.688 155.564L568.449 154.616L536.139 94.6755L534.378 95.6245ZM567.569 154.09H558.029V156.09H567.569V154.09ZM558.914 154.625L552.254 141.935L550.483 142.865L557.143 155.555L558.914 154.625ZM551.369 141.4H518.879V143.4H551.369V141.4ZM517.996 141.93L511.246 154.62L513.011 155.56L519.761 142.87L517.996 141.93ZM512.129 154.09H502.409V156.09H512.129V154.09ZM522.839 136.02H547.319V134.02H522.839V136.02ZM548.204 134.555L536.054 111.425L534.283 112.355L546.433 135.485L548.204 134.555ZM534.286 111.42L521.956 134.55L523.721 135.49L536.051 112.36L534.286 111.42ZM624.219 106.76L624.833 107.55L625.696 106.879L624.951 106.079L624.219 106.76ZM617.379 112.07L616.652 112.756L617.275 113.417L617.993 112.86L617.379 112.07ZM617.559 140.33L618.161 139.531L617.446 138.993L616.832 139.644L617.559 140.33ZM624.489 145.55L625.226 146.227L625.972 145.415L625.091 144.751L624.489 145.55ZM600.459 154.99C583.616 154.99 570.859 142.452 570.859 126.29H568.859C568.859 143.608 582.563 156.99 600.459 156.99V154.99ZM570.859 126.29C570.859 110.124 583.62 97.5 600.459 97.5V95.5C582.559 95.5 568.859 108.976 568.859 126.29H570.859ZM600.459 97.5C609.54 97.5 617.645 101.163 623.487 107.441L624.951 106.079C618.734 99.3969 610.099 95.5 600.459 95.5V97.5ZM623.606 105.97L616.766 111.28L617.993 112.86L624.833 107.55L623.606 105.97ZM618.107 111.384C613.503 106.498 607.297 103.87 600.459 103.87V105.87C606.762 105.87 612.436 108.282 616.652 112.756L618.107 111.384ZM600.459 103.87C587.692 103.87 577.679 113.383 577.679 126.29H579.679C579.679 114.537 588.747 105.87 600.459 105.87V103.87ZM577.679 126.29C577.679 139.197 587.692 148.71 600.459 148.71V146.71C588.747 146.71 579.679 138.043 579.679 126.29H577.679ZM600.459 148.71C607.489 148.71 613.601 145.983 618.287 141.016L616.832 139.644C612.518 144.217 606.929 146.71 600.459 146.71V148.71ZM616.958 141.129L623.888 146.349L625.091 144.751L618.161 139.531L616.958 141.129ZM623.753 144.873C617.822 151.328 609.808 154.99 600.459 154.99V156.99C610.37 156.99 618.917 153.092 625.226 146.227L623.753 144.873ZM650.241 155H649.241V156H650.241V155ZM650.241 105.59H651.241V104.59H650.241V105.59ZM630.171 105.59L629.171 105.601L629.182 106.59H630.171V105.59ZM630.081 97.4V96.4H629.07L629.081 97.411L630.081 97.4ZM679.131 97.4H680.131V96.4H679.131V97.4ZM679.131 105.59V106.59H680.131V105.59H679.131ZM659.061 105.59V104.59H658.061V105.59H659.061ZM659.061 155V156H660.061V155H659.061ZM651.241 155V105.59H649.241V155H651.241ZM650.241 104.59H630.171V106.59H650.241V104.59ZM631.171 105.579L631.081 97.389L629.081 97.411L629.171 105.601L631.171 105.579ZM630.081 98.4L679.131 98.4V96.4L630.081 96.4V98.4ZM678.131 97.4V105.59H680.131V97.4H678.131ZM679.131 104.59L659.061 104.59V106.59L679.131 106.59V104.59ZM658.061 105.59V155H660.061V105.59H658.061ZM659.061 154H650.241V156H659.061V154ZM713.842 155.17C696.739 155.17 684.062 142.282 684.062 126.29H682.062C682.062 143.418 695.666 157.17 713.842 157.17V155.17ZM684.062 126.29C684.062 110.122 696.735 97.41 713.842 97.41V95.41C695.67 95.41 682.062 108.978 682.062 126.29H684.062ZM713.842 97.41C730.954 97.41 743.712 110.126 743.712 126.29H745.712C745.712 108.974 732.011 95.41 713.842 95.41V97.41ZM743.712 126.29C743.712 142.278 730.95 155.17 713.842 155.17V157.17C732.015 157.17 745.712 143.422 745.712 126.29H743.712ZM713.842 148.8C726.793 148.8 736.802 139.104 736.802 126.29L734.802 126.29C734.802 137.956 725.732 146.8 713.842 146.8V148.8ZM736.802 126.29C736.802 113.481 726.798 103.69 713.842 103.69V105.69C725.727 105.69 734.802 114.619 734.802 126.29L736.802 126.29ZM713.842 103.69C700.887 103.69 690.882 113.481 690.882 126.29H692.882C692.882 114.619 701.958 105.69 713.842 105.69V103.69ZM690.882 126.29C690.882 139.104 700.892 148.8 713.842 148.8V146.8C701.953 146.8 692.882 137.956 692.882 126.29H690.882Z" fill="black" mask="url(#path-2-outside-1_375_2629)"/>
</svg>
