<svg width="580" height="77" viewBox="0 0 580 77" fill="none" xmlns="http://www.w3.org/2000/svg">
<mask id="path-1-outside-1_361_2681" maskUnits="userSpaceOnUse" x="172" y="11" width="406" height="49" fill="black">
<rect fill="white" x="172" y="11" width="406" height="49"/>
<path d="M197.072 12.304C207.376 12.304 215.312 18 218.576 26.064H213.52C210.512 20.56 204.816 16.784 197.072 16.784C186 16.784 178.32 24.976 178.32 35.6C178.32 46.224 186 54.416 197.072 54.416C204.816 54.416 210.512 50.64 213.52 45.136H218.576C215.312 53.2 207.376 58.896 197.072 58.896C183.248 58.896 173.2 48.784 173.2 35.6C173.2 22.416 183.248 12.304 197.072 12.304ZM264.505 13.2V41.104C264.505 51.408 256.825 58.896 245.881 58.896C234.937 58.896 227.257 51.408 227.257 41.104V13.2L232.377 13.2V41.296C232.377 49.168 237.881 54.416 245.881 54.416C253.881 54.416 259.385 49.168 259.385 41.296V13.2L264.505 13.2ZM306.531 58L302.627 48.336L279.203 48.336L275.299 58H269.987L288.803 13.2H293.027L311.843 58H306.531ZM290.915 19.088L280.931 44.048H300.899L290.915 19.088ZM319.698 58V13.2H324.818V53.52H346.898V58L319.698 58ZM355.391 58V13.2H360.511V58H355.391ZM384.292 58H372.26V13.2L384.292 13.2C401.7 13.2 410.532 23.44 410.532 35.6C410.532 47.76 401.7 58 384.292 58ZM377.316 17.552V53.648H383.908C398.18 53.648 405.412 46.096 405.412 35.6C405.412 25.104 398.18 17.552 383.908 17.552L377.316 17.552ZM450.156 58L446.252 48.336H422.828L418.924 58H413.612L432.428 13.2H436.652L455.468 58H450.156ZM434.54 19.088L424.556 44.048H444.524L434.54 19.088ZM475.355 58H463.323V13.2L475.355 13.2C492.763 13.2 501.595 23.44 501.595 35.6C501.595 47.76 492.763 58 475.355 58ZM468.379 17.552V53.648H474.971C489.243 53.648 496.475 46.096 496.475 35.6C496.475 25.104 489.243 17.552 474.971 17.552H468.379ZM510.573 58V13.2L538.861 13.2V17.68L515.693 17.68V32.976H538.285V37.456H515.693V53.52H539.117V58H510.573ZM545.264 45.648L550.128 45.648C551.088 51.088 554.736 54.736 561.008 54.736C567.408 54.736 571.248 50.96 571.248 46.16C571.248 41.552 568.112 38.992 563.44 37.648L557.872 36.048C551.28 34.128 546.608 30.672 546.608 24.208C546.608 17.04 552.624 12.304 560.496 12.304C568.688 12.304 573.744 17.552 574.32 24.464H569.648C569.072 19.792 565.744 16.464 560.432 16.464C555.056 16.464 551.536 19.344 551.536 24.08C551.536 28.688 554.864 30.416 559.6 31.76L564.912 33.36C571.888 35.344 576.176 38.928 576.176 45.84C576.176 53.52 569.712 58.896 560.944 58.896C552.112 58.896 546.416 53.52 545.264 45.648Z"/>
</mask>
<path d="M218.576 26.064V27.064H220.06L219.503 25.6888L218.576 26.064ZM213.52 26.064L212.642 26.5436L212.927 27.064H213.52V26.064ZM213.52 45.136V44.136H212.927L212.642 44.6564L213.52 45.136ZM218.576 45.136L219.503 45.5112L220.06 44.136H218.576V45.136ZM197.072 13.304C206.983 13.304 214.543 18.7663 217.649 26.4392L219.503 25.6888C216.081 17.2337 207.769 11.304 197.072 11.304V13.304ZM218.576 25.064H213.52V27.064H218.576V25.064ZM214.398 25.5844C211.212 19.7561 205.178 15.784 197.072 15.784V17.784C204.454 17.784 209.812 21.3639 212.642 26.5436L214.398 25.5844ZM197.072 15.784C185.428 15.784 177.32 24.4441 177.32 35.6H179.32C179.32 25.5079 186.572 17.784 197.072 17.784V15.784ZM177.32 35.6C177.32 46.7559 185.428 55.416 197.072 55.416V53.416C186.572 53.416 179.32 45.6921 179.32 35.6H177.32ZM197.072 55.416C205.178 55.416 211.212 51.4439 214.398 45.6156L212.642 44.6564C209.812 49.8361 204.454 53.416 197.072 53.416V55.416ZM213.52 46.136H218.576V44.136H213.52V46.136ZM217.649 44.7608C214.543 52.4337 206.983 57.896 197.072 57.896V59.896C207.769 59.896 216.081 53.9663 219.503 45.5112L217.649 44.7608ZM197.072 57.896C183.786 57.896 174.2 48.2174 174.2 35.6H172.2C172.2 49.3506 182.71 59.896 197.072 59.896V57.896ZM174.2 35.6C174.2 22.9826 183.786 13.304 197.072 13.304V11.304C182.71 11.304 172.2 21.8494 172.2 35.6H174.2ZM264.505 13.2H265.505V12.2H264.505V13.2ZM227.257 13.2V12.2H226.257V13.2H227.257ZM232.377 13.2H233.377V12.2H232.377V13.2ZM259.385 13.2V12.2H258.385V13.2H259.385ZM263.505 13.2V41.104H265.505V13.2L263.505 13.2ZM263.505 41.104C263.505 50.8187 256.311 57.896 245.881 57.896V59.896C257.339 59.896 265.505 51.9973 265.505 41.104H263.505ZM245.881 57.896C235.451 57.896 228.257 50.8187 228.257 41.104H226.257C226.257 51.9973 234.423 59.896 245.881 59.896V57.896ZM228.257 41.104V13.2H226.257V41.104H228.257ZM227.257 14.2L232.377 14.2V12.2L227.257 12.2V14.2ZM231.377 13.2V41.296H233.377V13.2H231.377ZM231.377 41.296C231.377 45.4735 232.843 49.023 235.434 51.5271C238.022 54.028 241.66 55.416 245.881 55.416V53.416C242.102 53.416 238.988 52.18 236.824 50.0889C234.663 48.001 233.377 44.9905 233.377 41.296H231.377ZM245.881 55.416C250.102 55.416 253.74 54.028 256.328 51.5271C258.919 49.023 260.385 45.4735 260.385 41.296H258.385C258.385 44.9905 257.099 48.001 254.938 50.0889C252.774 52.18 249.66 53.416 245.881 53.416V55.416ZM260.385 41.296V13.2H258.385V41.296H260.385ZM259.385 14.2L264.505 14.2V12.2L259.385 12.2V14.2ZM306.531 58L305.604 58.3746L305.856 59H306.531V58ZM302.627 48.336L303.554 47.9614L303.302 47.336H302.627V48.336ZM279.203 48.336V47.336H278.528L278.276 47.9614L279.203 48.336ZM275.299 58V59H275.974L276.226 58.3746L275.299 58ZM269.987 58L269.065 57.6128L268.482 59H269.987V58ZM288.803 13.2V12.2H288.138L287.881 12.8128L288.803 13.2ZM293.027 13.2L293.949 12.8128L293.692 12.2H293.027V13.2ZM311.843 58V59H313.348L312.765 57.6128L311.843 58ZM290.915 19.088L291.843 18.7166L290.915 16.3954L289.987 18.7166L290.915 19.088ZM280.931 44.048L280.003 43.6766L279.454 45.048L280.931 45.048V44.048ZM300.899 44.048V45.048H302.376L301.827 43.6766L300.899 44.048ZM307.458 57.6254L303.554 47.9614L301.7 48.7106L305.604 58.3746L307.458 57.6254ZM302.627 47.336L279.203 47.336V49.336L302.627 49.336V47.336ZM278.276 47.9614L274.372 57.6254L276.226 58.3746L280.13 48.7106L278.276 47.9614ZM275.299 57H269.987V59H275.299V57ZM270.909 58.3872L289.725 13.5872L287.881 12.8128L269.065 57.6128L270.909 58.3872ZM288.803 14.2H293.027V12.2H288.803V14.2ZM292.105 13.5872L310.921 58.3872L312.765 57.6128L293.949 12.8128L292.105 13.5872ZM311.843 57H306.531V59H311.843V57ZM289.987 18.7166L280.003 43.6766L281.859 44.4194L291.843 19.4594L289.987 18.7166ZM280.931 45.048H300.899V43.048H280.931V45.048ZM301.827 43.6766L291.843 18.7166L289.987 19.4594L299.971 44.4194L301.827 43.6766ZM319.698 58H318.698V59H319.698V58ZM319.698 13.2V12.2L318.698 12.2V13.2L319.698 13.2ZM324.818 13.2H325.818V12.2H324.818V13.2ZM324.818 53.52L323.818 53.52V54.52L324.818 54.52V53.52ZM346.898 53.52H347.898V52.52H346.898V53.52ZM346.898 58V59H347.898V58H346.898ZM320.698 58V13.2L318.698 13.2V58H320.698ZM319.698 14.2H324.818V12.2H319.698V14.2ZM323.818 13.2V53.52L325.818 53.52V13.2H323.818ZM324.818 54.52H346.898V52.52H324.818V54.52ZM345.898 53.52V58H347.898V53.52H345.898ZM346.898 57L319.698 57V59L346.898 59V57ZM355.391 58H354.391V59H355.391V58ZM355.391 13.2V12.2H354.391V13.2H355.391ZM360.511 13.2H361.511V12.2H360.511V13.2ZM360.511 58V59H361.511V58H360.511ZM356.391 58V13.2H354.391V58H356.391ZM355.391 14.2H360.511V12.2H355.391V14.2ZM359.511 13.2V58H361.511V13.2H359.511ZM360.511 57H355.391V59H360.511V57ZM372.26 58H371.26V59H372.26V58ZM372.26 13.2V12.2H371.26V13.2H372.26ZM377.316 17.552V16.552H376.316V17.552H377.316ZM377.316 53.648H376.316V54.648H377.316V53.648ZM384.292 57H372.26V59H384.292V57ZM373.26 58V13.2H371.26V58H373.26ZM372.26 14.2L384.292 14.2V12.2L372.26 12.2V14.2ZM384.292 14.2C392.799 14.2 399.097 16.6988 403.259 20.572C407.419 24.4436 409.532 29.7681 409.532 35.6H411.532C411.532 29.2718 409.229 23.3964 404.621 19.108C400.015 14.8212 393.193 12.2 384.292 12.2V14.2ZM409.532 35.6C409.532 41.4318 407.419 46.7564 403.259 50.628C399.097 54.5012 392.799 57 384.292 57V59C393.193 59 400.015 56.3788 404.621 52.092C409.229 47.8036 411.532 41.9281 411.532 35.6H409.532ZM376.316 17.552V53.648H378.316V17.552H376.316ZM377.316 54.648H383.908V52.648H377.316V54.648ZM383.908 54.648C391.214 54.648 396.852 52.714 400.677 49.3067C404.514 45.8885 406.412 41.0876 406.412 35.6H404.412C404.412 40.6084 402.694 44.8315 399.347 47.8133C395.988 50.806 390.874 52.648 383.908 52.648V54.648ZM406.412 35.6C406.412 30.1124 404.514 25.3115 400.677 21.8933C396.852 18.486 391.214 16.552 383.908 16.552V18.552C390.874 18.552 395.988 20.394 399.347 23.3867C402.694 26.3685 404.412 30.5916 404.412 35.6H406.412ZM383.908 16.552L377.316 16.552V18.552L383.908 18.552V16.552ZM450.156 58L449.229 58.3746L449.481 59H450.156V58ZM446.252 48.336L447.179 47.9614L446.927 47.336H446.252V48.336ZM422.828 48.336V47.336H422.153L421.901 47.9614L422.828 48.336ZM418.924 58V59H419.599L419.851 58.3746L418.924 58ZM413.612 58L412.69 57.6128L412.107 59L413.612 59V58ZM432.428 13.2V12.2H431.763L431.506 12.8128L432.428 13.2ZM436.652 13.2L437.574 12.8128L437.317 12.2H436.652V13.2ZM455.468 58V59H456.973L456.39 57.6128L455.468 58ZM434.54 19.088L435.468 18.7166L434.54 16.3954L433.612 18.7166L434.54 19.088ZM424.556 44.048L423.628 43.6766L423.079 45.048H424.556V44.048ZM444.524 44.048V45.048H446.001L445.452 43.6766L444.524 44.048ZM451.083 57.6254L447.179 47.9614L445.325 48.7106L449.229 58.3746L451.083 57.6254ZM446.252 47.336H422.828V49.336H446.252V47.336ZM421.901 47.9614L417.997 57.6254L419.851 58.3746L423.755 48.7106L421.901 47.9614ZM418.924 57H413.612V59H418.924V57ZM414.534 58.3872L433.35 13.5872L431.506 12.8128L412.69 57.6128L414.534 58.3872ZM432.428 14.2H436.652V12.2H432.428V14.2ZM435.73 13.5872L454.546 58.3872L456.39 57.6128L437.574 12.8128L435.73 13.5872ZM455.468 57H450.156V59H455.468V57ZM433.612 18.7166L423.628 43.6766L425.484 44.4194L435.468 19.4594L433.612 18.7166ZM424.556 45.048H444.524V43.048H424.556V45.048ZM445.452 43.6766L435.468 18.7166L433.612 19.4594L443.596 44.4194L445.452 43.6766ZM463.323 58H462.323V59H463.323V58ZM463.323 13.2V12.2L462.323 12.2V13.2L463.323 13.2ZM468.379 17.552V16.552L467.379 16.552V17.552L468.379 17.552ZM468.379 53.648H467.379V54.648H468.379V53.648ZM475.355 57H463.323V59H475.355V57ZM464.323 58V13.2L462.323 13.2V58H464.323ZM463.323 14.2L475.355 14.2V12.2L463.323 12.2V14.2ZM475.355 14.2C483.861 14.2 490.159 16.6988 494.321 20.572C498.481 24.4436 500.595 29.7681 500.595 35.6L502.595 35.6C502.595 29.2718 500.292 23.3964 495.684 19.108C491.078 14.8212 484.256 12.2 475.355 12.2V14.2ZM500.595 35.6C500.595 41.4318 498.481 46.7564 494.321 50.628C490.159 54.5012 483.861 57 475.355 57V59C484.256 59 491.078 56.3788 495.684 52.092C500.292 47.8036 502.595 41.9281 502.595 35.6L500.595 35.6ZM467.379 17.552V53.648H469.379V17.552L467.379 17.552ZM468.379 54.648H474.971V52.648H468.379V54.648ZM474.971 54.648C482.276 54.648 487.915 52.714 491.74 49.3067C495.577 45.8885 497.475 41.0876 497.475 35.6H495.475C495.475 40.6084 493.756 44.8315 490.409 47.8133C487.05 50.806 481.937 52.648 474.971 52.648V54.648ZM497.475 35.6C497.475 30.1124 495.577 25.3115 491.74 21.8933C487.915 18.486 482.276 16.552 474.971 16.552V18.552C481.937 18.552 487.05 20.394 490.409 23.3867C493.756 26.3685 495.475 30.5916 495.475 35.6H497.475ZM474.971 16.552H468.379V18.552H474.971V16.552ZM510.573 58H509.573V59H510.573V58ZM510.573 13.2V12.2H509.573V13.2H510.573ZM538.861 13.2H539.861V12.2H538.861V13.2ZM538.861 17.68V18.68H539.861V17.68H538.861ZM515.693 17.68V16.68H514.693V17.68H515.693ZM515.693 32.976H514.693V33.976H515.693V32.976ZM538.285 32.976H539.285V31.976H538.285V32.976ZM538.285 37.456V38.456H539.285V37.456H538.285ZM515.693 37.456V36.456H514.693V37.456H515.693ZM515.693 53.52H514.693V54.52H515.693V53.52ZM539.117 53.52H540.117V52.52H539.117V53.52ZM539.117 58V59H540.117V58H539.117ZM511.573 58V13.2H509.573V58H511.573ZM510.573 14.2L538.861 14.2V12.2L510.573 12.2V14.2ZM537.861 13.2V17.68H539.861V13.2H537.861ZM538.861 16.68L515.693 16.68V18.68L538.861 18.68V16.68ZM514.693 17.68V32.976H516.693V17.68H514.693ZM515.693 33.976H538.285V31.976L515.693 31.976V33.976ZM537.285 32.976V37.456H539.285V32.976H537.285ZM538.285 36.456H515.693V38.456H538.285V36.456ZM514.693 37.456V53.52H516.693V37.456H514.693ZM515.693 54.52H539.117V52.52H515.693V54.52ZM538.117 53.52V58H540.117V53.52H538.117ZM539.117 57H510.573V59H539.117V57ZM545.264 45.648V44.648H544.107L544.275 45.7928L545.264 45.648ZM550.128 45.648L551.113 45.4742L550.967 44.648H550.128V45.648ZM563.44 37.648L563.716 36.687L563.716 36.6869L563.44 37.648ZM557.872 36.048L557.592 37.0081L557.596 37.0091L557.872 36.048ZM574.32 24.464V25.464H575.407L575.317 24.381L574.32 24.464ZM569.648 24.464L568.656 24.5864L568.764 25.464H569.648V24.464ZM559.6 31.76L559.888 30.8025L559.881 30.8002L559.873 30.798L559.6 31.76ZM564.912 33.36L564.624 34.3175L564.631 34.3197L564.638 34.3219L564.912 33.36ZM545.264 46.648L550.128 46.648V44.648L545.264 44.648V46.648ZM549.143 45.8218C549.654 48.7167 550.895 51.2119 552.917 52.984C554.944 54.7612 557.671 55.736 561.008 55.736V53.736C558.073 53.736 555.84 52.8868 554.235 51.48C552.625 50.0681 551.562 48.0193 551.113 45.4742L549.143 45.8218ZM561.008 55.736C564.403 55.736 567.212 54.7325 569.187 52.9997C571.169 51.2611 572.248 48.8406 572.248 46.16H570.248C570.248 48.2794 569.407 50.1469 567.869 51.4963C566.324 52.8515 564.013 53.736 561.008 53.736V55.736ZM572.248 46.16C572.248 43.6016 571.366 41.5544 569.807 39.977C568.274 38.4263 566.143 37.3851 563.716 36.687L563.164 38.609C565.409 39.2549 567.182 40.1657 568.385 41.383C569.562 42.5736 570.248 44.1104 570.248 46.16H572.248ZM563.716 36.6869L558.148 35.0869L557.596 37.0091L563.164 38.6091L563.716 36.6869ZM558.152 35.0879C554.933 34.1504 552.289 32.8658 550.46 31.1106C548.663 29.3854 547.608 27.1651 547.608 24.208H545.608C545.608 27.7149 546.889 30.4546 549.076 32.5534C551.231 34.6222 554.219 36.0256 557.592 37.0081L558.152 35.0879ZM547.608 24.208C547.608 17.7526 553.001 13.304 560.496 13.304V11.304C552.247 11.304 545.608 16.3274 545.608 24.208H547.608ZM560.496 13.304C564.371 13.304 567.432 14.541 569.586 16.5272C571.743 18.5163 573.054 21.3144 573.323 24.547L575.317 24.381C575.01 20.7016 573.505 17.4197 570.942 15.0568C568.376 12.691 564.813 11.304 560.496 11.304V13.304ZM574.32 23.464H569.648V25.464H574.32V23.464ZM570.64 24.3416C570.327 21.8003 569.256 19.5681 567.486 17.9698C565.713 16.3681 563.304 15.464 560.432 15.464V17.464C562.872 17.464 564.783 18.2239 566.146 19.4542C567.512 20.6879 568.393 22.4557 568.656 24.5864L570.64 24.3416ZM560.432 15.464C557.574 15.464 555.1 16.2297 553.322 17.7323C551.526 19.2511 550.536 21.4448 550.536 24.08H552.536C552.536 21.9792 553.306 20.3649 554.614 19.2597C555.94 18.1383 557.914 17.464 560.432 17.464V15.464ZM550.536 24.08C550.536 26.6743 551.495 28.544 553.155 29.9151C554.751 31.2327 556.942 32.0452 559.327 32.722L559.873 30.798C557.522 30.1308 555.681 29.4073 554.429 28.3729C553.241 27.392 552.536 26.0937 552.536 24.08H550.536ZM559.312 32.7175L564.624 34.3175L565.2 32.4025L559.888 30.8025L559.312 32.7175ZM564.638 34.3219C568.042 35.2898 570.669 36.6169 572.442 38.4476C574.185 40.2489 575.176 42.6141 575.176 45.84H577.176C577.176 42.1539 576.023 39.2711 573.878 37.0564C571.763 34.8711 568.758 33.4142 565.186 32.3981L564.638 34.3219ZM575.176 45.84C575.176 52.8211 569.319 57.896 560.944 57.896V59.896C570.105 59.896 577.176 54.2189 577.176 45.84H575.176ZM560.944 57.896C556.737 57.896 553.348 56.6193 550.881 54.47C548.412 52.3188 546.8 49.2348 546.253 45.5032L544.275 45.7928C544.88 49.9332 546.692 53.4732 549.567 55.978C552.444 58.4847 556.319 59.896 560.944 59.896V57.896Z" fill="black" mask="url(#path-1-outside-1_361_2681)"/>
<line x1="160" y1="32.25" x2="-2.18557e-08" y2="32.25" stroke="black" stroke-width="0.5"/>
</svg>
