<svg width="326" height="222" viewBox="0 0 326 222" fill="none" xmlns="http://www.w3.org/2000/svg">
<mask id="path-1-outside-1_361_2682" maskUnits="userSpaceOnUse" x="4" y="57" width="228" height="126" fill="black">
<rect fill="white" x="4" y="57" width="228" height="126"/>
<path d="M10.88 104H5.76L5.76 59.2L32.832 59.2V63.68H10.88L10.88 79.744H32.256V84.224H10.88L10.88 104ZM38.45 81.6C38.45 68.416 48.562 58.304 62.258 58.304C76.018 58.304 86.066 68.416 86.066 81.6C86.066 94.784 76.018 104.896 62.258 104.896C48.562 104.896 38.45 94.848 38.45 81.6ZM62.258 62.784C51.186 62.784 43.57 71.104 43.57 81.6C43.57 92.032 51.186 100.416 62.258 100.416C73.394 100.416 80.946 92.032 80.946 81.6C80.946 71.104 73.394 62.784 62.258 62.784ZM122.978 104L109.858 89.792H100.13L100.13 104H95.01L95.01 59.2H112.034C121.634 59.2 128.034 66.24 128.034 74.432C128.034 81.536 123.234 87.808 115.81 89.408L129.442 104H122.978ZM100.13 85.376L111.522 85.376C118.946 85.376 122.978 80.064 122.978 74.432C122.978 68.8 118.946 63.616 111.522 63.616H100.13V85.376ZM166.733 59.2V63.616H152.077V104H146.957V63.616L132.301 63.616V59.2L166.733 59.2ZM202.156 104L198.252 94.336H174.828L170.924 104H165.612L184.428 59.2H188.652L207.468 104H202.156ZM186.54 65.088L176.556 90.048H196.524L186.54 65.088ZM211.16 87.04V82.816H230.232V87.04H211.16ZM5.76 181L5.76 136.2H10.88L10.88 176.52H32.96V181H5.76ZM41.1975 181L41.1975 136.2H69.4855V140.68H46.3175V155.976H68.9095V160.456H46.3175V176.52H69.7415L69.7415 181H41.1975ZM75.633 180.744L99.313 140.616H76.849V136.2H107.185V136.456L83.377 176.584L107.697 176.584L107.697 181L75.633 181V180.744ZM149.031 181L145.127 171.336L121.703 171.336L117.799 181H112.487L131.303 136.2L135.527 136.2L154.343 181H149.031ZM133.415 142.088L123.431 167.048L143.399 167.048L133.415 142.088ZM159.389 168.648H164.253C165.213 174.088 168.861 177.736 175.133 177.736C181.533 177.736 185.373 173.96 185.373 169.16C185.373 164.552 182.237 161.992 177.565 160.648L171.997 159.048C165.405 157.128 160.733 153.672 160.733 147.208C160.733 140.04 166.749 135.304 174.621 135.304C182.813 135.304 187.869 140.552 188.445 147.464H183.773C183.197 142.792 179.869 139.464 174.557 139.464C169.181 139.464 165.661 142.344 165.661 147.08C165.661 151.688 168.989 153.416 173.725 154.76L179.037 156.36C186.013 158.344 190.301 161.928 190.301 168.84C190.301 176.52 183.837 181.896 175.069 181.896C166.237 181.896 160.541 176.52 159.389 168.648Z"/>
</mask>
<path d="M10.88 104V105H11.88V104H10.88ZM5.76 104H4.76V105H5.76V104ZM5.76 59.2V58.2H4.76V59.2H5.76ZM32.832 59.2H33.832V58.2H32.832V59.2ZM32.832 63.68V64.68H33.832V63.68L32.832 63.68ZM10.88 63.68V62.68H9.88V63.68H10.88ZM10.88 79.744H9.88V80.744H10.88V79.744ZM32.256 79.744H33.256V78.744H32.256V79.744ZM32.256 84.224V85.224H33.256V84.224H32.256ZM10.88 84.224V83.224H9.88V84.224H10.88ZM10.88 103H5.76L5.76 105H10.88V103ZM6.76 104L6.76 59.2H4.76L4.76 104H6.76ZM5.76 60.2L32.832 60.2V58.2L5.76 58.2L5.76 60.2ZM31.832 59.2V63.68L33.832 63.68V59.2H31.832ZM32.832 62.68H10.88V64.68H32.832V62.68ZM9.88 63.68L9.88 79.744H11.88L11.88 63.68H9.88ZM10.88 80.744H32.256V78.744H10.88V80.744ZM31.256 79.744V84.224H33.256V79.744H31.256ZM32.256 83.224H10.88L10.88 85.224H32.256V83.224ZM9.88 84.224L9.88 104H11.88L11.88 84.224H9.88ZM39.45 81.6C39.45 68.9826 49.0999 59.304 62.258 59.304V57.304C48.0241 57.304 37.45 67.8494 37.45 81.6H39.45ZM62.258 59.304C75.4783 59.304 85.066 68.9808 85.066 81.6H87.066C87.066 67.8512 76.5577 57.304 62.258 57.304V59.304ZM85.066 81.6C85.066 94.2192 75.4783 103.896 62.258 103.896V105.896C76.5577 105.896 87.066 95.3488 87.066 81.6H85.066ZM62.258 103.896C49.0981 103.896 39.45 94.2796 39.45 81.6H37.45C37.45 95.4164 48.0259 105.896 62.258 105.896V103.896ZM62.258 61.784C50.6046 61.784 42.57 70.5813 42.57 81.6H44.57C44.57 71.6267 51.7674 63.784 62.258 63.784V61.784ZM42.57 81.6C42.57 92.5524 50.6024 101.416 62.258 101.416V99.416C51.7696 99.416 44.57 91.5116 44.57 81.6H42.57ZM62.258 101.416C73.9798 101.416 81.946 92.5501 81.946 81.6H79.946C79.946 91.5139 72.8082 99.416 62.258 99.416V101.416ZM81.946 81.6C81.946 70.5836 73.9777 61.784 62.258 61.784V63.784C72.8103 63.784 79.946 71.6244 79.946 81.6H81.946ZM122.978 104L122.243 104.678L122.54 105H122.978V104ZM109.858 89.792L110.593 89.1136L110.296 88.792H109.858V89.792ZM100.13 89.792V88.792H99.13V89.792H100.13ZM100.13 104V105H101.13V104H100.13ZM95.01 104H94.01V105H95.01V104ZM95.01 59.2V58.2H94.01V59.2H95.01ZM115.81 89.408L115.599 88.4304L113.875 88.802L115.079 90.0907L115.81 89.408ZM129.442 104V105H131.745L130.173 103.317L129.442 104ZM100.13 85.376H99.13V86.376H100.13V85.376ZM100.13 63.616V62.616H99.13V63.616H100.13ZM123.713 103.322L110.593 89.1136L109.123 90.4704L122.243 104.678L123.713 103.322ZM109.858 88.792H100.13L100.13 90.792H109.858L109.858 88.792ZM99.13 89.792L99.13 104H101.13L101.13 89.792H99.13ZM100.13 103H95.01V105H100.13V103ZM96.01 104L96.01 59.2H94.01L94.01 104H96.01ZM95.01 60.2H112.034V58.2H95.01V60.2ZM112.034 60.2C121.087 60.2 127.034 66.7977 127.034 74.432H129.034C129.034 65.6823 122.181 58.2 112.034 58.2V60.2ZM127.034 74.432C127.034 81.0714 122.556 86.9311 115.599 88.4304L116.021 90.3856C123.912 88.6849 129.034 82.0006 129.034 74.432H127.034ZM115.079 90.0907L128.711 104.683L130.173 103.317L116.541 88.7253L115.079 90.0907ZM129.442 103H122.978V105H129.442V103ZM100.13 86.376L111.522 86.376V84.376L100.13 84.376V86.376ZM111.522 86.376C115.487 86.376 118.62 84.9503 120.758 82.7058C122.886 80.4727 123.978 77.4831 123.978 74.432H121.978C121.978 77.0129 121.054 79.4953 119.31 81.3262C117.576 83.1457 114.981 84.376 111.522 84.376V86.376ZM123.978 74.432C123.978 71.3795 122.884 68.4189 120.753 66.2165C118.611 64.0044 115.479 62.616 111.522 62.616V64.616C114.989 64.616 117.585 65.8196 119.315 67.6075C121.056 69.4051 121.978 71.8525 121.978 74.432H123.978ZM111.522 62.616H100.13V64.616H111.522V62.616ZM99.13 63.616V85.376H101.13V63.616H99.13ZM166.733 59.2H167.733V58.2H166.733V59.2ZM166.733 63.616V64.616H167.733V63.616H166.733ZM152.077 63.616V62.616H151.077V63.616H152.077ZM152.077 104V105H153.077V104H152.077ZM146.957 104H145.957V105H146.957V104ZM146.957 63.616H147.957V62.616H146.957V63.616ZM132.301 63.616H131.301V64.616H132.301V63.616ZM132.301 59.2V58.2H131.301V59.2H132.301ZM165.733 59.2V63.616H167.733V59.2H165.733ZM166.733 62.616H152.077V64.616H166.733V62.616ZM151.077 63.616V104H153.077V63.616H151.077ZM152.077 103H146.957V105H152.077V103ZM147.957 104V63.616H145.957V104H147.957ZM146.957 62.616L132.301 62.616V64.616H146.957V62.616ZM133.301 63.616V59.2H131.301V63.616H133.301ZM132.301 60.2L166.733 60.2V58.2L132.301 58.2V60.2ZM202.156 104L201.229 104.375L201.481 105H202.156V104ZM198.252 94.336L199.179 93.9614L198.927 93.336H198.252V94.336ZM174.828 94.336V93.336H174.153L173.901 93.9614L174.828 94.336ZM170.924 104V105H171.599L171.851 104.375L170.924 104ZM165.612 104L164.69 103.613L164.107 105H165.612V104ZM184.428 59.2V58.2H183.763L183.506 58.8128L184.428 59.2ZM188.652 59.2L189.574 58.8128L189.317 58.2H188.652V59.2ZM207.468 104V105H208.973L208.39 103.613L207.468 104ZM186.54 65.088L187.468 64.7166L186.54 62.3954L185.612 64.7166L186.54 65.088ZM176.556 90.048L175.628 89.6766L175.079 91.048H176.556V90.048ZM196.524 90.048V91.048H198.001L197.452 89.6766L196.524 90.048ZM203.083 103.625L199.179 93.9614L197.325 94.7106L201.229 104.375L203.083 103.625ZM198.252 93.336H174.828V95.336H198.252V93.336ZM173.901 93.9614L169.997 103.625L171.851 104.375L175.755 94.7106L173.901 93.9614ZM170.924 103H165.612V105H170.924V103ZM166.534 104.387L185.35 59.5872L183.506 58.8128L164.69 103.613L166.534 104.387ZM184.428 60.2H188.652V58.2H184.428V60.2ZM187.73 59.5872L206.546 104.387L208.39 103.613L189.574 58.8128L187.73 59.5872ZM207.468 103H202.156V105H207.468V103ZM185.612 64.7166L175.628 89.6766L177.484 90.4194L187.468 65.4594L185.612 64.7166ZM176.556 91.048H196.524V89.048H176.556V91.048ZM197.452 89.6766L187.468 64.7166L185.612 65.4594L195.596 90.4194L197.452 89.6766ZM211.16 87.04H210.16V88.04H211.16V87.04ZM211.16 82.816V81.816H210.16V82.816H211.16ZM230.232 82.816H231.232V81.816H230.232V82.816ZM230.232 87.04V88.04H231.232V87.04H230.232ZM212.16 87.04V82.816H210.16V87.04H212.16ZM211.16 83.816H230.232V81.816H211.16V83.816ZM229.232 82.816V87.04H231.232V82.816H229.232ZM230.232 86.04H211.16V88.04H230.232V86.04ZM5.76 181H4.76L4.76 182H5.76L5.76 181ZM5.76 136.2V135.2H4.76V136.2H5.76ZM10.88 136.2H11.88V135.2H10.88V136.2ZM10.88 176.52H9.88V177.52H10.88V176.52ZM32.96 176.52H33.96V175.52H32.96V176.52ZM32.96 181V182H33.96V181H32.96ZM6.76 181L6.76 136.2H4.76L4.76 181H6.76ZM5.76 137.2H10.88V135.2H5.76L5.76 137.2ZM9.88 136.2L9.88 176.52H11.88L11.88 136.2H9.88ZM10.88 177.52H32.96V175.52H10.88V177.52ZM31.96 176.52V181H33.96V176.52H31.96ZM32.96 180H5.76L5.76 182H32.96V180ZM41.1975 181H40.1975V182H41.1975V181ZM41.1975 136.2V135.2H40.1975V136.2H41.1975ZM69.4855 136.2H70.4855V135.2H69.4855V136.2ZM69.4855 140.68V141.68H70.4855V140.68H69.4855ZM46.3175 140.68V139.68H45.3175V140.68H46.3175ZM46.3175 155.976H45.3175L45.3175 156.976H46.3175L46.3175 155.976ZM68.9095 155.976H69.9095V154.976H68.9095V155.976ZM68.9095 160.456V161.456H69.9095V160.456H68.9095ZM46.3175 160.456V159.456H45.3175V160.456H46.3175ZM46.3175 176.52H45.3175V177.52H46.3175V176.52ZM69.7415 176.52H70.7415V175.52H69.7415V176.52ZM69.7415 181V182H70.7415V181H69.7415ZM42.1975 181L42.1975 136.2H40.1975L40.1975 181H42.1975ZM41.1975 137.2H69.4855V135.2H41.1975V137.2ZM68.4855 136.2V140.68H70.4855V136.2H68.4855ZM69.4855 139.68H46.3175V141.68H69.4855V139.68ZM45.3175 140.68V155.976H47.3175V140.68H45.3175ZM46.3175 156.976H68.9095V154.976H46.3175L46.3175 156.976ZM67.9095 155.976V160.456H69.9095V155.976H67.9095ZM68.9095 159.456H46.3175V161.456H68.9095V159.456ZM45.3175 160.456V176.52H47.3175V160.456H45.3175ZM46.3175 177.52H69.7415V175.52H46.3175V177.52ZM68.7415 176.52L68.7415 181H70.7415L70.7415 176.52H68.7415ZM69.7415 180H41.1975V182H69.7415V180ZM75.633 180.744L74.7718 180.236L74.633 180.471V180.744H75.633ZM99.313 140.616L100.174 141.124L101.064 139.616H99.313V140.616ZM76.849 140.616H75.849V141.616H76.849V140.616ZM76.849 136.2V135.2H75.849V136.2H76.849ZM107.185 136.2H108.185V135.2H107.185V136.2ZM107.185 136.456L108.045 136.966L108.185 136.73V136.456H107.185ZM83.377 176.584L82.517 176.074L81.6209 177.584H83.377V176.584ZM107.697 176.584H108.697V175.584H107.697V176.584ZM107.697 181V182H108.697V181H107.697ZM75.633 181H74.633V182H75.633V181ZM76.4942 181.252L100.174 141.124L98.4518 140.108L74.7718 180.236L76.4942 181.252ZM99.313 139.616H76.849V141.616H99.313V139.616ZM77.849 140.616V136.2H75.849V140.616H77.849ZM76.849 137.2H107.185V135.2H76.849V137.2ZM106.185 136.2V136.456H108.185V136.2H106.185ZM106.325 135.946L82.517 176.074L84.237 177.094L108.045 136.966L106.325 135.946ZM83.377 177.584L107.697 177.584V175.584L83.377 175.584V177.584ZM106.697 176.584L106.697 181H108.697L108.697 176.584H106.697ZM107.697 180L75.633 180V182L107.697 182V180ZM76.633 181V180.744H74.633V181H76.633ZM149.031 181L148.104 181.375L148.356 182H149.031V181ZM145.127 171.336L146.054 170.961L145.802 170.336H145.127V171.336ZM121.703 171.336V170.336H121.028L120.776 170.961L121.703 171.336ZM117.799 181V182H118.474L118.726 181.375L117.799 181ZM112.487 181L111.565 180.613L110.982 182H112.487V181ZM131.303 136.2V135.2H130.638L130.381 135.813L131.303 136.2ZM135.527 136.2L136.449 135.813L136.192 135.2H135.527V136.2ZM154.343 181V182H155.848L155.265 180.613L154.343 181ZM133.415 142.088L134.343 141.717L133.415 139.395L132.487 141.717L133.415 142.088ZM123.431 167.048L122.503 166.677L121.954 168.048H123.431V167.048ZM143.399 167.048V168.048H144.876L144.327 166.677L143.399 167.048ZM149.958 180.625L146.054 170.961L144.2 171.711L148.104 181.375L149.958 180.625ZM145.127 170.336L121.703 170.336V172.336L145.127 172.336V170.336ZM120.776 170.961L116.872 180.625L118.726 181.375L122.63 171.711L120.776 170.961ZM117.799 180H112.487V182H117.799V180ZM113.409 181.387L132.225 136.587L130.381 135.813L111.565 180.613L113.409 181.387ZM131.303 137.2L135.527 137.2V135.2L131.303 135.2V137.2ZM134.605 136.587L153.421 181.387L155.265 180.613L136.449 135.813L134.605 136.587ZM154.343 180H149.031V182H154.343V180ZM132.487 141.717L122.503 166.677L124.359 167.419L134.343 142.459L132.487 141.717ZM123.431 168.048L143.399 168.048V166.048L123.431 166.048V168.048ZM144.327 166.677L134.343 141.717L132.487 142.459L142.471 167.419L144.327 166.677ZM159.389 168.648V167.648H158.232L158.4 168.793L159.389 168.648ZM164.253 168.648L165.238 168.474L165.092 167.648H164.253V168.648ZM177.565 160.648L177.841 159.687L177.841 159.687L177.565 160.648ZM171.997 159.048L171.717 160.008L171.721 160.009L171.997 159.048ZM188.445 147.464V148.464H189.532L189.442 147.381L188.445 147.464ZM183.773 147.464L182.781 147.586L182.889 148.464H183.773V147.464ZM173.725 154.76L174.013 153.802L174.006 153.8L173.998 153.798L173.725 154.76ZM179.037 156.36L178.749 157.318L178.756 157.32L178.763 157.322L179.037 156.36ZM159.389 169.648H164.253V167.648H159.389V169.648ZM163.268 168.822C163.779 171.717 165.02 174.212 167.042 175.984C169.069 177.761 171.796 178.736 175.133 178.736V176.736C172.198 176.736 169.965 175.887 168.36 174.48C166.75 173.068 165.687 171.019 165.238 168.474L163.268 168.822ZM175.133 178.736C178.528 178.736 181.337 177.732 183.312 176C185.294 174.261 186.373 171.841 186.373 169.16H184.373C184.373 171.279 183.532 173.147 181.994 174.496C180.449 175.852 178.138 176.736 175.133 176.736V178.736ZM186.373 169.16C186.373 166.602 185.491 164.554 183.932 162.977C182.399 161.426 180.268 160.385 177.841 159.687L177.289 161.609C179.534 162.255 181.307 163.166 182.51 164.383C183.687 165.574 184.373 167.11 184.373 169.16H186.373ZM177.841 159.687L172.273 158.087L171.721 160.009L177.289 161.609L177.841 159.687ZM172.277 158.088C169.058 157.15 166.414 155.866 164.585 154.111C162.788 152.385 161.733 150.165 161.733 147.208H159.733C159.733 150.715 161.014 153.455 163.201 155.553C165.356 157.622 168.344 159.026 171.717 160.008L172.277 158.088ZM161.733 147.208C161.733 140.753 167.126 136.304 174.621 136.304L174.621 134.304C166.372 134.304 159.733 139.327 159.733 147.208H161.733ZM174.621 136.304C178.496 136.304 181.557 137.541 183.711 139.527C185.868 141.516 187.179 144.314 187.448 147.547L189.442 147.381C189.135 143.702 187.63 140.42 185.067 138.057C182.501 135.691 178.938 134.304 174.621 134.304L174.621 136.304ZM188.445 146.464H183.773V148.464H188.445V146.464ZM184.765 147.342C184.452 144.8 183.381 142.568 181.611 140.97C179.838 139.368 177.429 138.464 174.557 138.464V140.464C176.997 140.464 178.908 141.224 180.271 142.454C181.637 143.688 182.518 145.456 182.781 147.586L184.765 147.342ZM174.557 138.464C171.699 138.464 169.225 139.23 167.447 140.732C165.651 142.251 164.661 144.445 164.661 147.08H166.661C166.661 144.979 167.431 143.365 168.739 142.26C170.065 141.138 172.039 140.464 174.557 140.464V138.464ZM164.661 147.08C164.661 149.674 165.62 151.544 167.28 152.915C168.876 154.233 171.067 155.045 173.452 155.722L173.998 153.798C171.647 153.131 169.806 152.407 168.554 151.373C167.366 150.392 166.661 149.094 166.661 147.08H164.661ZM173.437 155.718L178.749 157.318L179.325 155.402L174.013 153.802L173.437 155.718ZM178.763 157.322C182.167 158.29 184.794 159.617 186.567 161.448C188.31 163.249 189.301 165.614 189.301 168.84H191.301C191.301 165.154 190.148 162.271 188.003 160.056C185.888 157.871 182.883 156.414 179.311 155.398L178.763 157.322ZM189.301 168.84C189.301 175.821 183.444 180.896 175.069 180.896V182.896C184.23 182.896 191.301 177.219 191.301 168.84H189.301ZM175.069 180.896C170.862 180.896 167.473 179.619 165.006 177.47C162.537 175.319 160.925 172.235 160.378 168.503L158.4 168.793C159.005 172.933 160.817 176.473 163.692 178.978C166.569 181.485 170.444 182.896 175.069 182.896V180.896Z" fill="black" mask="url(#path-1-outside-1_361_2682)"/>
<line x1="273.25" y1="1.09278e-08" x2="273.25" y2="222" stroke="black" stroke-width="0.5"/>
</svg>
