<svg width="588" height="77" viewBox="0 0 588 77" fill="none" xmlns="http://www.w3.org/2000/svg">
<mask id="path-1-outside-1_361_2680" maskUnits="userSpaceOnUse" x="174" y="11" width="412" height="49" fill="black">
<rect fill="white" x="174" y="11" width="412" height="49"/>
<path d="M175.76 58V13.2H180.88V33.04L207.312 33.04V13.2L212.432 13.2V58H207.312V37.776L180.88 37.776V58H175.76ZM256.844 58L252.94 48.336L229.516 48.336L225.612 58H220.299L239.116 13.2L243.34 13.2L262.156 58H256.844ZM241.228 19.088L231.244 44.048L251.212 44.048L241.228 19.088ZM299.002 24.464C299.002 29.2 295.802 32.848 292.41 34.512C298.554 35.6 302.65 40.016 302.65 45.712C302.65 52.752 296.89 58 287.93 58L270.01 58V13.2L286.65 13.2C294.01 13.2 299.002 17.872 299.002 24.464ZM275.066 53.84L286.906 53.84C293.754 53.84 297.594 50.512 297.594 45.328C297.594 40.464 293.498 36.944 287.354 36.944L275.066 36.944V53.84ZM275.066 17.296V32.848L285.818 32.848C290.746 32.848 294.01 29.264 294.01 24.912C294.01 20.368 290.49 17.296 285.242 17.296H275.066ZM311.329 58V13.2H316.449V58H311.329ZM328.198 58V13.2L333.318 13.2V53.52H355.398V58H328.198ZM363.891 58V13.2H369.011V58L363.891 58ZM392.792 58H380.76V13.2L392.792 13.2C410.2 13.2 419.032 23.44 419.032 35.6C419.032 47.76 410.2 58 392.792 58ZM385.816 17.552V53.648H392.408C406.68 53.648 413.912 46.096 413.912 35.6C413.912 25.104 406.68 17.552 392.408 17.552H385.816ZM458.656 58L454.752 48.336H431.328L427.424 58H422.112L440.928 13.2H445.152L463.968 58H458.656ZM443.04 19.088L433.056 44.048H453.024L443.04 19.088ZM483.855 58H471.823V13.2L483.855 13.2C501.263 13.2 510.095 23.44 510.095 35.6C510.095 47.76 501.263 58 483.855 58ZM476.879 17.552V53.648H483.471C497.743 53.648 504.975 46.096 504.975 35.6C504.975 25.104 497.743 17.552 483.471 17.552H476.879ZM519.073 58V13.2L547.361 13.2V17.68L524.193 17.68V32.976L546.785 32.976V37.456L524.193 37.456V53.52L547.617 53.52V58L519.073 58ZM553.764 45.648H558.628C559.588 51.088 563.236 54.736 569.508 54.736C575.908 54.736 579.748 50.96 579.748 46.16C579.748 41.552 576.612 38.992 571.94 37.648L566.372 36.048C559.78 34.128 555.108 30.672 555.108 24.208C555.108 17.04 561.124 12.304 568.996 12.304C577.188 12.304 582.244 17.552 582.82 24.464L578.148 24.464C577.572 19.792 574.244 16.464 568.932 16.464C563.556 16.464 560.036 19.344 560.036 24.08C560.036 28.688 563.364 30.416 568.1 31.76L573.412 33.36C580.388 35.344 584.676 38.928 584.676 45.84C584.676 53.52 578.212 58.896 569.444 58.896C560.612 58.896 554.916 53.52 553.764 45.648Z"/>
</mask>
<path d="M175.76 58H174.76V59H175.76V58ZM175.76 13.2V12.2L174.76 12.2V13.2L175.76 13.2ZM180.88 13.2H181.88V12.2H180.88V13.2ZM180.88 33.04H179.88V34.04H180.88V33.04ZM207.312 33.04V34.04H208.312V33.04H207.312ZM207.312 13.2V12.2H206.312V13.2H207.312ZM212.432 13.2H213.432V12.2H212.432V13.2ZM212.432 58V59H213.432V58H212.432ZM207.312 58H206.312V59H207.312V58ZM207.312 37.776H208.312V36.776H207.312V37.776ZM180.88 37.776V36.776H179.88V37.776H180.88ZM180.88 58V59H181.88V58H180.88ZM176.76 58V13.2L174.76 13.2V58H176.76ZM175.76 14.2H180.88V12.2H175.76V14.2ZM179.88 13.2V33.04H181.88V13.2H179.88ZM180.88 34.04L207.312 34.04V32.04L180.88 32.04V34.04ZM208.312 33.04V13.2H206.312V33.04H208.312ZM207.312 14.2L212.432 14.2V12.2L207.312 12.2V14.2ZM211.432 13.2V58H213.432V13.2H211.432ZM212.432 57H207.312V59H212.432V57ZM208.312 58V37.776H206.312V58H208.312ZM207.312 36.776L180.88 36.776V38.776L207.312 38.776V36.776ZM179.88 37.776V58H181.88V37.776H179.88ZM180.88 57H175.76V59H180.88V57ZM256.844 58L255.916 58.3746L256.169 59H256.844V58ZM252.94 48.336L253.867 47.9614L253.614 47.336H252.94V48.336ZM229.516 48.336V47.336H228.841L228.588 47.9614L229.516 48.336ZM225.612 58V59H226.286L226.539 58.3746L225.612 58ZM220.299 58L219.378 57.6128L218.795 59H220.299V58ZM239.116 13.2V12.2H238.451L238.194 12.8128L239.116 13.2ZM243.34 13.2L244.261 12.8128L244.004 12.2H243.34V13.2ZM262.156 58V59H263.66L263.077 57.6128L262.156 58ZM241.228 19.088L242.156 18.7166L241.228 16.3954L240.299 18.7166L241.228 19.088ZM231.244 44.048L230.315 43.6766L229.766 45.048H231.244V44.048ZM251.212 44.048V45.048H252.689L252.14 43.6766L251.212 44.048ZM257.771 57.6254L253.867 47.9614L252.012 48.7106L255.916 58.3746L257.771 57.6254ZM252.94 47.336L229.516 47.336V49.336L252.94 49.336V47.336ZM228.588 47.9614L224.684 57.6254L226.539 58.3746L230.443 48.7106L228.588 47.9614ZM225.612 57H220.299V59H225.612V57ZM221.221 58.3872L240.037 13.5872L238.194 12.8128L219.378 57.6128L221.221 58.3872ZM239.116 14.2L243.34 14.2V12.2L239.116 12.2V14.2ZM242.418 13.5872L261.234 58.3872L263.077 57.6128L244.261 12.8128L242.418 13.5872ZM262.156 57H256.844V59H262.156V57ZM240.299 18.7166L230.315 43.6766L232.172 44.4194L242.156 19.4594L240.299 18.7166ZM231.244 45.048L251.212 45.048V43.048L231.244 43.048V45.048ZM252.14 43.6766L242.156 18.7166L240.299 19.4594L250.283 44.4194L252.14 43.6766ZM292.41 34.512L291.97 33.6142L289.221 34.9628L292.236 35.4967L292.41 34.512ZM270.01 58H269.01V59H270.01V58ZM270.01 13.2V12.2H269.01V13.2H270.01ZM275.066 53.84H274.066V54.84H275.066V53.84ZM275.066 36.944V35.944H274.066V36.944H275.066ZM275.066 17.296V16.296H274.066V17.296H275.066ZM275.066 32.848H274.066V33.848H275.066V32.848ZM298.002 24.464C298.002 28.7241 295.113 32.0722 291.97 33.6142L292.85 35.4098C296.491 33.6238 300.002 29.6759 300.002 24.464H298.002ZM292.236 35.4967C297.981 36.5141 301.65 40.5771 301.65 45.712H303.65C303.65 39.4549 299.127 34.6859 292.584 33.5273L292.236 35.4967ZM301.65 45.712C301.65 48.9416 300.336 51.7355 298 53.7364C295.653 55.7456 292.218 57 287.93 57V59C292.602 59 296.527 57.6304 299.3 55.2556C302.084 52.8725 303.65 49.5224 303.65 45.712H301.65ZM287.93 57L270.01 57V59L287.93 59V57ZM271.01 58V13.2H269.01V58H271.01ZM270.01 14.2L286.65 14.2V12.2L270.01 12.2V14.2ZM286.65 14.2C290.118 14.2 292.952 15.2983 294.909 17.0964C296.861 18.8891 298.002 21.4329 298.002 24.464H300.002C300.002 20.9031 298.647 17.8149 296.263 15.6236C293.884 13.4377 290.542 12.2 286.65 12.2V14.2ZM275.066 54.84L286.906 54.84V52.84L275.066 52.84V54.84ZM286.906 54.84C290.479 54.84 293.401 53.9725 295.45 52.3032C297.523 50.6134 298.594 48.1877 298.594 45.328H296.594C296.594 47.6523 295.745 49.4826 294.186 50.7528C292.603 52.0435 290.181 52.84 286.906 52.84V54.84ZM298.594 45.328C298.594 42.5939 297.434 40.2176 295.417 38.5427C293.412 36.8779 290.612 35.944 287.354 35.944V37.944C290.24 37.944 292.56 38.7701 294.139 40.0813C295.706 41.3824 296.594 43.1981 296.594 45.328H298.594ZM287.354 35.944L275.066 35.944V37.944L287.354 37.944V35.944ZM274.066 36.944V53.84H276.066V36.944H274.066ZM274.066 17.296V32.848H276.066V17.296H274.066ZM275.066 33.848L285.818 33.848V31.848H275.066V33.848ZM285.818 33.848C291.304 33.848 295.01 29.811 295.01 24.912H293.01C293.01 28.717 290.188 31.848 285.818 31.848V33.848ZM295.01 24.912C295.01 22.3643 294.015 20.1802 292.25 18.6455C290.498 17.1212 288.057 16.296 285.242 16.296V18.296C287.675 18.296 289.618 19.0068 290.938 20.1545C292.245 21.2918 293.01 22.9157 293.01 24.912H295.01ZM285.242 16.296H275.066V18.296H285.242V16.296ZM311.329 58H310.329V59H311.329V58ZM311.329 13.2V12.2H310.329V13.2H311.329ZM316.449 13.2H317.449V12.2H316.449V13.2ZM316.449 58V59H317.449V58H316.449ZM312.329 58V13.2H310.329V58H312.329ZM311.329 14.2H316.449V12.2H311.329V14.2ZM315.449 13.2V58H317.449V13.2H315.449ZM316.449 57H311.329V59H316.449V57ZM328.198 58H327.198V59H328.198V58ZM328.198 13.2V12.2H327.198V13.2H328.198ZM333.318 13.2H334.318V12.2H333.318V13.2ZM333.318 53.52H332.318V54.52H333.318V53.52ZM355.398 53.52H356.398V52.52H355.398V53.52ZM355.398 58V59H356.398V58H355.398ZM329.198 58V13.2H327.198V58H329.198ZM328.198 14.2L333.318 14.2V12.2L328.198 12.2V14.2ZM332.318 13.2V53.52H334.318V13.2H332.318ZM333.318 54.52H355.398V52.52H333.318V54.52ZM354.398 53.52V58H356.398V53.52H354.398ZM355.398 57H328.198V59H355.398V57ZM363.891 58H362.891V59H363.891V58ZM363.891 13.2V12.2L362.891 12.2V13.2L363.891 13.2ZM369.011 13.2H370.011V12.2H369.011V13.2ZM369.011 58V59H370.011V58H369.011ZM364.891 58V13.2L362.891 13.2V58H364.891ZM363.891 14.2H369.011V12.2H363.891V14.2ZM368.011 13.2V58L370.011 58V13.2H368.011ZM369.011 57L363.891 57V59L369.011 59V57ZM380.76 58H379.76V59H380.76V58ZM380.76 13.2V12.2H379.76V13.2H380.76ZM385.816 17.552V16.552H384.816V17.552H385.816ZM385.816 53.648H384.816V54.648H385.816V53.648ZM392.792 57H380.76V59H392.792V57ZM381.76 58V13.2H379.76V58H381.76ZM380.76 14.2L392.792 14.2V12.2L380.76 12.2V14.2ZM392.792 14.2C401.299 14.2 407.597 16.6988 411.759 20.572C415.919 24.4436 418.032 29.7681 418.032 35.6H420.032C420.032 29.2718 417.729 23.3964 413.121 19.108C408.515 14.8212 401.693 12.2 392.792 12.2V14.2ZM418.032 35.6C418.032 41.4318 415.919 46.7564 411.759 50.628C407.597 54.5012 401.299 57 392.792 57V59C401.693 59 408.515 56.3788 413.121 52.092C417.729 47.8036 420.032 41.9281 420.032 35.6H418.032ZM384.816 17.552V53.648H386.816V17.552H384.816ZM385.816 54.648H392.408V52.648H385.816V54.648ZM392.408 54.648C399.714 54.648 405.352 52.714 409.177 49.3067C413.014 45.8885 414.912 41.0876 414.912 35.6L412.912 35.6C412.912 40.6084 411.194 44.8315 407.847 47.8133C404.488 50.806 399.374 52.648 392.408 52.648V54.648ZM414.912 35.6C414.912 30.1124 413.014 25.3115 409.177 21.8933C405.352 18.486 399.714 16.552 392.408 16.552V18.552C399.374 18.552 404.488 20.394 407.847 23.3867C411.194 26.3685 412.912 30.5916 412.912 35.6L414.912 35.6ZM392.408 16.552H385.816V18.552H392.408V16.552ZM458.656 58L457.729 58.3746L457.981 59H458.656V58ZM454.752 48.336L455.679 47.9614L455.427 47.336H454.752V48.336ZM431.328 48.336V47.336H430.653L430.401 47.9614L431.328 48.336ZM427.424 58V59H428.099L428.351 58.3746L427.424 58ZM422.112 58L421.19 57.6128L420.607 59H422.112V58ZM440.928 13.2V12.2L440.263 12.2L440.006 12.8128L440.928 13.2ZM445.152 13.2L446.074 12.8128L445.817 12.2H445.152V13.2ZM463.968 58V59H465.473L464.89 57.6128L463.968 58ZM443.04 19.088L443.968 18.7166L443.04 16.3954L442.112 18.7166L443.04 19.088ZM433.056 44.048L432.128 43.6766L431.579 45.048H433.056V44.048ZM453.024 44.048V45.048H454.501L453.952 43.6766L453.024 44.048ZM459.583 57.6254L455.679 47.9614L453.825 48.7106L457.729 58.3746L459.583 57.6254ZM454.752 47.336H431.328V49.336H454.752V47.336ZM430.401 47.9614L426.497 57.6254L428.351 58.3746L432.255 48.7106L430.401 47.9614ZM427.424 57H422.112V59H427.424V57ZM423.034 58.3872L441.85 13.5872L440.006 12.8128L421.19 57.6128L423.034 58.3872ZM440.928 14.2H445.152V12.2H440.928V14.2ZM444.23 13.5872L463.046 58.3872L464.89 57.6128L446.074 12.8128L444.23 13.5872ZM463.968 57H458.656V59H463.968V57ZM442.112 18.7166L432.128 43.6766L433.984 44.4194L443.968 19.4594L442.112 18.7166ZM433.056 45.048H453.024V43.048H433.056V45.048ZM453.952 43.6766L443.968 18.7166L442.112 19.4594L452.096 44.4194L453.952 43.6766ZM471.823 58H470.823V59H471.823V58ZM471.823 13.2V12.2H470.823V13.2H471.823ZM476.879 17.552V16.552H475.879V17.552H476.879ZM476.879 53.648H475.879V54.648H476.879V53.648ZM483.855 57H471.823V59H483.855V57ZM472.823 58V13.2H470.823V58H472.823ZM471.823 14.2L483.855 14.2V12.2L471.823 12.2V14.2ZM483.855 14.2C492.361 14.2 498.659 16.6988 502.821 20.572C506.981 24.4436 509.095 29.7681 509.095 35.6H511.095C511.095 29.2718 508.792 23.3964 504.184 19.108C499.578 14.8212 492.756 12.2 483.855 12.2V14.2ZM509.095 35.6C509.095 41.4318 506.981 46.7564 502.821 50.628C498.659 54.5012 492.361 57 483.855 57V59C492.756 59 499.578 56.3788 504.184 52.092C508.792 47.8036 511.095 41.9281 511.095 35.6H509.095ZM475.879 17.552V53.648H477.879V17.552H475.879ZM476.879 54.648H483.471V52.648H476.879V54.648ZM483.471 54.648C490.776 54.648 496.415 52.714 500.24 49.3067C504.077 45.8885 505.975 41.0876 505.975 35.6H503.975C503.975 40.6084 502.256 44.8315 498.909 47.8133C495.55 50.806 490.437 52.648 483.471 52.648V54.648ZM505.975 35.6C505.975 30.1124 504.077 25.3115 500.24 21.8933C496.415 18.486 490.776 16.552 483.471 16.552V18.552C490.437 18.552 495.55 20.394 498.909 23.3867C502.256 26.3685 503.975 30.5916 503.975 35.6H505.975ZM483.471 16.552H476.879V18.552H483.471V16.552ZM519.073 58H518.073V59H519.073V58ZM519.073 13.2V12.2H518.073V13.2H519.073ZM547.361 13.2H548.361V12.2H547.361V13.2ZM547.361 17.68V18.68H548.361V17.68H547.361ZM524.193 17.68V16.68H523.193V17.68H524.193ZM524.193 32.976H523.193V33.976H524.193V32.976ZM546.785 32.976H547.785V31.976H546.785V32.976ZM546.785 37.456V38.456H547.785V37.456H546.785ZM524.193 37.456V36.456H523.193V37.456H524.193ZM524.193 53.52H523.193V54.52H524.193V53.52ZM547.617 53.52H548.617V52.52H547.617V53.52ZM547.617 58V59H548.617V58H547.617ZM520.073 58V13.2H518.073V58H520.073ZM519.073 14.2L547.361 14.2V12.2L519.073 12.2V14.2ZM546.361 13.2V17.68H548.361V13.2H546.361ZM547.361 16.68L524.193 16.68V18.68L547.361 18.68V16.68ZM523.193 17.68V32.976H525.193V17.68H523.193ZM524.193 33.976L546.785 33.976V31.976L524.193 31.976V33.976ZM545.785 32.976V37.456H547.785V32.976H545.785ZM546.785 36.456L524.193 36.456V38.456L546.785 38.456V36.456ZM523.193 37.456V53.52H525.193V37.456H523.193ZM524.193 54.52L547.617 54.52V52.52L524.193 52.52V54.52ZM546.617 53.52V58H548.617V53.52H546.617ZM547.617 57L519.073 57V59L547.617 59V57ZM553.764 45.648V44.648H552.607L552.775 45.7928L553.764 45.648ZM558.628 45.648L559.613 45.4742L559.467 44.648H558.628V45.648ZM571.94 37.648L572.216 36.687L572.216 36.6869L571.94 37.648ZM566.372 36.048L566.092 37.0081L566.096 37.0091L566.372 36.048ZM582.82 24.464V25.464H583.907L583.817 24.381L582.82 24.464ZM578.148 24.464L577.156 24.5864L577.264 25.464H578.148V24.464ZM568.1 31.76L568.388 30.8025L568.381 30.8002L568.373 30.798L568.1 31.76ZM573.412 33.36L573.124 34.3175L573.131 34.3197L573.138 34.3219L573.412 33.36ZM553.764 46.648H558.628V44.648H553.764V46.648ZM557.643 45.8218C558.154 48.7167 559.395 51.2119 561.417 52.984C563.444 54.7612 566.171 55.736 569.508 55.736V53.736C566.573 53.736 564.34 52.8868 562.735 51.48C561.125 50.0681 560.062 48.0193 559.613 45.4742L557.643 45.8218ZM569.508 55.736C572.903 55.736 575.712 54.7325 577.687 52.9997C579.669 51.2611 580.748 48.8406 580.748 46.16H578.748C578.748 48.2794 577.907 50.1469 576.369 51.4963C574.824 52.8515 572.513 53.736 569.508 53.736V55.736ZM580.748 46.16C580.748 43.6016 579.866 41.5544 578.307 39.977C576.774 38.4263 574.643 37.3851 572.216 36.687L571.664 38.609C573.909 39.2549 575.682 40.1657 576.885 41.383C578.062 42.5736 578.748 44.1104 578.748 46.16H580.748ZM572.216 36.6869L566.648 35.0869L566.096 37.0091L571.664 38.6091L572.216 36.6869ZM566.652 35.0879C563.433 34.1504 560.789 32.8658 558.96 31.1106C557.163 29.3854 556.108 27.1651 556.108 24.208H554.108C554.108 27.7149 555.389 30.4546 557.576 32.5534C559.731 34.6222 562.719 36.0256 566.092 37.0081L566.652 35.0879ZM556.108 24.208C556.108 17.7526 561.501 13.304 568.996 13.304V11.304C560.747 11.304 554.108 16.3274 554.108 24.208H556.108ZM568.996 13.304C572.871 13.304 575.932 14.541 578.086 16.5272C580.243 18.5163 581.554 21.3144 581.823 24.547L583.817 24.381C583.51 20.7016 582.005 17.4197 579.442 15.0568C576.876 12.691 573.313 11.304 568.996 11.304V13.304ZM582.82 23.464L578.148 23.464V25.464L582.82 25.464V23.464ZM579.14 24.3416C578.827 21.8003 577.756 19.5681 575.986 17.9698C574.213 16.3681 571.804 15.464 568.932 15.464V17.464C571.372 17.464 573.283 18.2239 574.646 19.4542C576.012 20.6879 576.893 22.4557 577.156 24.5864L579.14 24.3416ZM568.932 15.464C566.074 15.464 563.6 16.2297 561.822 17.7323C560.026 19.2511 559.036 21.4448 559.036 24.08H561.036C561.036 21.9792 561.806 20.3649 563.114 19.2597C564.44 18.1383 566.414 17.464 568.932 17.464V15.464ZM559.036 24.08C559.036 26.6743 559.995 28.544 561.655 29.9151C563.251 31.2327 565.442 32.0452 567.827 32.722L568.373 30.798C566.022 30.1308 564.181 29.4073 562.929 28.3729C561.741 27.392 561.036 26.0937 561.036 24.08H559.036ZM567.812 32.7175L573.124 34.3175L573.7 32.4025L568.388 30.8025L567.812 32.7175ZM573.138 34.3219C576.542 35.2898 579.169 36.6169 580.942 38.4476C582.685 40.2489 583.676 42.6141 583.676 45.84H585.676C585.676 42.1539 584.523 39.2711 582.378 37.0564C580.263 34.8711 577.258 33.4142 573.686 32.3981L573.138 34.3219ZM583.676 45.84C583.676 52.8211 577.819 57.896 569.444 57.896V59.896C578.605 59.896 585.676 54.2189 585.676 45.84H583.676ZM569.444 57.896C565.237 57.896 561.848 56.6193 559.381 54.47C556.912 52.3188 555.3 49.2348 554.753 45.5032L552.775 45.7928C553.38 49.9332 555.192 53.4732 558.067 55.978C560.944 58.4847 564.819 59.896 569.444 59.896V57.896Z" fill="black" mask="url(#path-1-outside-1_361_2680)"/>
<line x1="160" y1="32.25" x2="-2.18557e-08" y2="32.25" stroke="black" stroke-width="0.5"/>
</svg>
