<svg width="789" height="274" viewBox="0 0 789 274" fill="none" xmlns="http://www.w3.org/2000/svg">
<path d="M93.6867 182.4C87.6867 182.4 82.2867 181.133 77.4867 178.6C72.8201 176.067 69.0867 172.067 66.2867 166.6C63.6201 161 62.2867 153.8 62.2867 145L62.2867 94.8C62.2867 82.9333 65.2867 74.2 71.2867 68.6C77.4201 63 85.0201 60.2 94.0867 60.2C102.887 60.2 110.22 63.0667 116.087 68.8C121.953 74.4 124.887 83.0667 124.887 94.8L124.887 145C124.887 153.933 123.553 161.2 120.887 166.8C118.22 172.267 114.487 176.267 109.687 178.8C105.02 181.2 99.6867 182.4 93.6867 182.4ZM93.6867 173C98.3534 173 102.153 171.2 105.087 167.6C108.153 164 109.687 158.8 109.687 152L109.687 91C109.687 84.2 108.087 79 104.887 75.4C101.82 71.8 98.0867 70 93.6867 70C89.1534 70 85.3534 71.8 82.2867 75.4C79.2201 79 77.6867 84.2 77.6867 91L77.6867 152C77.6867 158.8 79.2201 164 82.2867 167.6C85.3534 171.2 89.1534 173 93.6867 173ZM171.774 181.4C164.308 181.4 158.241 180.2 153.574 177.8C148.908 175.267 145.441 171.8 143.174 167.4C141.041 163 139.974 157.933 139.974 152.2V139.8H155.774V149.2C155.774 155.733 157.041 160.867 159.574 164.6C162.241 168.2 166.241 170.067 171.574 170.2C176.641 170.2 180.574 168.533 183.374 165.2C186.174 161.733 187.574 157.2 187.574 151.6V140.4C187.574 134.933 185.774 130.8 182.174 128C178.574 125.2 173.641 123.733 167.374 123.6H156.174V114.2H167.374C170.441 114.2 173.241 113.733 175.774 112.8C178.441 111.733 180.574 110.267 182.174 108.4C183.908 106.8 185.108 105.067 185.774 103.2C186.441 101.2 186.774 99.0667 186.774 96.8V89.6C186.774 84.8 185.574 80.7333 183.174 77.4C180.908 74.0667 177.041 72.4 171.574 72.4C166.108 72.4 162.174 74.2 159.774 77.8C157.508 81.4 156.374 86.0667 156.374 91.8V98.2H140.574V88.8C140.574 80 143.108 73.2 148.174 68.4C153.241 63.6 161.108 61.2 171.774 61.2C182.841 61.2 190.841 63.4667 195.774 68C200.708 72.5333 203.174 79.1333 203.174 87.8L203.174 94.6C203.174 101.533 201.441 107.067 197.974 111.2C194.508 115.333 189.841 118.067 183.974 119.4C190.374 120.2 195.241 122.8 198.574 127.2C202.041 131.6 203.774 137.2 203.774 144V152.2C203.774 158.2 202.708 163.4 200.574 167.8C198.574 172.2 195.241 175.6 190.574 178C185.908 180.267 179.641 181.4 171.774 181.4Z" fill="black"/>
<mask id="path-2-outside-1_382_2628" maskUnits="userSpaceOnUse" x="250" y="94" width="536" height="63" fill="black">
<rect fill="white" x="250" y="94" width="536" height="63"/>
<path d="M251.47 154L251.47 96.4H277.75C290.35 96.4 298.63 103.51 298.63 115.03C298.63 126.73 290.8 133.48 278.2 133.48H260.38V154H251.47ZM260.38 125.56H277.84C285.04 125.56 289.54 121.69 289.54 115.03C289.54 108.46 285.04 104.5 277.84 104.5H260.38V125.56ZM360.727 154H348.037L320.497 128.62V154H311.587V96.4H338.587C351.097 96.4 359.557 102.61 359.557 113.77C359.557 125.2 351.817 130.87 339.217 130.87H334.447L360.727 154ZM320.497 104.5V123.13H339.217C345.877 123.13 350.467 120.16 350.467 113.77C350.467 107.56 345.877 104.5 339.217 104.5H320.497ZM400.121 155.17C382.481 155.17 369.341 141.85 369.341 125.29C369.341 108.55 382.481 95.41 400.121 95.41C417.761 95.41 430.991 108.55 430.991 125.29C430.991 141.85 417.761 155.17 400.121 155.17ZM400.121 146.8C412.541 146.8 422.081 137.53 422.081 125.29C422.081 113.05 412.541 103.69 400.121 103.69C387.701 103.69 378.161 113.05 378.161 125.29C378.161 137.53 387.701 146.8 400.121 146.8ZM458.133 154V129.25L433.023 96.4H443.643L462.543 120.97L481.533 96.4L492.153 96.4L467.043 129.25V154L458.133 154ZM500.2 154V96.4L545.2 96.4V104.5L509.02 104.5V119.26L535.3 119.26V127.18H509.02V145.9H545.29V154H500.2ZM582.402 154.99C565.032 154.99 551.802 142.03 551.802 125.29C551.802 108.55 565.032 95.5 582.402 95.5C591.762 95.5 600.132 99.28 606.162 105.76L599.322 111.07C594.912 106.39 588.972 103.87 582.402 103.87C570.162 103.87 560.622 112.96 560.622 125.29C560.622 137.62 570.162 146.71 582.402 146.71C589.152 146.71 595.002 144.1 599.502 139.33L606.432 144.55C600.312 151.21 592.032 154.99 582.402 154.99ZM632.183 154V104.59H612.113L612.023 96.4H661.073V104.59H641.003V154H632.183ZM695.785 155.17C678.145 155.17 665.005 141.85 665.005 125.29C665.005 108.55 678.145 95.41 695.785 95.41C713.425 95.41 726.655 108.55 726.655 125.29C726.655 141.85 713.425 155.17 695.785 155.17ZM695.785 146.8C708.205 146.8 717.745 137.53 717.745 125.29C717.745 113.05 708.205 103.69 695.785 103.69C683.365 103.69 673.825 113.05 673.825 125.29C673.825 137.53 683.365 146.8 695.785 146.8ZM761.298 154.72C751.938 154.81 742.218 152.11 735.558 147.88L740.328 140.95C746.448 144.64 754.368 146.71 761.658 146.71C769.758 146.62 775.158 143.56 775.248 138.34C775.428 133.48 772.188 131.68 763.728 129.7L756.078 127.99C743.748 125.2 738.078 120.07 737.988 111.61C737.988 102.25 747.348 95.86 760.128 95.77C768.498 95.77 776.598 98.29 782.538 101.98L778.038 108.82C772.998 105.76 767.148 103.78 760.938 103.78C753.018 103.87 747.438 106.75 747.528 111.88C747.528 116.29 751.128 118.45 758.688 120.25L766.788 122.05C779.028 124.84 784.428 129.52 784.428 138.25C784.518 148.06 775.068 154.72 761.298 154.72Z"/>
</mask>
<path d="M251.47 154H250.47V155H251.47V154ZM251.47 96.4V95.4H250.47V96.4H251.47ZM260.38 133.48V132.48H259.38V133.48H260.38ZM260.38 154V155H261.38V154H260.38ZM260.38 125.56H259.38V126.56H260.38V125.56ZM260.38 104.5V103.5H259.38V104.5H260.38ZM252.47 154L252.47 96.4H250.47L250.47 154H252.47ZM251.47 97.4H277.75V95.4H251.47V97.4ZM277.75 97.4C283.867 97.4 288.832 99.1249 292.253 102.145C295.66 105.152 297.63 109.525 297.63 115.03H299.63C299.63 109.015 297.459 104.073 293.576 100.645C289.707 97.2301 284.232 95.4 277.75 95.4V97.4ZM297.63 115.03C297.63 120.645 295.759 124.967 292.474 127.896C289.174 130.839 284.329 132.48 278.2 132.48V134.48C284.67 134.48 290.04 132.746 293.805 129.389C297.585 126.018 299.63 121.115 299.63 115.03H297.63ZM278.2 132.48H260.38V134.48H278.2V132.48ZM259.38 133.48V154H261.38V133.48H259.38ZM260.38 153H251.47V155H260.38V153ZM260.38 126.56H277.84V124.56H260.38V126.56ZM277.84 126.56C281.611 126.56 284.797 125.546 287.054 123.54C289.326 121.52 290.54 118.597 290.54 115.03H288.54C288.54 118.123 287.503 120.465 285.725 122.045C283.932 123.639 281.268 124.56 277.84 124.56V126.56ZM290.54 115.03C290.54 111.504 289.324 108.584 287.056 106.556C284.802 104.54 281.616 103.5 277.84 103.5V105.5C281.263 105.5 283.927 106.44 285.723 108.047C287.505 109.641 288.54 111.986 288.54 115.03H290.54ZM277.84 103.5H260.38V105.5H277.84V103.5ZM259.38 104.5V125.56H261.38V104.5H259.38ZM360.727 154V155H363.377L361.387 153.249L360.727 154ZM348.037 154L347.359 154.735L347.646 155H348.037V154ZM320.497 128.62L321.174 127.885L319.497 126.339V128.62H320.497ZM320.497 154V155H321.497V154H320.497ZM311.587 154H310.587V155H311.587V154ZM311.587 96.4V95.4H310.587V96.4H311.587ZM334.447 130.87V129.87H331.797L333.786 131.621L334.447 130.87ZM320.497 104.5V103.5H319.497V104.5H320.497ZM320.497 123.13H319.497V124.13H320.497V123.13ZM360.727 153H348.037V155H360.727V153ZM348.714 153.265L321.174 127.885L319.819 129.355L347.359 154.735L348.714 153.265ZM319.497 128.62V154H321.497V128.62H319.497ZM320.497 153H311.587V155H320.497V153ZM312.587 154V96.4H310.587V154H312.587ZM311.587 97.4H338.587V95.4H311.587V97.4ZM338.587 97.4C344.689 97.4 349.687 98.9157 353.138 101.68C356.56 104.423 358.557 108.468 358.557 113.77H360.557C360.557 107.912 358.323 103.272 354.388 100.12C350.481 96.9893 344.994 95.4 338.587 95.4V97.4ZM358.557 113.77C358.557 119.241 356.716 123.207 353.482 125.83C350.214 128.48 345.386 129.87 339.217 129.87V131.87C345.648 131.87 350.99 130.425 354.742 127.383C358.527 124.313 360.557 119.729 360.557 113.77H358.557ZM339.217 129.87H334.447V131.87H339.217V129.87ZM333.786 131.621L360.066 154.751L361.387 153.249L335.107 130.119L333.786 131.621ZM319.497 104.5V123.13H321.497V104.5H319.497ZM320.497 124.13H339.217V122.13H320.497V124.13ZM339.217 124.13C342.676 124.13 345.736 123.361 347.954 121.635C350.209 119.879 351.467 117.23 351.467 113.77H349.467C349.467 116.7 348.429 118.731 346.725 120.057C344.982 121.414 342.417 122.13 339.217 122.13V124.13ZM351.467 113.77C351.467 110.392 350.203 107.768 347.954 106.017C345.74 104.294 342.682 103.5 339.217 103.5V105.5C342.411 105.5 344.979 106.236 346.725 107.595C348.435 108.927 349.467 110.938 349.467 113.77H351.467ZM339.217 103.5H320.497V105.5H339.217V103.5ZM400.121 154.17C383.017 154.17 370.341 141.282 370.341 125.29H368.341C368.341 142.418 381.944 156.17 400.121 156.17V154.17ZM370.341 125.29C370.341 109.122 383.013 96.41 400.121 96.41V94.41C381.948 94.41 368.341 107.978 368.341 125.29H370.341ZM400.121 96.41C417.232 96.41 429.991 109.126 429.991 125.29H431.991C431.991 107.974 418.29 94.41 400.121 94.41V96.41ZM429.991 125.29C429.991 141.278 417.228 154.17 400.121 154.17V156.17C418.294 156.17 431.991 142.422 431.991 125.29H429.991ZM400.121 147.8C413.071 147.8 423.081 138.104 423.081 125.29H421.081C421.081 136.956 412.01 145.8 400.121 145.8V147.8ZM423.081 125.29C423.081 112.481 413.077 102.69 400.121 102.69V104.69C412.005 104.69 421.081 113.619 421.081 125.29H423.081ZM400.121 102.69C387.165 102.69 377.161 112.481 377.161 125.29H379.161C379.161 113.619 388.237 104.69 400.121 104.69V102.69ZM377.161 125.29C377.161 138.104 387.17 147.8 400.121 147.8V145.8C388.231 145.8 379.161 136.956 379.161 125.29H377.161ZM458.133 154H457.133V155H458.133V154ZM458.133 129.25H459.133V128.912L458.927 128.643L458.133 129.25ZM433.023 96.4V95.4H431L432.228 97.0073L433.023 96.4ZM443.643 96.4L444.435 95.7903L444.135 95.4H443.643V96.4ZM462.543 120.97L461.75 121.58L462.541 122.608L463.334 121.582L462.543 120.97ZM481.533 96.4V95.4H481.042L480.742 95.7885L481.533 96.4ZM492.153 96.4L492.947 97.0073L494.176 95.4H492.153V96.4ZM467.043 129.25L466.248 128.643L466.043 128.912V129.25H467.043ZM467.043 154V155H468.043V154H467.043ZM459.133 154V129.25H457.133V154H459.133ZM458.927 128.643L433.817 95.7927L432.228 97.0073L457.338 129.857L458.927 128.643ZM433.023 97.4H443.643V95.4H433.023V97.4ZM442.85 97.0097L461.75 121.58L463.335 120.36L444.435 95.7903L442.85 97.0097ZM463.334 121.582L482.324 97.0115L480.742 95.7885L461.752 120.358L463.334 121.582ZM481.533 97.4L492.153 97.4V95.4L481.533 95.4V97.4ZM491.358 95.7927L466.248 128.643L467.837 129.857L492.947 97.0073L491.358 95.7927ZM466.043 129.25V154H468.043V129.25H466.043ZM467.043 153L458.133 153V155L467.043 155V153ZM500.2 154H499.2V155H500.2V154ZM500.2 96.4V95.4H499.2V96.4H500.2ZM545.2 96.4H546.2V95.4H545.2V96.4ZM545.2 104.5V105.5H546.2V104.5H545.2ZM509.02 104.5V103.5H508.02V104.5H509.02ZM509.02 119.26H508.02V120.26H509.02V119.26ZM535.3 119.26H536.3V118.26H535.3V119.26ZM535.3 127.18V128.18H536.3V127.18H535.3ZM509.02 127.18V126.18H508.02V127.18H509.02ZM509.02 145.9H508.02V146.9H509.02V145.9ZM545.29 145.9H546.29V144.9H545.29V145.9ZM545.29 154V155H546.29V154H545.29ZM501.2 154V96.4H499.2V154H501.2ZM500.2 97.4L545.2 97.4V95.4L500.2 95.4V97.4ZM544.2 96.4V104.5H546.2V96.4H544.2ZM545.2 103.5L509.02 103.5V105.5L545.2 105.5V103.5ZM508.02 104.5V119.26H510.02V104.5H508.02ZM509.02 120.26L535.3 120.26V118.26L509.02 118.26V120.26ZM534.3 119.26V127.18H536.3V119.26H534.3ZM535.3 126.18H509.02V128.18H535.3V126.18ZM508.02 127.18V145.9H510.02V127.18H508.02ZM509.02 146.9H545.29V144.9H509.02V146.9ZM544.29 145.9V154H546.29V145.9H544.29ZM545.29 153H500.2V155H545.29V153ZM606.162 105.76L606.775 106.55L607.639 105.879L606.894 105.079L606.162 105.76ZM599.322 111.07L598.594 111.756L599.217 112.417L599.935 111.86L599.322 111.07ZM599.502 139.33L600.103 138.531L599.388 137.993L598.774 138.644L599.502 139.33ZM606.432 144.55L607.168 145.227L607.914 144.415L607.033 143.751L606.432 144.55ZM582.402 153.99C565.558 153.99 552.802 141.452 552.802 125.29L550.802 125.29C550.802 142.608 564.505 155.99 582.402 155.99V153.99ZM552.802 125.29C552.802 109.124 565.562 96.5 582.402 96.5V94.5C564.501 94.5 550.802 107.976 550.802 125.29L552.802 125.29ZM582.402 96.5C591.482 96.5 599.588 100.163 605.43 106.441L606.894 105.079C600.676 98.3968 592.041 94.5 582.402 94.5V96.5ZM605.549 104.97L598.709 110.28L599.935 111.86L606.775 106.55L605.549 104.97ZM600.05 110.384C595.445 105.498 589.239 102.87 582.402 102.87V104.87C588.704 104.87 594.378 107.282 598.594 111.756L600.05 110.384ZM582.402 102.87C569.634 102.87 559.622 112.383 559.622 125.29H561.622C561.622 113.537 570.689 104.87 582.402 104.87V102.87ZM559.622 125.29C559.622 138.197 569.634 147.71 582.402 147.71V145.71C570.689 145.71 561.622 137.043 561.622 125.29H559.622ZM582.402 147.71C589.432 147.71 595.543 144.983 600.229 140.016L598.774 138.644C594.46 143.217 588.872 145.71 582.402 145.71V147.71ZM598.9 140.129L605.83 145.349L607.033 143.751L600.103 138.531L598.9 140.129ZM605.695 143.873C599.764 150.328 591.751 153.99 582.402 153.99V155.99C592.313 155.99 600.859 152.092 607.168 145.227L605.695 143.873ZM632.183 154H631.183V155H632.183V154ZM632.183 104.59H633.183V103.59H632.183V104.59ZM612.113 104.59L611.113 104.601L611.124 105.59H612.113V104.59ZM612.023 96.4V95.4H611.012L611.023 96.411L612.023 96.4ZM661.073 96.4H662.073V95.4H661.073V96.4ZM661.073 104.59V105.59H662.073V104.59H661.073ZM641.003 104.59V103.59H640.003V104.59H641.003ZM641.003 154V155H642.003V154H641.003ZM633.183 154V104.59H631.183V154H633.183ZM632.183 103.59H612.113V105.59H632.183V103.59ZM613.113 104.579L613.023 96.389L611.023 96.411L611.113 104.601L613.113 104.579ZM612.023 97.4H661.073V95.4H612.023V97.4ZM660.073 96.4V104.59H662.073V96.4H660.073ZM661.073 103.59H641.003V105.59H661.073V103.59ZM640.003 104.59V154H642.003V104.59H640.003ZM641.003 153H632.183V155H641.003V153ZM695.785 154.17C678.681 154.17 666.005 141.282 666.005 125.29H664.005C664.005 142.418 677.608 156.17 695.785 156.17V154.17ZM666.005 125.29C666.005 109.122 678.678 96.41 695.785 96.41V94.41C677.612 94.41 664.005 107.978 664.005 125.29H666.005ZM695.785 96.41C712.896 96.41 725.655 109.126 725.655 125.29H727.655C727.655 107.974 713.954 94.41 695.785 94.41V96.41ZM725.655 125.29C725.655 141.278 712.892 154.17 695.785 154.17V156.17C713.958 156.17 727.655 142.422 727.655 125.29H725.655ZM695.785 147.8C708.735 147.8 718.745 138.104 718.745 125.29H716.745C716.745 136.956 707.674 145.8 695.785 145.8V147.8ZM718.745 125.29C718.745 112.481 708.741 102.69 695.785 102.69V104.69C707.669 104.69 716.745 113.619 716.745 125.29H718.745ZM695.785 102.69C682.829 102.69 672.825 112.481 672.825 125.29H674.825C674.825 113.619 683.901 104.69 695.785 104.69V102.69ZM672.825 125.29C672.825 138.104 682.834 147.8 695.785 147.8V145.8C683.895 145.8 674.825 136.956 674.825 125.29H672.825ZM761.298 154.72V153.72L761.288 153.72L761.298 154.72ZM735.558 147.88L734.734 147.313L734.146 148.168L735.022 148.724L735.558 147.88ZM740.328 140.95L740.844 140.094L740.038 139.607L739.504 140.383L740.328 140.95ZM761.658 146.71V147.71L761.669 147.71L761.658 146.71ZM775.248 138.34L774.249 138.303L774.248 138.313L774.248 138.323L775.248 138.34ZM763.728 129.7L763.956 128.726L763.946 128.724L763.728 129.7ZM756.078 127.99L755.857 128.965L755.86 128.966L756.078 127.99ZM737.988 111.61H736.988L736.988 111.621L737.988 111.61ZM760.128 95.77V94.77L760.121 94.77L760.128 95.77ZM782.538 101.98L783.373 102.53L783.937 101.672L783.065 101.131L782.538 101.98ZM778.038 108.82L777.519 109.675L778.343 110.175L778.873 109.37L778.038 108.82ZM760.938 103.78V102.78L760.926 102.78L760.938 103.78ZM747.528 111.88H748.528V111.871L748.528 111.862L747.528 111.88ZM758.688 120.25L758.456 121.223L758.464 121.225L758.471 121.226L758.688 120.25ZM766.788 122.05L767.01 121.075L767.005 121.074L766.788 122.05ZM784.428 138.25H783.428L783.428 138.259L784.428 138.25ZM761.288 153.72C752.1 153.808 742.573 151.151 736.094 147.036L735.022 148.724C741.862 153.069 751.776 155.812 761.307 155.72L761.288 153.72ZM736.382 148.447L741.152 141.517L739.504 140.383L734.734 147.313L736.382 148.447ZM739.811 141.806C746.099 145.597 754.2 147.71 761.658 147.71V145.71C754.536 145.71 746.797 143.683 740.844 140.094L739.811 141.806ZM761.669 147.71C765.823 147.664 769.393 146.858 771.972 145.306C774.587 143.732 776.196 141.371 776.248 138.357L774.248 138.323C774.21 140.529 773.074 142.308 770.941 143.592C768.772 144.897 765.593 145.666 761.647 145.71L761.669 147.71ZM776.247 138.377C776.296 137.049 776.114 135.859 775.62 134.797C775.123 133.728 774.343 132.858 773.305 132.124C771.281 130.692 768.174 129.714 763.956 128.726L763.5 130.674C767.742 131.666 770.484 132.578 772.15 133.756C772.957 134.327 773.482 134.942 773.807 135.64C774.134 136.343 774.289 137.201 774.249 138.303L776.247 138.377ZM763.946 128.724L756.296 127.014L755.86 128.966L763.51 130.676L763.946 128.724ZM756.299 127.015C750.209 125.637 745.901 123.708 743.114 121.185C740.368 118.699 739.03 115.576 738.988 111.599L736.988 111.621C737.036 116.104 738.577 119.776 741.772 122.668C744.925 125.522 749.617 127.553 755.857 128.965L756.299 127.015ZM738.988 111.61C738.988 107.304 741.127 103.652 744.842 101.031C748.575 98.3961 753.898 96.8139 760.135 96.77L760.121 94.77C753.578 94.8161 747.83 96.4739 743.689 99.3967C739.529 102.333 736.988 106.556 736.988 111.61H738.988ZM760.128 96.77C768.31 96.77 776.228 99.2373 782.01 102.829L783.065 101.131C776.968 97.3427 768.685 94.77 760.128 94.77V96.77ZM781.702 101.43L777.202 108.27L778.873 109.37L783.373 102.53L781.702 101.43ZM778.557 107.965C773.39 104.828 767.363 102.78 760.938 102.78V104.78C766.933 104.78 772.606 106.692 777.519 109.675L778.557 107.965ZM760.926 102.78C756.869 102.826 753.305 103.585 750.729 105.074C748.116 106.585 746.475 108.89 746.528 111.898L748.528 111.862C748.49 109.74 749.595 108.04 751.73 106.806C753.901 105.55 757.086 104.824 760.949 104.78L760.926 102.78ZM746.528 111.88C746.528 114.432 747.604 116.368 749.692 117.858C751.704 119.293 754.657 120.318 758.456 121.223L758.919 119.277C755.159 118.382 752.531 117.427 750.854 116.23C749.252 115.087 748.528 113.738 748.528 111.88H746.528ZM758.471 121.226L766.571 123.026L767.005 121.074L758.905 119.274L758.471 121.226ZM766.566 123.025C772.625 124.406 776.836 126.225 779.526 128.663C782.166 131.056 783.428 134.122 783.428 138.25H785.428C785.428 133.648 783.99 130.009 780.869 127.182C777.8 124.4 773.19 122.484 767.01 121.075L766.566 123.025ZM783.428 138.259C783.47 142.8 781.319 146.624 777.481 149.348C773.621 152.089 768.034 153.72 761.298 153.72V155.72C768.331 155.72 774.355 154.021 778.639 150.979C782.947 147.921 785.476 143.51 785.428 138.241L783.428 138.259Z" fill="black" mask="url(#path-2-outside-1_382_2628)"/>
</svg>
