<svg width="1003" height="233" viewBox="0 0 1003 233" fill="none" xmlns="http://www.w3.org/2000/svg">
<mask id="path-1-outside-1_380_2631" maskUnits="userSpaceOnUse" x="372" y="27" width="629" height="54" fill="black">
<rect fill="white" x="372" y="27" width="629" height="54"/>
<path d="M414.204 79H403.77L381.126 58.132V79H373.8V31.64L396 31.64C406.286 31.64 413.242 36.746 413.242 45.922C413.242 55.32 406.878 59.982 396.518 59.982H392.596L414.204 79ZM381.126 38.3V53.618H396.518C401.994 53.618 405.768 51.176 405.768 45.922C405.768 40.816 401.994 38.3 396.518 38.3H381.126ZM424.53 79V31.64L461.53 31.64V38.3H431.782V50.436H453.39V56.948H431.782V72.34H461.604V79H424.53ZM472.659 79V31.714L488.717 31.64C505.811 31.566 515.949 41.852 515.949 55.394C515.949 68.936 505.811 79 488.717 79L472.659 79ZM479.911 72.414L488.717 72.34C502.259 72.34 508.623 65.384 508.623 55.468C508.623 45.478 502.259 38.374 488.717 38.3L479.911 38.226V72.414ZM527.003 79V31.64L564.003 31.64V38.3L534.255 38.3V50.436L555.863 50.436V56.948L534.255 56.948V72.34H564.077V79H527.003ZM591.805 79.592C584.109 79.666 576.117 77.446 570.641 73.968L574.563 68.27C579.595 71.304 586.107 73.006 592.101 73.006C598.761 72.932 603.201 70.416 603.275 66.124C603.423 62.128 600.759 60.648 593.803 59.02L587.513 57.614C577.375 55.32 572.713 51.102 572.639 44.146C572.639 36.45 580.335 31.196 590.843 31.122C597.725 31.122 604.385 33.194 609.269 36.228L605.569 41.852C601.425 39.336 596.615 37.708 591.509 37.708C584.997 37.782 580.409 40.15 580.483 44.368C580.483 47.994 583.443 49.77 589.659 51.25L596.319 52.73C606.383 55.024 610.823 58.872 610.823 66.05C610.897 74.116 603.127 79.592 591.805 79.592ZM658.217 79.592C650.521 79.666 642.529 77.446 637.053 73.968L640.975 68.27C646.007 71.304 652.519 73.006 658.513 73.006C665.173 72.932 669.613 70.416 669.687 66.124C669.835 62.128 667.171 60.648 660.215 59.02L653.925 57.614C643.787 55.32 639.125 51.102 639.051 44.146C639.051 36.45 646.747 31.196 657.255 31.122C664.137 31.122 670.797 33.194 675.681 36.228L671.981 41.852C667.837 39.336 663.027 37.708 657.921 37.708C651.409 37.782 646.821 40.15 646.895 44.368C646.895 47.994 649.855 49.77 656.071 51.25L662.731 52.73C672.795 55.024 677.235 58.872 677.235 66.05C677.309 74.116 669.539 79.592 658.217 79.592ZM710.364 79.962C695.86 79.962 685.056 69.01 685.056 55.394C685.056 41.63 695.86 30.826 710.364 30.826C724.868 30.826 735.746 41.63 735.746 55.394C735.746 69.01 724.868 79.962 710.364 79.962ZM710.364 73.08C720.576 73.08 728.42 65.458 728.42 55.394C728.42 45.33 720.576 37.634 710.364 37.634C700.152 37.634 692.308 45.33 692.308 55.394C692.308 65.458 700.152 73.08 710.364 73.08ZM769.257 79.814C754.975 79.814 744.097 69.158 744.097 55.394C744.097 41.63 754.975 30.9 769.257 30.9C776.953 30.9 783.835 34.008 788.793 39.336L783.169 43.702C779.543 39.854 774.659 37.782 769.257 37.782C759.193 37.782 751.349 45.256 751.349 55.394C751.349 65.532 759.193 73.006 769.257 73.006C774.807 73.006 779.617 70.86 783.317 66.938L789.015 71.23C783.983 76.706 777.175 79.814 769.257 79.814ZM798.577 79V31.64H805.903V79H798.577ZM812.501 79.074L839.511 29.79L866.077 79.074H858.233L852.757 68.64L826.043 68.64L820.493 79.074H812.501ZM829.299 62.572H849.427L839.437 43.554L829.299 62.572ZM872.722 79V31.64H880.048L879.974 72.34H906.688V79H872.722ZM915.503 79V31.64L952.503 31.64V38.3L922.755 38.3V50.436H944.363V56.948H922.755V72.34L952.577 72.34V79L915.503 79ZM980.305 79.592C972.609 79.666 964.617 77.446 959.141 73.968L963.063 68.27C968.095 71.304 974.607 73.006 980.601 73.006C987.261 72.932 991.701 70.416 991.775 66.124C991.923 62.128 989.259 60.648 982.303 59.02L976.013 57.614C965.875 55.32 961.213 51.102 961.139 44.146C961.139 36.45 968.835 31.196 979.343 31.122C986.225 31.122 992.885 33.194 997.769 36.228L994.069 41.852C989.925 39.336 985.115 37.708 980.009 37.708C973.497 37.782 968.909 40.15 968.983 44.368C968.983 47.994 971.943 49.77 978.159 51.25L984.819 52.73C994.883 55.024 999.323 58.872 999.323 66.05C999.397 74.116 991.627 79.592 980.305 79.592Z"/>
</mask>
<path d="M414.204 79H403.77L381.126 58.132V79H373.8V31.64L396 31.64C406.286 31.64 413.242 36.746 413.242 45.922C413.242 55.32 406.878 59.982 396.518 59.982H392.596L414.204 79ZM381.126 38.3V53.618H396.518C401.994 53.618 405.768 51.176 405.768 45.922C405.768 40.816 401.994 38.3 396.518 38.3H381.126ZM424.53 79V31.64L461.53 31.64V38.3H431.782V50.436H453.39V56.948H431.782V72.34H461.604V79H424.53ZM472.659 79V31.714L488.717 31.64C505.811 31.566 515.949 41.852 515.949 55.394C515.949 68.936 505.811 79 488.717 79L472.659 79ZM479.911 72.414L488.717 72.34C502.259 72.34 508.623 65.384 508.623 55.468C508.623 45.478 502.259 38.374 488.717 38.3L479.911 38.226V72.414ZM527.003 79V31.64L564.003 31.64V38.3L534.255 38.3V50.436L555.863 50.436V56.948L534.255 56.948V72.34H564.077V79H527.003ZM591.805 79.592C584.109 79.666 576.117 77.446 570.641 73.968L574.563 68.27C579.595 71.304 586.107 73.006 592.101 73.006C598.761 72.932 603.201 70.416 603.275 66.124C603.423 62.128 600.759 60.648 593.803 59.02L587.513 57.614C577.375 55.32 572.713 51.102 572.639 44.146C572.639 36.45 580.335 31.196 590.843 31.122C597.725 31.122 604.385 33.194 609.269 36.228L605.569 41.852C601.425 39.336 596.615 37.708 591.509 37.708C584.997 37.782 580.409 40.15 580.483 44.368C580.483 47.994 583.443 49.77 589.659 51.25L596.319 52.73C606.383 55.024 610.823 58.872 610.823 66.05C610.897 74.116 603.127 79.592 591.805 79.592ZM658.217 79.592C650.521 79.666 642.529 77.446 637.053 73.968L640.975 68.27C646.007 71.304 652.519 73.006 658.513 73.006C665.173 72.932 669.613 70.416 669.687 66.124C669.835 62.128 667.171 60.648 660.215 59.02L653.925 57.614C643.787 55.32 639.125 51.102 639.051 44.146C639.051 36.45 646.747 31.196 657.255 31.122C664.137 31.122 670.797 33.194 675.681 36.228L671.981 41.852C667.837 39.336 663.027 37.708 657.921 37.708C651.409 37.782 646.821 40.15 646.895 44.368C646.895 47.994 649.855 49.77 656.071 51.25L662.731 52.73C672.795 55.024 677.235 58.872 677.235 66.05C677.309 74.116 669.539 79.592 658.217 79.592ZM710.364 79.962C695.86 79.962 685.056 69.01 685.056 55.394C685.056 41.63 695.86 30.826 710.364 30.826C724.868 30.826 735.746 41.63 735.746 55.394C735.746 69.01 724.868 79.962 710.364 79.962ZM710.364 73.08C720.576 73.08 728.42 65.458 728.42 55.394C728.42 45.33 720.576 37.634 710.364 37.634C700.152 37.634 692.308 45.33 692.308 55.394C692.308 65.458 700.152 73.08 710.364 73.08ZM769.257 79.814C754.975 79.814 744.097 69.158 744.097 55.394C744.097 41.63 754.975 30.9 769.257 30.9C776.953 30.9 783.835 34.008 788.793 39.336L783.169 43.702C779.543 39.854 774.659 37.782 769.257 37.782C759.193 37.782 751.349 45.256 751.349 55.394C751.349 65.532 759.193 73.006 769.257 73.006C774.807 73.006 779.617 70.86 783.317 66.938L789.015 71.23C783.983 76.706 777.175 79.814 769.257 79.814ZM798.577 79V31.64H805.903V79H798.577ZM812.501 79.074L839.511 29.79L866.077 79.074H858.233L852.757 68.64L826.043 68.64L820.493 79.074H812.501ZM829.299 62.572H849.427L839.437 43.554L829.299 62.572ZM872.722 79V31.64H880.048L879.974 72.34H906.688V79H872.722ZM915.503 79V31.64L952.503 31.64V38.3L922.755 38.3V50.436H944.363V56.948H922.755V72.34L952.577 72.34V79L915.503 79ZM980.305 79.592C972.609 79.666 964.617 77.446 959.141 73.968L963.063 68.27C968.095 71.304 974.607 73.006 980.601 73.006C987.261 72.932 991.701 70.416 991.775 66.124C991.923 62.128 989.259 60.648 982.303 59.02L976.013 57.614C965.875 55.32 961.213 51.102 961.139 44.146C961.139 36.45 968.835 31.196 979.343 31.122C986.225 31.122 992.885 33.194 997.769 36.228L994.069 41.852C989.925 39.336 985.115 37.708 980.009 37.708C973.497 37.782 968.909 40.15 968.983 44.368C968.983 47.994 971.943 49.77 978.159 51.25L984.819 52.73C994.883 55.024 999.323 58.872 999.323 66.05C999.397 74.116 991.627 79.592 980.305 79.592Z" fill="white"/>
<path d="M414.204 79V80H416.854L414.865 78.2493L414.204 79ZM403.77 79L403.092 79.7354L403.379 80H403.77V79ZM381.126 58.132L381.804 57.3966L380.126 55.8505V58.132H381.126ZM381.126 79V80H382.126V79H381.126ZM373.8 79H372.8V80H373.8V79ZM373.8 31.64V30.64H372.8V31.64H373.8ZM392.596 59.982V58.982H389.946L391.935 60.7327L392.596 59.982ZM381.126 38.3V37.3H380.126V38.3H381.126ZM381.126 53.618H380.126V54.618H381.126V53.618ZM414.204 78H403.77V80H414.204V78ZM404.448 78.2646L381.804 57.3966L380.448 58.8674L403.092 79.7354L404.448 78.2646ZM380.126 58.132V79H382.126V58.132H380.126ZM381.126 78H373.8V80H381.126V78ZM374.8 79V31.64H372.8V79H374.8ZM373.8 32.64L396 32.64V30.64L373.8 30.64V32.64ZM396 32.64C400.991 32.64 405.056 33.8797 407.853 36.1204C410.622 38.3387 412.242 41.612 412.242 45.922H414.242C414.242 41.056 412.384 37.1883 409.103 34.5596C405.851 31.9533 401.295 30.64 396 30.64V32.64ZM412.242 45.922C412.242 50.3771 410.746 53.5827 408.135 55.6995C405.491 57.8438 401.567 58.982 396.518 58.982V60.982C401.829 60.982 406.267 59.7892 409.395 57.253C412.556 54.6893 414.242 50.8649 414.242 45.922H412.242ZM396.518 58.982H392.596V60.982H396.518V58.982ZM391.935 60.7327L413.543 79.7507L414.865 78.2493L393.257 59.2313L391.935 60.7327ZM380.126 38.3V53.618H382.126V38.3H380.126ZM381.126 54.618H396.518V52.618H381.126V54.618ZM396.518 54.618C399.385 54.618 401.946 53.9812 403.811 52.5294C405.715 51.0474 406.768 48.8139 406.768 45.922H404.768C404.768 48.2841 403.934 49.8986 402.582 50.9511C401.191 52.0338 399.127 52.618 396.518 52.618V54.618ZM406.768 45.922C406.768 43.0955 405.708 40.8844 403.811 39.4071C401.949 37.958 399.392 37.3 396.518 37.3V39.3C399.12 39.3 401.188 39.9 402.582 40.9854C403.94 42.0426 404.768 43.6425 404.768 45.922H406.768ZM396.518 37.3H381.126V39.3H396.518V37.3ZM424.53 79H423.53V80H424.53V79ZM424.53 31.64V30.64H423.53V31.64H424.53ZM461.53 31.64H462.53V30.64H461.53V31.64ZM461.53 38.3V39.3H462.53V38.3H461.53ZM431.782 38.3V37.3H430.782V38.3H431.782ZM431.782 50.436H430.782V51.436H431.782V50.436ZM453.39 50.436H454.39V49.436H453.39V50.436ZM453.39 56.948V57.948H454.39V56.948H453.39ZM431.782 56.948V55.948H430.782V56.948H431.782ZM431.782 72.34H430.782V73.34H431.782V72.34ZM461.604 72.34H462.604V71.34H461.604V72.34ZM461.604 79V80H462.604V79H461.604ZM425.53 79V31.64H423.53V79H425.53ZM424.53 32.64H461.53V30.64L424.53 30.64V32.64ZM460.53 31.64V38.3H462.53V31.64H460.53ZM461.53 37.3H431.782V39.3H461.53V37.3ZM430.782 38.3V50.436H432.782V38.3H430.782ZM431.782 51.436H453.39V49.436H431.782V51.436ZM452.39 50.436V56.948H454.39V50.436H452.39ZM453.39 55.948H431.782V57.948H453.39V55.948ZM430.782 56.948V72.34H432.782V56.948H430.782ZM431.782 73.34H461.604V71.34H431.782V73.34ZM460.604 72.34V79H462.604V72.34H460.604ZM461.604 78H424.53V80H461.604V78ZM472.659 79H471.659V80H472.659V79ZM472.659 31.714L472.655 30.714L471.659 30.7186V31.714H472.659ZM488.717 31.64L488.713 30.64L488.713 30.64L488.717 31.64ZM479.911 72.414H478.911V73.4224L479.92 73.414L479.911 72.414ZM488.717 72.34V71.34L488.709 71.34L488.717 72.34ZM488.717 38.3L488.709 39.3L488.712 39.3L488.717 38.3ZM479.911 38.226L479.92 37.226L478.911 37.2176V38.226H479.911ZM473.659 79V31.714H471.659V79H473.659ZM472.664 32.714L488.722 32.64L488.713 30.64L472.655 30.714L472.664 32.714ZM488.722 32.64C497.067 32.6039 503.617 35.0943 508.07 39.1503C512.518 43.2018 514.949 48.883 514.949 55.394H516.949C516.949 48.363 514.312 42.1302 509.417 37.6717C504.527 33.2177 497.462 30.6021 488.713 30.64L488.722 32.64ZM514.949 55.394C514.949 61.9035 512.519 67.5273 508.074 71.5323C503.622 75.5436 497.069 78 488.717 78V80C497.459 80 504.523 77.4244 509.413 73.0182C514.31 68.6057 516.949 62.4265 516.949 55.394H514.949ZM488.717 78L472.659 78V80L488.717 80V78ZM479.92 73.414L488.726 73.34L488.709 71.34L479.903 71.414L479.92 73.414ZM488.717 73.34C495.651 73.34 500.898 71.5586 504.42 68.3632C507.955 65.1569 509.623 60.6457 509.623 55.468L507.623 55.468C507.623 60.2063 506.109 64.1311 503.077 66.8818C500.032 69.6434 495.326 71.34 488.717 71.34V73.34ZM509.623 55.468C509.623 50.2558 507.957 45.6925 504.427 42.431C500.907 39.1786 495.66 37.3379 488.723 37.3L488.712 39.3C495.316 39.3361 500.023 41.0844 503.07 43.9C506.108 46.7065 507.623 50.6902 507.623 55.468L509.623 55.468ZM488.726 37.3L479.92 37.226L479.903 39.226L488.709 39.3L488.726 37.3ZM478.911 38.226V72.414H480.911V38.226H478.911ZM527.003 79H526.003V80H527.003V79ZM527.003 31.64V30.64H526.003V31.64H527.003ZM564.003 31.64H565.003V30.64H564.003V31.64ZM564.003 38.3V39.3H565.003V38.3H564.003ZM534.255 38.3V37.3H533.255V38.3H534.255ZM534.255 50.436H533.255V51.436H534.255V50.436ZM555.863 50.436H556.863V49.436H555.863V50.436ZM555.863 56.948V57.948H556.863V56.948H555.863ZM534.255 56.948V55.948H533.255V56.948H534.255ZM534.255 72.34H533.255V73.34H534.255V72.34ZM564.077 72.34H565.077V71.34H564.077V72.34ZM564.077 79V80H565.077V79H564.077ZM528.003 79V31.64H526.003V79H528.003ZM527.003 32.64L564.003 32.64V30.64L527.003 30.64V32.64ZM563.003 31.64V38.3H565.003V31.64L563.003 31.64ZM564.003 37.3L534.255 37.3V39.3L564.003 39.3V37.3ZM533.255 38.3V50.436H535.255V38.3H533.255ZM534.255 51.436L555.863 51.436V49.436L534.255 49.436V51.436ZM554.863 50.436V56.948H556.863V50.436H554.863ZM555.863 55.948L534.255 55.948V57.948L555.863 57.948V55.948ZM533.255 56.948V72.34H535.255V56.948H533.255ZM534.255 73.34H564.077V71.34H534.255V73.34ZM563.077 72.34V79H565.077V72.34H563.077ZM564.077 78H527.003V80H564.077V78ZM591.805 79.592V78.592L591.795 78.592L591.805 79.592ZM570.641 73.968L569.817 73.401L569.228 74.2558L570.104 74.8121L570.641 73.968ZM574.563 68.27L575.079 67.4136L574.273 66.9275L573.739 67.703L574.563 68.27ZM592.101 73.006V74.0061L592.112 74.0059L592.101 73.006ZM603.275 66.124L602.275 66.087L602.275 66.0969L602.275 66.1068L603.275 66.124ZM593.803 59.02L594.03 58.0463L594.021 58.0441L593.803 59.02ZM587.513 57.614L587.292 58.5893L587.294 58.5899L587.513 57.614ZM572.639 44.146H571.638L571.639 44.1566L572.639 44.146ZM590.843 31.122V30.122L590.836 30.122L590.843 31.122ZM609.269 36.228L610.104 36.7776L610.668 35.9202L609.796 35.3786L609.269 36.228ZM605.569 41.852L605.05 42.7068L605.874 43.2073L606.404 42.4016L605.569 41.852ZM591.509 37.708V36.7079L591.497 36.7081L591.509 37.708ZM580.483 44.368H581.483V44.3592L581.482 44.3505L580.483 44.368ZM589.659 51.25L589.427 52.2228L589.434 52.2245L589.442 52.2262L589.659 51.25ZM596.319 52.73L596.541 51.755L596.535 51.7538L596.319 52.73ZM610.823 66.05L609.823 66.05L609.823 66.0592L610.823 66.05ZM591.795 78.592C584.27 78.6644 576.472 76.4872 571.177 73.1239L570.104 74.8121C575.761 78.4048 583.947 80.6676 591.814 80.592L591.795 78.592ZM571.464 74.535L575.386 68.837L573.739 67.703L569.817 73.401L571.464 74.535ZM574.046 69.1264C579.245 72.2612 585.938 74.006 592.101 74.006V72.006C586.275 72.006 579.944 70.3468 575.079 67.4136L574.046 69.1264ZM592.112 74.0059C595.546 73.9678 598.516 73.3018 600.673 72.0035C602.866 70.6837 604.23 68.6906 604.274 66.1412L602.275 66.1068C602.245 67.8494 601.352 69.2603 599.642 70.29C597.895 71.3412 595.315 71.9702 592.089 72.0061L592.112 74.0059ZM604.274 66.161C604.315 65.0493 604.163 64.0412 603.742 63.1355C603.318 62.2241 602.654 61.4859 601.78 60.8676C600.084 59.6679 597.497 58.8576 594.03 58.0463L593.575 59.9937C597.064 60.8104 599.287 61.5541 600.625 62.5004C601.268 62.9551 601.677 63.4379 601.928 63.9787C602.183 64.5253 602.308 65.2007 602.275 66.087L604.274 66.161ZM594.021 58.0441L587.731 56.6381L587.294 58.5899L593.584 59.9959L594.021 58.0441ZM587.733 56.6387C582.739 55.5087 579.232 53.9319 576.973 51.8869C574.755 49.8794 573.673 47.3596 573.638 44.1354L571.639 44.1566C571.678 47.8884 572.964 50.9556 575.63 53.3696C578.256 55.7461 582.148 57.4253 587.292 58.5893L587.733 56.6387ZM573.639 44.146C573.639 40.6722 575.362 37.7205 578.377 35.5928C581.41 33.4521 585.749 32.1579 590.85 32.122L590.836 30.122C585.429 30.1601 580.665 31.5299 577.223 33.9587C573.763 36.4005 571.639 39.9238 571.639 44.146H573.639ZM590.843 32.122C597.537 32.122 604.014 34.1413 608.741 37.0774L609.796 35.3786C604.755 32.2467 597.912 30.122 590.843 30.122V32.122ZM608.433 35.6784L604.733 41.3024L606.404 42.4016L610.104 36.7776L608.433 35.6784ZM606.088 40.9972C601.817 38.4042 596.829 36.708 591.509 36.708V38.708C596.4 38.708 601.032 40.2678 605.05 42.7068L606.088 40.9972ZM591.497 36.7081C588.144 36.7462 585.179 37.3728 583.025 38.6183C580.835 39.885 579.438 41.8337 579.483 44.3855L581.482 44.3505C581.453 42.6843 582.314 41.34 584.026 40.3497C585.776 39.3382 588.361 38.7438 591.52 38.7079L591.497 36.7081ZM579.483 44.368C579.483 46.5279 580.399 48.1721 582.159 49.4278C583.843 50.6295 586.299 51.4782 589.427 52.2228L589.89 50.2772C586.802 49.5418 584.67 48.7625 583.32 47.7997C582.046 46.8909 581.483 45.8341 581.483 44.368H579.483ZM589.442 52.2262L596.102 53.7062L596.535 51.7538L589.875 50.2738L589.442 52.2262ZM596.096 53.705C601.068 54.8383 604.494 56.3251 606.673 58.2995C608.801 60.2276 609.823 62.6981 609.823 66.05H611.823C611.823 62.2239 610.625 59.1814 608.016 56.8175C605.459 54.4999 601.633 52.9157 596.541 51.755L596.096 53.705ZM609.823 66.0592C609.856 69.7276 608.122 72.8198 605.008 75.0303C601.871 77.2574 597.317 78.592 591.805 78.592V80.592C597.614 80.592 602.606 79.1886 606.166 76.6612C609.749 74.1172 611.863 70.4384 611.823 66.0408L609.823 66.0592ZM658.217 79.592V78.592L658.207 78.592L658.217 79.592ZM637.053 73.968L636.229 73.401L635.641 74.2558L636.517 74.8121L637.053 73.968ZM640.975 68.27L641.491 67.4136L640.685 66.9275L640.151 67.703L640.975 68.27ZM658.513 73.006V74.0061L658.524 74.0059L658.513 73.006ZM669.687 66.124L668.687 66.087L668.687 66.0969L668.687 66.1068L669.687 66.124ZM660.215 59.02L660.443 58.0463L660.433 58.0441L660.215 59.02ZM653.925 57.614L653.704 58.5893L653.707 58.5899L653.925 57.614ZM639.051 44.146H638.051L638.051 44.1566L639.051 44.146ZM657.255 31.122V30.122L657.248 30.122L657.255 31.122ZM675.681 36.228L676.516 36.7776L677.08 35.9202L676.208 35.3786L675.681 36.228ZM671.981 41.852L671.462 42.7068L672.286 43.2073L672.816 42.4016L671.981 41.852ZM657.921 37.708V36.7079L657.909 36.7081L657.921 37.708ZM646.895 44.368H647.895V44.3592L647.895 44.3505L646.895 44.368ZM656.071 51.25L655.839 52.2228L655.846 52.2245L655.854 52.2262L656.071 51.25ZM662.731 52.73L662.953 51.755L662.948 51.7538L662.731 52.73ZM677.235 66.05L676.235 66.05L676.235 66.0592L677.235 66.05ZM658.207 78.592C650.682 78.6644 642.884 76.4872 637.589 73.1239L636.517 74.8121C642.173 78.4048 650.359 80.6676 658.226 80.592L658.207 78.592ZM637.876 74.535L641.798 68.837L640.151 67.703L636.229 73.401L637.876 74.535ZM640.458 69.1264C645.657 72.2612 652.35 74.006 658.513 74.006V72.006C652.687 72.006 646.356 70.3468 641.491 67.4136L640.458 69.1264ZM658.524 74.0059C661.958 73.9678 664.928 73.3018 667.085 72.0035C669.278 70.6837 670.643 68.6906 670.687 66.1412L668.687 66.1068C668.657 67.8494 667.764 69.2603 666.054 70.29C664.307 71.3412 661.727 71.9702 658.502 72.0061L658.524 74.0059ZM670.686 66.161C670.727 65.0493 670.575 64.0412 670.154 63.1355C669.73 62.2241 669.066 61.4859 668.192 60.8676C666.496 59.6679 663.909 58.8576 660.443 58.0463L659.987 59.9937C663.476 60.8104 665.699 61.5541 667.037 62.5004C667.68 62.9551 668.089 63.4379 668.341 63.9787C668.595 64.5253 668.72 65.2007 668.687 66.087L670.686 66.161ZM660.433 58.0441L654.143 56.6381L653.707 58.5899L659.997 59.9959L660.433 58.0441ZM654.145 56.6387C649.152 55.5087 645.644 53.9319 643.385 51.8869C641.167 49.8794 640.085 47.3596 640.051 44.1354L638.051 44.1566C638.09 47.8884 639.376 50.9556 642.043 53.3696C644.668 55.7461 648.56 57.4253 653.704 58.5893L654.145 56.6387ZM640.051 44.146C640.051 40.6722 641.774 37.7205 644.789 35.5928C647.822 33.4521 652.161 32.1579 657.262 32.122L657.248 30.122C651.841 30.1601 647.077 31.5299 643.636 33.9587C640.175 36.4005 638.051 39.9238 638.051 44.146H640.051ZM657.255 32.122C663.949 32.122 670.427 34.1413 675.153 37.0774L676.208 35.3786C671.167 32.2467 664.324 30.122 657.255 30.122V32.122ZM674.845 35.6784L671.145 41.3024L672.816 42.4016L676.516 36.7776L674.845 35.6784ZM672.5 40.9972C668.229 38.4042 663.242 36.708 657.921 36.708V38.708C662.812 38.708 667.444 40.2678 671.462 42.7068L672.5 40.9972ZM657.909 36.7081C654.556 36.7462 651.591 37.3728 649.437 38.6183C647.247 39.885 645.85 41.8337 645.895 44.3855L647.895 44.3505C647.865 42.6843 648.726 41.34 650.438 40.3497C652.188 39.3382 654.773 38.7438 657.932 38.7079L657.909 36.7081ZM645.895 44.368C645.895 46.5279 646.811 48.1721 648.571 49.4278C650.255 50.6295 652.712 51.4782 655.839 52.2228L656.302 50.2772C653.214 49.5418 651.082 48.7625 649.732 47.7997C648.459 46.8909 647.895 45.8341 647.895 44.368H645.895ZM655.854 52.2262L662.514 53.7062L662.948 51.7538L656.288 50.2738L655.854 52.2262ZM662.508 53.705C667.48 54.8383 670.907 56.3251 673.085 58.2995C675.213 60.2276 676.235 62.6981 676.235 66.05H678.235C678.235 62.2239 677.037 59.1814 674.428 56.8175C671.871 54.4999 668.045 52.9157 662.953 51.755L662.508 53.705ZM676.235 66.0592C676.268 69.7276 674.534 72.8198 671.42 75.0303C668.283 77.2574 663.729 78.592 658.217 78.592V80.592C664.026 80.592 669.018 79.1886 672.578 76.6612C676.161 74.1172 678.275 70.4384 678.235 66.0408L676.235 66.0592ZM710.364 78.962C696.397 78.962 686.056 68.4422 686.056 55.394L684.056 55.394C684.056 69.5778 695.323 80.962 710.364 80.962V78.962ZM686.056 55.394C686.056 42.2017 696.393 31.826 710.364 31.826V29.826C695.327 29.826 684.056 41.0583 684.056 55.394L686.056 55.394ZM710.364 31.826C724.339 31.826 734.746 42.2055 734.746 55.394H736.746C736.746 41.0545 725.397 29.826 710.364 29.826V31.826ZM734.746 55.394C734.746 68.4384 724.335 78.962 710.364 78.962V80.962C725.401 80.962 736.746 69.5816 736.746 55.394H734.746ZM710.364 74.08C721.106 74.08 729.42 66.032 729.42 55.394L727.42 55.394C727.42 64.884 720.046 72.08 710.364 72.08V74.08ZM729.42 55.394C729.42 44.7615 721.112 36.634 710.364 36.634V38.634C720.04 38.634 727.42 45.8985 727.42 55.394L729.42 55.394ZM710.364 36.634C699.616 36.634 691.308 44.7615 691.308 55.394H693.308C693.308 45.8985 700.688 38.634 710.364 38.634V36.634ZM691.308 55.394C691.308 66.032 699.622 74.08 710.364 74.08V72.08C700.682 72.08 693.308 64.884 693.308 55.394H691.308ZM788.793 39.336L789.406 40.1259L790.27 39.4553L789.525 38.6548L788.793 39.336ZM783.169 43.702L782.441 44.3878L783.065 45.0492L783.782 44.4919L783.169 43.702ZM783.317 66.938L783.919 66.1392L783.204 65.6008L782.59 66.2518L783.317 66.938ZM789.015 71.23L789.751 71.9066L790.498 71.0947L789.617 70.4312L789.015 71.23ZM769.257 78.814C755.502 78.814 745.097 68.5804 745.097 55.394H743.097C743.097 69.7356 754.449 80.814 769.257 80.814V78.814ZM745.097 55.394C745.097 42.2037 755.506 31.9 769.257 31.9V29.9C754.445 29.9 743.097 41.0563 743.097 55.394H745.097ZM769.257 31.9C776.674 31.9 783.291 34.8911 788.061 40.0172L789.525 38.6548C784.379 33.1248 777.233 29.9 769.257 29.9V31.9ZM788.18 38.5461L782.556 42.9121L783.782 44.4919L789.406 40.1259L788.18 38.5461ZM783.897 43.0162C780.077 38.9619 774.927 36.782 769.257 36.782V38.782C774.392 38.782 779.01 40.7461 782.441 44.3878L783.897 43.0162ZM769.257 36.782C758.666 36.782 750.349 44.6792 750.349 55.394H752.349C752.349 45.8328 759.721 38.782 769.257 38.782V36.782ZM750.349 55.394C750.349 66.1088 758.666 74.006 769.257 74.006V72.006C759.721 72.006 752.349 64.9552 752.349 55.394H750.349ZM769.257 74.006C775.087 74.006 780.159 71.743 784.045 67.6242L782.59 66.2518C779.075 69.977 774.527 72.006 769.257 72.006V74.006ZM782.715 67.7368L788.413 72.0288L789.617 70.4312L783.919 66.1392L782.715 67.7368ZM788.279 70.5534C783.435 75.8241 776.894 78.814 769.257 78.814V80.814C777.456 80.814 784.531 77.5879 789.751 71.9066L788.279 70.5534ZM798.577 79H797.577V80H798.577V79ZM798.577 31.64V30.64H797.577V31.64H798.577ZM805.903 31.64L806.903 31.64V30.64L805.903 30.64V31.64ZM805.903 79V80H806.903V79H805.903ZM799.577 79V31.64H797.577V79H799.577ZM798.577 32.64H805.903V30.64H798.577V32.64ZM804.903 31.64V79H806.903V31.64L804.903 31.64ZM805.903 78H798.577V80H805.903V78ZM812.501 79.074L811.624 78.5934L810.812 80.074H812.501V79.074ZM839.511 29.79L840.391 29.3155L839.518 27.696L838.634 29.3094L839.511 29.79ZM866.077 79.074V80.074H867.752L866.957 78.5995L866.077 79.074ZM858.233 79.074L857.347 79.5387L857.628 80.074H858.233V79.074ZM852.757 68.64L853.642 68.1753L853.361 67.64H852.757V68.64ZM826.043 68.64V67.64H825.442L825.16 68.1704L826.043 68.64ZM820.493 79.074V80.074H821.094L821.376 79.5436L820.493 79.074ZM829.299 62.572L828.416 62.1016L827.633 63.572H829.299V62.572ZM849.427 62.572V63.572H851.082L850.312 62.107L849.427 62.572ZM839.437 43.554L840.322 43.089L839.443 41.416L838.554 43.0836L839.437 43.554ZM813.378 79.5546L840.388 30.2706L838.634 29.3094L811.624 78.5934L813.378 79.5546ZM838.631 30.2645L865.197 79.5485L866.957 78.5995L840.391 29.3155L838.631 30.2645ZM866.077 78.074H858.233V80.074H866.077V78.074ZM859.118 78.6093L853.642 68.1753L851.871 69.1047L857.347 79.5387L859.118 78.6093ZM852.757 67.64L826.043 67.64V69.64L852.757 69.64V67.64ZM825.16 68.1704L819.61 78.6044L821.376 79.5436L826.926 69.1096L825.16 68.1704ZM820.493 78.074H812.501V80.074H820.493V78.074ZM829.299 63.572H849.427V61.572H829.299V63.572ZM850.312 62.107L840.322 43.089L838.552 44.019L848.542 63.037L850.312 62.107ZM838.554 43.0836L828.416 62.1016L830.181 63.0424L840.319 44.0244L838.554 43.0836ZM872.722 79H871.722V80H872.722V79ZM872.722 31.64V30.64L871.722 30.64V31.64L872.722 31.64ZM880.048 31.64L881.048 31.6418L881.05 30.64H880.048V31.64ZM879.974 72.34L878.974 72.3382L878.972 73.34H879.974V72.34ZM906.688 72.34H907.688V71.34H906.688V72.34ZM906.688 79V80H907.688V79H906.688ZM873.722 79V31.64L871.722 31.64V79H873.722ZM872.722 32.64H880.048V30.64H872.722V32.64ZM879.048 31.6382L878.974 72.3382L880.974 72.3418L881.048 31.6418L879.048 31.6382ZM879.974 73.34H906.688V71.34H879.974V73.34ZM905.688 72.34V79H907.688V72.34H905.688ZM906.688 78H872.722V80H906.688V78ZM915.503 79H914.503V80H915.503V79ZM915.503 31.64V30.64H914.503V31.64H915.503ZM952.503 31.64H953.503V30.64H952.503V31.64ZM952.503 38.3V39.3H953.503V38.3H952.503ZM922.755 38.3V37.3H921.755V38.3H922.755ZM922.755 50.436H921.755V51.436H922.755V50.436ZM944.363 50.436H945.363V49.436H944.363V50.436ZM944.363 56.948V57.948H945.363V56.948H944.363ZM922.755 56.948V55.948H921.755V56.948H922.755ZM922.755 72.34H921.755V73.34H922.755V72.34ZM952.577 72.34H953.577V71.34H952.577V72.34ZM952.577 79V80H953.577V79H952.577ZM916.503 79V31.64H914.503V79H916.503ZM915.503 32.64L952.503 32.64V30.64L915.503 30.64V32.64ZM951.503 31.64V38.3H953.503V31.64H951.503ZM952.503 37.3L922.755 37.3V39.3L952.503 39.3V37.3ZM921.755 38.3V50.436H923.755V38.3H921.755ZM922.755 51.436H944.363V49.436H922.755V51.436ZM943.363 50.436V56.948H945.363V50.436H943.363ZM944.363 55.948H922.755V57.948H944.363V55.948ZM921.755 56.948V72.34H923.755V56.948H921.755ZM922.755 73.34L952.577 73.34V71.34L922.755 71.34V73.34ZM951.577 72.34V79H953.577V72.34H951.577ZM952.577 78L915.503 78V80L952.577 80V78ZM980.305 79.592V78.592L980.295 78.592L980.305 79.592ZM959.141 73.968L958.317 73.401L957.728 74.2558L958.604 74.8121L959.141 73.968ZM963.063 68.27L963.579 67.4136L962.773 66.9275L962.239 67.703L963.063 68.27ZM980.601 73.006V74.0061L980.612 74.0059L980.601 73.006ZM991.775 66.124L990.775 66.087L990.775 66.0969L990.775 66.1068L991.775 66.124ZM982.303 59.02L982.53 58.0463L982.521 58.0441L982.303 59.02ZM976.013 57.614L975.792 58.5893L975.794 58.5899L976.013 57.614ZM961.139 44.146H960.138L960.139 44.1566L961.139 44.146ZM979.343 31.122V30.122L979.336 30.122L979.343 31.122ZM997.769 36.228L998.604 36.7776L999.168 35.9202L998.296 35.3786L997.769 36.228ZM994.069 41.852L993.55 42.7068L994.374 43.2073L994.904 42.4016L994.069 41.852ZM980.009 37.708V36.7079L979.997 36.7081L980.009 37.708ZM968.983 44.368H969.983V44.3592L969.982 44.3505L968.983 44.368ZM978.159 51.25L977.927 52.2228L977.934 52.2245L977.942 52.2262L978.159 51.25ZM984.819 52.73L985.041 51.755L985.035 51.7538L984.819 52.73ZM999.323 66.05L998.323 66.05L998.323 66.0592L999.323 66.05ZM980.295 78.592C972.77 78.6644 964.972 76.4872 959.677 73.1239L958.604 74.8121C964.261 78.4048 972.447 80.6676 980.314 80.592L980.295 78.592ZM959.964 74.535L963.886 68.837L962.239 67.703L958.317 73.401L959.964 74.535ZM962.546 69.1264C967.745 72.2612 974.438 74.006 980.601 74.006V72.006C974.775 72.006 968.444 70.3468 963.579 67.4136L962.546 69.1264ZM980.612 74.0059C984.046 73.9678 987.016 73.3018 989.173 72.0035C991.366 70.6837 992.73 68.6906 992.774 66.1412L990.775 66.1068C990.745 67.8494 989.852 69.2603 988.142 70.29C986.395 71.3412 983.815 71.9702 980.589 72.0061L980.612 74.0059ZM992.774 66.161C992.815 65.0493 992.663 64.0412 992.242 63.1355C991.818 62.2241 991.154 61.4859 990.28 60.8676C988.584 59.6679 985.997 58.8576 982.53 58.0463L982.075 59.9937C985.564 60.8104 987.787 61.5541 989.125 62.5004C989.768 62.9551 990.177 63.4379 990.428 63.9787C990.683 64.5253 990.808 65.2007 990.775 66.087L992.774 66.161ZM982.521 58.0441L976.231 56.6381L975.794 58.5899L982.084 59.9959L982.521 58.0441ZM976.233 56.6387C971.239 55.5087 967.732 53.9319 965.473 51.8869C963.255 49.8794 962.173 47.3596 962.138 44.1354L960.139 44.1566C960.178 47.8884 961.464 50.9556 964.13 53.3696C966.756 55.7461 970.648 57.4253 975.792 58.5893L976.233 56.6387ZM962.139 44.146C962.139 40.6722 963.862 37.7205 966.877 35.5928C969.91 33.4521 974.249 32.1579 979.35 32.122L979.336 30.122C973.929 30.1601 969.165 31.5299 965.723 33.9587C962.263 36.4005 960.139 39.9238 960.139 44.146H962.139ZM979.343 32.122C986.037 32.122 992.514 34.1413 997.241 37.0774L998.296 35.3786C993.255 32.2467 986.412 30.122 979.343 30.122V32.122ZM996.933 35.6784L993.233 41.3024L994.904 42.4016L998.604 36.7776L996.933 35.6784ZM994.588 40.9972C990.317 38.4042 985.329 36.708 980.009 36.708V38.708C984.9 38.708 989.532 40.2678 993.55 42.7068L994.588 40.9972ZM979.997 36.7081C976.644 36.7462 973.679 37.3728 971.525 38.6183C969.335 39.885 967.938 41.8337 967.983 44.3855L969.982 44.3505C969.953 42.6843 970.814 41.34 972.526 40.3497C974.276 39.3382 976.861 38.7438 980.02 38.7079L979.997 36.7081ZM967.983 44.368C967.983 46.5279 968.899 48.1721 970.659 49.4278C972.343 50.6295 974.799 51.4782 977.927 52.2228L978.39 50.2772C975.302 49.5418 973.17 48.7625 971.82 47.7997C970.546 46.8909 969.983 45.8341 969.983 44.368H967.983ZM977.942 52.2262L984.602 53.7062L985.035 51.7538L978.375 50.2738L977.942 52.2262ZM984.596 53.705C989.568 54.8383 992.994 56.3251 995.173 58.2995C997.301 60.2276 998.323 62.6981 998.323 66.05H1000.32C1000.32 62.2239 999.125 59.1814 996.516 56.8175C993.959 54.4999 990.133 52.9157 985.041 51.755L984.596 53.705ZM998.323 66.0592C998.356 69.7276 996.622 72.8198 993.508 75.0303C990.371 77.2574 985.817 78.592 980.305 78.592V80.592C986.114 80.592 991.106 79.1886 994.666 76.6612C998.249 74.1172 1000.36 70.4384 1000.32 66.0408L998.323 66.0592Z" fill="black" mask="url(#path-1-outside-1_380_2631)"/>
<line x1="344" y1="59.5" x2="16" y2="59.5" stroke="#2C2727"/>
</svg>
